<svg width="38" height="38" viewBox="0 0 38 38" fill="none" xmlns="http://www.w3.org/2000/svg">
<circle cx="19" cy="19" r="19" fill="black"/>
<path d="M23.875 27.75H14.125C12.0625 27.75 10.375 26.0625 10.375 24V23.875L10.75 13.875C10.8125 11.8125 12.5 10.25 14.5 10.25H23.5C25.5 10.25 27.1875 11.8125 27.25 13.875L27.625 23.875C27.6875 24.875 27.3125 25.8125 26.625 26.5625C25.9375 27.3125 25 27.75 24 27.75C24 27.75 23.9375 27.75 23.875 27.75ZM14.5 11.5C13.125 11.5 12.0625 12.5625 12 13.875L11.625 24C11.625 25.375 12.75 26.5 14.125 26.5H24C24.6875 26.5 25.3125 26.1875 25.75 25.6875C26.1875 25.1875 26.4375 24.5625 26.4375 23.875L26.0625 13.875C26 12.5 24.9375 11.5 23.5625 11.5H14.5Z" fill="#F6F6F6"/>
<path d="M19 17.75C16.5625 17.75 14.625 15.8125 14.625 13.375C14.625 13 14.875 12.75 15.25 12.75C15.625 12.75 15.875 13 15.875 13.375C15.875 15.125 17.25 16.5 19 16.5C20.75 16.5 22.125 15.125 22.125 13.375C22.125 13 22.375 12.75 22.75 12.75C23.125 12.75 23.375 13 23.375 13.375C23.375 15.8125 21.4375 17.75 19 17.75Z" fill="#F6F6F6"/>
</svg>
