<svg width="342" height="219" viewBox="0 0 342 219" fill="none" xmlns="http://www.w3.org/2000/svg">
<path d="M54.9873 13.2148C54.9522 13.2996 54.9188 13.3832 54.8866 13.4708C51.3522 22.3903 52.2065 32.7687 57.002 41.0887C62.6517 50.8947 73.1927 55.265 82.6367 60.5168C87.6851 63.3264 92.4644 66.5587 96.122 71.0964C98.1267 73.5846 99.8561 76.2878 101.948 78.7095C103.764 80.8098 105.868 82.6424 108.172 84.1925C117.747 90.6433 129.706 91.7561 140.899 90.4931C147.489 89.7483 154.005 88.3191 160.417 86.6571C163.478 85.865 166.518 84.9992 169.532 84.0565C168.552 84.8114 167.591 85.5903 166.649 86.39C163.744 88.8542 160.973 91.5108 158.368 94.3172C153.299 97.9756 148.294 101.721 143.353 105.553C130.671 112.95 115.542 116.003 100.947 114.136C91.515 112.93 82.9229 109.327 74.4197 105.22C69.885 103.033 65.3669 100.8 60.6795 98.9579C56.0908 97.1525 51.3435 95.7947 46.5238 94.7794C35.8754 92.5323 24.9761 91.8933 14.1366 91.2748C14.0887 91.2732 14.0426 91.2705 13.9962 91.2674C13.3737 91.2318 13.2696 92.1911 13.8633 92.3392C13.9079 92.3498 13.9543 92.3623 13.9976 92.3743C32.1608 96.9872 44.4374 112.613 59.7714 122.294C67.4342 127.13 75.8672 130.162 84.9644 130.48C94.1309 130.799 103.275 128.683 111.73 125.251C118.989 122.303 125.791 118.445 132.408 114.278C127.415 118.364 122.496 122.543 117.654 126.811C116.721 127.634 115.792 128.458 114.864 129.286C113.975 130.082 113.086 130.881 112.202 131.685C107.408 136.029 102.697 140.46 98.0687 144.981C95.7621 145.743 93.284 145.954 90.8297 146.032C87.2282 146.145 83.6555 146.156 80.0783 146.647C72.7606 147.654 65.6349 150.065 59.2137 153.708C52.3756 157.59 46.6684 163.151 39.1869 165.887C32.9851 168.154 26.4022 169.059 19.9597 170.371C13.0442 171.782 6.13258 173.748 0.53863 178.217C0.464821 178.273 0.391077 178.331 0.319071 178.392C-0.144715 178.769 0.376752 179.38 0.846424 179.303C8.22949 178.1 15.7465 177.767 23.2086 178.33C30.0986 178.848 36.8799 180.607 43.7963 180.758C47.1691 180.835 50.548 180.441 53.7389 179.315C57.0161 178.157 60.0182 176.375 62.8904 174.443C65.872 172.438 68.7385 170.264 71.7878 168.36C75.0523 166.32 78.5574 164.741 81.9976 163.029C88.7577 159.659 96.0269 154.917 97.6161 146.954C97.9631 146.614 98.3085 146.275 98.657 145.937C99.4813 145.129 100.309 144.326 101.139 143.524C102.972 141.76 104.815 140.009 106.673 138.268C105.051 140.254 103.473 142.289 101.993 144.382C98.4222 149.442 95.4294 154.857 93.7925 160.863C92.1925 166.739 92.3618 172.769 92.725 178.794C93.0946 184.94 93.2412 191.036 92.6236 197.174C91.9316 204.017 90.455 210.769 88.2738 217.29C88.2599 217.335 88.2434 217.379 88.2295 217.424C88.0146 218.065 88.894 218.278 89.231 217.83C89.2586 217.793 89.2849 217.758 89.3124 217.721C96.8805 207.668 104.526 197.289 108.811 185.332C110.921 179.447 112.058 173.261 111.916 166.997C111.761 160.21 110.524 153.488 111.264 146.695C111.652 143.129 112.354 139.578 113.379 136.14C114.003 134.045 114.753 131.937 115.747 129.964C122.191 124.203 128.776 118.6 135.496 113.162C137.548 111.502 139.612 109.856 141.689 108.227C142.217 107.812 142.746 107.398 143.279 106.985C143.48 106.825 143.686 106.668 143.89 106.508C145.747 105.065 147.614 103.635 149.491 102.218C151.336 100.825 153.191 99.4404 155.056 98.07C154.587 98.6295 154.125 99.1929 153.67 99.7599C150.362 103.883 147.416 108.362 145.495 113.311C143.652 118.058 142.905 123.246 144.01 128.268C144.716 131.47 146.209 134.51 146.336 137.827C146.443 140.64 145.684 143.377 144.832 146.03C143.967 148.723 142.968 151.394 142.506 154.197C142.073 156.814 142.17 159.478 142.745 162.068C143.96 167.543 147.145 172.474 151.119 176.365C156.159 181.297 162.381 184.767 168.52 188.119C174.984 191.648 181.449 195.169 187.914 198.696C189.465 199.541 191.017 200.388 192.568 201.233C192.65 201.278 192.732 201.322 192.814 201.367C193.3 201.632 193.792 201.096 193.553 200.622C191.105 195.776 188.655 190.928 186.206 186.08C183.772 181.261 181.451 176.357 178.741 171.686C176.1 167.133 172.727 163.116 169.773 158.774C167.266 155.092 165.322 151.131 164.176 146.819C162.085 138.958 162.517 130.439 165.449 122.856C167.034 118.759 169.477 115.185 172.022 111.638C174.581 108.067 177.205 104.417 178.517 100.17C180.082 95.113 178.73 89.6399 180.811 84.7028C181.547 82.9587 182.541 81.3639 183.691 79.8809C183.959 79.5303 184.238 79.1875 184.524 78.8506C185.21 78.0398 185.935 77.2625 186.684 76.5053C187.251 76.1445 187.82 75.7887 188.388 75.4328C188.558 75.3259 188.728 75.2208 188.899 75.1141C189.318 74.8524 189.739 74.5897 190.161 74.3292C198.333 69.2545 206.643 64.4002 215.076 59.7686C222.021 55.9551 229.048 52.2938 236.153 48.7893C227.76 58.1691 220.183 69.0131 217.968 81.6094C216.691 88.8633 217.675 96.1576 217.891 103.453C218.098 110.491 217.24 117.51 215.303 124.28C213.147 131.806 209.694 138.919 205.125 145.272C205.097 145.312 205.07 145.352 205.041 145.391C204.671 145.905 205.476 146.453 205.903 146.046C205.938 146.013 205.972 145.979 206.005 145.945C216.213 136.153 225.075 124.532 230.164 111.23C232.635 104.771 234.135 97.9158 234.291 90.9882C234.459 83.6168 232.629 76.4339 232.329 69.0971C232.152 64.7592 232.644 60.4196 234.407 56.4193C236.273 52.1782 239.236 48.5421 242.77 45.5779C243.901 45.0402 245.031 44.5057 246.162 43.9755C265.971 34.6997 286.343 26.6266 307.136 19.8292C327.797 13.0753 348.872 7.58162 370.215 3.42546C372.893 2.90413 375.575 2.4045 378.264 1.92319C378.955 1.79976 378.669 0.747263 377.983 0.869589C356.4 4.73186 335.066 9.94126 314.135 16.4539C293.33 22.9261 272.927 30.6738 253.061 39.6118C249.414 41.2532 245.784 42.9361 242.175 44.6574C240.805 45.3098 239.438 45.9679 238.077 46.6325C229.799 50.6653 221.626 54.9077 213.565 59.3557C213.037 59.3525 212.507 59.3446 211.978 59.3348C206.649 59.2506 201.257 58.9314 196.157 57.3034C193.168 56.3486 190.314 54.8952 187.938 52.821C185.199 50.4318 183.2 47.3625 181.485 44.1859C178.33 38.3319 175.957 31.8899 171.141 27.1188C169.012 25.0101 166.442 23.3542 163.538 22.5672C160.697 21.7968 157.716 21.8362 154.805 21.9945C148.471 22.3394 139.276 23.197 136.034 16.2249C136.014 16.1832 135.994 16.142 135.975 16.0985C135.722 15.5333 134.789 15.9222 134.976 16.5078C134.989 16.5524 135.005 16.5988 135.02 16.6419C137.254 23.4834 141.925 28.9825 148.1 32.6173C151.353 34.5322 154.824 36.0579 158.01 38.0869C161.022 40.0038 163.519 42.4692 165.733 45.2579C169.94 50.5575 173.11 56.791 178.188 61.3624C180.532 63.4721 183.284 65.1182 186.349 65.9096C189.337 66.6812 192.459 66.6321 195.486 66.1408C200.7 65.2961 205.488 63.0971 210.356 61.1411C205.225 64.0179 200.138 66.9794 195.101 70.0239C193.63 70.9136 192.162 71.8101 190.699 72.7138C189.783 73.2772 188.87 73.8464 187.96 74.416C187.678 74.4952 187.406 74.5838 187.155 74.66C187.084 74.6818 187.015 74.7023 186.946 74.7253C185.535 75.1619 184.15 75.6678 182.787 76.2324C181.258 76.8649 179.767 77.5729 178.311 78.349C169.457 77.567 160.63 76.4976 151.844 75.1358C146.515 74.3114 141.133 73.5084 135.881 72.2691C133.288 71.6586 130.715 70.8753 128.327 69.6738C125.894 68.449 123.691 66.8358 121.626 65.0674C117.647 61.6605 114.135 57.7251 109.945 54.5622C105.99 51.5746 101.536 49.3604 96.9657 47.484C88.1577 43.8663 78.7016 41.4716 70.6335 36.2581C62.8342 31.2167 55.7383 23.3059 56.0062 13.4813C56.0215 12.9691 55.1981 12.6964 54.9873 13.2148ZM82.5314 161.54C79.1943 163.249 75.7493 164.75 72.5089 166.648C69.4621 168.434 66.6277 170.545 63.7281 172.555C60.8085 174.579 57.7917 176.548 54.4812 177.876C51.3445 179.134 48.0294 179.676 44.6567 179.68C37.8901 179.686 31.2479 177.949 24.5301 177.35C17.2682 176.701 9.9523 176.908 2.73795 177.92C12.9669 170.762 26.5698 171.241 38.118 167.411C41.397 166.325 44.4992 164.867 47.4055 162.999C50.9252 160.737 54.1736 158.082 57.7238 155.866C64.0685 151.907 71.1856 149.226 78.559 147.977C82.6424 147.286 86.7109 147.254 90.8348 147.122C92.7284 147.063 94.6409 146.923 96.4852 146.533C96.5265 146.525 96.5668 146.516 96.6067 146.507C96.5913 146.541 96.5822 146.578 96.573 146.618C96.4478 147.255 96.2849 147.871 96.087 148.466C94.0247 154.662 88.1579 158.657 82.5314 161.54ZM110.739 142.693C110.207 145.76 109.879 148.863 109.91 151.98C109.939 155.432 110.309 158.865 110.573 162.304C111.085 169.018 110.689 175.527 108.762 182.002C106.928 188.153 104.048 193.938 100.737 199.419C97.5407 204.709 93.9314 209.733 90.2373 214.684C93.3744 204.165 94.6065 193.19 94.0167 182.208C93.6887 176.119 93.0522 169.947 94.2059 163.904C95.2892 158.229 97.7651 152.948 100.842 148.095C104.374 142.524 108.667 137.492 112.969 132.513C113.003 132.473 113.032 132.431 113.05 132.388C113.262 132.197 113.476 132.003 113.689 131.81C112.245 135.298 111.366 139.071 110.739 142.693ZM87.683 129.411C78.4705 129.575 69.8054 127.027 61.9073 122.326C54.0413 117.643 47.1899 111.498 40.0594 105.808C33.447 100.531 26.4335 95.512 18.4709 92.6183C27.022 93.1301 35.5783 93.7881 44.0041 95.385C48.7541 96.2847 53.4545 97.4856 58.0121 99.1119C62.9703 100.883 67.7136 103.182 72.446 105.474C80.9736 109.603 89.5393 113.483 98.9687 114.949C107.181 116.226 115.604 115.968 123.731 114.258C128.303 113.295 132.775 111.865 137.05 109.99C122.084 119.79 105.994 129.088 87.683 129.411ZM239.459 47.1737C234.924 51.8483 231.893 57.7542 231.325 64.3741C230.69 71.751 232.637 79.0266 233.107 86.3532C234.032 100.764 228.806 114.713 220.955 126.577C217.431 131.901 213.373 136.853 208.955 141.459C215.09 131.367 218.599 119.709 218.981 107.882C219.217 100.593 217.986 93.3211 218.509 86.0365C219.012 79.059 221.365 72.3657 224.722 66.2704C228.492 59.4226 233.431 53.3041 238.723 47.5822C238.748 47.5544 238.768 47.5279 238.786 47.5005C239.01 47.3907 239.235 47.2823 239.459 47.1737ZM179.982 61.4648C174.851 57.3575 171.653 51.3724 167.79 46.172C165.893 43.619 163.833 41.1557 161.353 39.1464C158.627 36.9389 155.498 35.3476 152.405 33.7316C148.773 31.833 145.246 29.8124 142.368 26.8424C140.414 24.8259 138.799 22.5156 137.561 20.0102C140.868 22.8345 145.926 23.5008 150.167 23.3476C153.304 23.2352 156.44 22.8532 159.581 23.0464C163.013 23.2589 166.189 24.3781 168.878 26.5486C174.404 31.0096 176.959 37.915 180.16 44.0143C181.788 47.1171 183.65 50.1542 186.148 52.6415C188.327 54.8117 190.957 56.4597 193.802 57.6094C198.723 59.5942 204.04 60.1767 209.333 60.363C199.497 64.252 189.222 68.8601 179.982 61.4648ZM176.603 80.5561C177.242 80.18 177.886 79.813 178.537 79.4601C179.137 79.138 179.742 78.8264 180.353 78.5261C180.49 78.4565 180.628 78.3915 180.765 78.3247C181.833 77.8132 182.915 77.3391 184.017 76.9081C184.419 76.7484 184.823 76.5945 185.232 76.4489C184.544 77.1702 183.881 77.9151 183.257 78.689C183.238 78.7106 183.22 78.732 183.201 78.7541C182.932 79.091 182.666 79.4351 182.412 79.7842C181.822 80.5825 181.276 81.4163 180.788 82.2887C179.66 84.294 178.911 86.4665 178.619 88.7535C178.327 91.0404 178.421 93.3514 178.249 95.6473C177.529 105.302 169.33 111.79 165.437 120.126C162.027 127.43 161.014 135.764 162.381 143.701C163.068 147.692 164.377 151.586 166.284 155.16C168.777 159.834 172.277 163.843 175.257 168.194C178.725 173.26 181.339 178.861 184.101 184.326C186.67 189.409 189.239 194.495 191.807 199.577C186.416 196.639 181.023 193.696 175.632 190.758C169.867 187.614 163.951 184.636 158.514 180.939C149.386 174.731 141.144 164.617 143.882 152.881C144.991 148.117 147.348 143.599 147.435 138.627C147.483 135.737 146.518 133.051 145.691 130.324C144.95 127.883 144.517 125.412 144.575 122.855C144.803 112.826 151.242 103.898 157.676 96.7351C158.191 96.1603 158.715 95.5901 159.243 95.025C160.663 93.4984 162.126 92.0072 163.637 90.5634C166.383 87.9437 169.286 85.4914 172.382 83.2996C172.518 83.2021 172.657 83.1063 172.793 83.0089C174.033 82.1471 175.304 81.3256 176.603 80.5561ZM66.1031 34.3212C73.5996 40.3671 82.7268 43.2729 91.623 46.5728C96.5121 48.3852 101.379 50.3562 105.84 53.0853C110.539 55.959 114.345 59.8428 118.345 63.5782C122.195 67.1738 126.296 70.3493 131.316 72.1007C136.442 73.8877 141.954 74.6211 147.288 75.5055C157.016 77.1199 166.801 78.3794 176.62 79.2856C175.135 80.1433 173.687 81.0686 172.278 82.048C163.621 84.9267 154.745 87.2311 145.764 88.7186C134.66 90.5579 122.798 90.643 112.509 85.4658C110.04 84.2213 107.708 82.7009 105.628 80.8771C103.359 78.8842 101.515 76.5317 99.7372 74.1059C98.032 71.7805 96.3376 69.4472 94.2733 67.4247C92.336 65.5251 90.1618 63.8762 87.8947 62.3923C78.8919 56.5072 67.8461 53.1001 60.7654 44.608C54.3376 36.8975 52.1749 25.8932 55.0376 16.3093C55.851 23.5533 60.4732 29.7788 66.1031 34.3212Z" fill="#CCB181"/>
</svg>
