<svg width="156" height="183" viewBox="0 0 156 183" fill="none" xmlns="http://www.w3.org/2000/svg">
<path d="M3.54876 147.485C3.58453 147.568 3.61943 147.65 3.6552 147.734C3.80287 148.081 4.34098 147.851 4.1933 147.505C4.15753 147.421 4.12265 147.339 4.08688 147.255C3.93987 146.911 3.40109 147.138 3.54876 147.485Z" fill="black"/>
<path d="M14.5045 139.069C12.2849 141.505 9.75598 143.598 6.9571 145.337C6.63903 145.534 7.00453 145.991 7.3223 145.794C10.1658 144.028 12.7195 141.892 14.974 139.418C15.2267 139.14 14.7562 138.794 14.5045 139.069Z" fill="black"/>
<path d="M-13.6511 107.454C-5.47156 105.771 2.26353 102.444 9.10732 97.6632C9.41719 97.4473 9.052 96.9901 8.74412 97.2052C1.98612 101.924 -5.65688 105.212 -13.7279 106.873C-14.0952 106.949 -14.0184 107.529 -13.6511 107.454Z" fill="black"/>
<path d="M11.0694 122.242C11.2359 122.262 11.3659 122.143 11.3963 121.988C11.4617 121.67 11.525 121.353 11.5908 121.035C11.6212 120.88 11.4848 120.727 11.3362 120.707C11.1698 120.686 11.041 120.807 11.0094 120.96C10.944 121.278 10.8816 121.597 10.8161 121.915C10.7845 122.068 10.9206 122.221 11.0694 122.242Z" fill="black"/>
<path d="M16.1352 120.749C15.6047 128.676 9.36166 134.575 6.90078 141.857C6.77961 142.211 7.32176 142.433 7.44337 142.073C9.9223 134.743 16.1825 128.814 16.7162 120.822C16.7418 120.448 16.1614 120.374 16.1352 120.749Z" fill="black"/>
<path d="M17.3621 115.542C16.8669 116.373 16.6807 117.315 16.8566 118.27C16.9254 118.64 17.5057 118.563 17.4369 118.193C17.2894 117.394 17.4172 116.589 17.8338 115.89C18.0231 115.571 17.557 115.217 17.3621 115.542Z" fill="black"/>
<path d="M1.11854 96.5585C4.42078 95.2123 7.42109 93.3131 10.045 90.9001C10.3215 90.6475 9.95957 90.1863 9.6818 90.442C7.09231 92.8223 4.14594 94.6934 0.889053 96.0204C0.539671 96.1616 0.769154 96.6997 1.11854 96.5585Z" fill="black"/>
<path d="M2.19242 69.6813C2.53765 69.8292 2.75644 69.2859 2.41091 69.1378C1.01178 68.5338 -0.384697 67.9311 -1.78413 67.3268C-2.13024 67.1769 -2.34684 67.719 -2.00042 67.8691C-0.604372 68.4724 0.792773 69.0773 2.19242 69.6813Z" fill="black"/>
<path d="M17.4823 103.148C17.8403 103.033 17.6092 102.496 17.2528 102.61C16.1291 102.974 15.7747 104.041 15.4317 105.075C14.9338 106.592 14.4779 108.124 14.052 109.661C13.2334 112.622 12.5445 115.619 11.9771 118.638C11.9064 119.008 12.486 119.08 12.5553 118.711C13.0616 116.026 13.6588 113.358 14.3656 110.719C14.6846 109.528 15.025 108.34 15.3851 107.162C15.7628 105.928 16.103 103.593 17.4823 103.148Z" fill="black"/>
<path d="M12.3233 95.1177C12.7983 94.6507 13.2739 94.186 13.7512 93.7183C14.0164 93.4578 13.6557 92.9987 13.3861 93.2611C12.911 93.7281 12.4354 94.1929 11.9581 94.6606C11.6912 94.919 12.0511 95.3811 12.3233 95.1177Z" fill="black"/>
<path d="M13.4468 90.1396C13.894 89.6312 14.4662 89.2676 15.1207 89.0903C15.4809 88.9927 15.4063 88.4118 15.0438 88.51C14.2231 88.7327 13.5393 89.1513 12.9773 89.79C12.7296 90.0742 13.1979 90.4211 13.4468 90.1396Z" fill="black"/>
<path d="M9.9668 73.7689C10.3134 73.6212 10.0839 73.0831 9.7373 73.2308C9.6748 73.2575 9.61032 73.285 9.54804 73.3114C9.20139 73.4591 9.4289 73.9981 9.77754 73.8495C9.83982 73.8231 9.9046 73.7958 9.9668 73.7689Z" fill="black"/>
<path d="M31.8711 118.697C32.116 119.272 32.361 119.847 32.6051 120.419C32.7528 120.766 33.2909 120.537 33.1432 120.19C32.8992 119.617 32.6544 119.043 32.4092 118.468C32.2613 118.122 31.7234 118.351 31.8711 118.697Z" fill="black"/>
<path d="M-2.04638 48.4205C-0.286451 48.0622 1.45569 48.3014 3.05548 49.1126C3.3933 49.284 3.60842 48.7395 3.27516 48.5713C1.59333 47.7161 -0.276043 47.4654 -2.12522 47.8411C-2.49283 47.9162 -2.41596 48.4964 -2.04638 48.4205Z" fill="black"/>
<path d="M28.1676 109.034C26.6447 114.508 25.0105 119.953 23.266 125.36C23.1511 125.717 23.693 125.939 23.8095 125.579C25.5528 120.169 27.1859 114.727 28.7111 109.253C28.8123 108.894 28.2693 108.671 28.1676 109.034Z" fill="black"/>
<path d="M6.62964 58.9143C6.86077 58.9556 7.04012 59.1081 7.13102 59.321C7.27641 59.6683 7.81548 59.4413 7.66913 59.0915C7.49861 58.686 7.13633 58.4081 6.7034 58.3356C6.33025 58.2715 6.26045 58.853 6.62964 58.9143Z" fill="black"/>
<path d="M29.3451 106.391C29.6154 105.999 29.6692 105.492 29.4567 105.059C29.2927 104.722 28.7534 104.949 28.9185 105.289C29.0397 105.537 29.0343 105.812 28.8757 106.042C28.662 106.352 29.1292 106.702 29.3451 106.391Z" fill="black"/>
<path d="M19.8439 78.2957C13.7398 81.6373 6.35214 82.0619 -0.0892173 79.4204C-0.437088 79.2788 -0.656544 79.8197 -0.307702 79.9638C6.26322 82.6595 13.8413 82.2453 20.0732 78.8341C20.3985 78.6546 20.1735 78.1146 19.8439 78.2957Z" fill="black"/>
<path d="M12.6862 74.1106C14.4783 74.4965 16.29 74.6958 18.1248 74.71C18.4967 74.7117 18.5727 74.1324 18.198 74.1295C16.3632 74.1154 14.5515 73.9161 12.7594 73.5301C12.3898 73.4512 12.3191 74.0307 12.6862 74.1106Z" fill="black"/>
<path d="M6.32609 40.46C2.29296 35.3882 -0.35194 29.3916 -1.3753 22.9918C-1.43446 22.6203 -2.01383 22.6992 -1.95436 23.0709C-0.914801 29.5682 1.77343 35.6736 5.86899 40.8257C6.1037 41.1192 6.56177 40.756 6.32609 40.46Z" fill="black"/>
<path d="M20.8874 77.5992C20.5408 77.7469 20.7703 78.285 21.1169 78.1373C21.463 77.9897 21.2338 77.4518 20.8874 77.5992Z" fill="black"/>
<path d="M29.7684 101.315C30.3711 99.4408 30.6302 97.5194 30.5478 95.5529C30.532 95.1755 29.9536 95.2569 29.9676 95.6298C30.0459 97.4964 29.7977 99.3187 29.2271 101.095C29.1131 101.454 29.6543 101.674 29.7684 101.315Z" fill="black"/>
<path d="M8.88621 61.488C10.9586 63.1758 13.1233 64.7459 15.3833 66.176C17.1346 67.2837 19.0492 68.6729 21.1922 68.7489C21.567 68.7622 21.6428 68.1831 21.2654 68.1684C18.9728 68.0875 16.8563 66.4462 15.0013 65.2378C13.0028 63.9381 11.0846 62.5222 9.23565 61.0188C8.94293 60.7793 8.59359 61.249 8.88621 61.488Z" fill="black"/>
<path d="M41.6076 120.484C43.8831 126.605 45.2611 133.001 45.7189 139.518C45.7441 139.894 46.3257 139.814 46.298 139.439C45.8372 132.873 44.4392 126.424 42.1457 120.254C42.0153 119.901 41.4772 120.13 41.6076 120.484Z" fill="black"/>
<path d="M40.6865 117.827C40.8226 118.278 40.9587 118.728 41.0926 119.18C41.2027 119.54 41.7391 119.307 41.6307 118.951C41.4968 118.499 41.3607 118.048 41.2246 117.598C41.1164 117.237 40.5804 117.471 40.6865 117.827Z" fill="black"/>
<path d="M27.0046 85.4427C26.639 85.3542 26.569 85.936 26.9294 86.024C27.2271 86.0957 27.4273 86.3508 27.4772 86.635C27.066 86.6016 26.652 86.5671 26.2402 86.5314C25.8658 86.5001 25.7918 87.0785 26.167 87.1118C26.6895 87.1561 27.2122 87.2005 27.7367 87.2439C27.8975 87.2568 28.0358 87.1521 28.0635 86.9903C28.1831 86.2679 27.6978 85.6129 27.0046 85.4427Z" fill="black"/>
<path d="M39.4782 114.133C39.3415 114.242 39.3492 114.409 39.4322 114.544C39.5589 114.752 39.615 115.003 39.6013 115.246C39.5777 115.619 40.1591 115.695 40.1798 115.32C40.2063 114.904 40.1061 114.532 39.8897 114.179C39.8073 114.046 39.5906 114.044 39.4782 114.133Z" fill="black"/>
<path d="M26.5686 82.1707C26.6207 82.1458 26.6733 82.1208 26.7251 82.0957C26.6704 82.1042 26.612 82.127 26.5531 82.1584C25.6141 81.435 24.1519 80.655 23.6777 81.677C23.5185 82.0193 24.0618 82.2381 24.219 81.8966C24.4808 81.3349 26.3485 82.7339 26.5878 82.9496C27.1648 83.4741 26.3519 83.5359 25.9443 83.5519C25.4536 83.5701 24.9667 83.5258 24.4853 83.4466C24.1127 83.3842 24.0397 83.9643 24.4112 84.025C25.1647 84.1515 26.212 84.2878 26.9476 83.9971C27.5115 83.7743 27.6669 83.2558 27.2618 82.7951C27.1241 82.6377 26.8748 82.4078 26.5686 82.1707Z" fill="black"/>
<path d="M25.4333 77.2261C25.4705 77.1822 25.5076 77.1385 25.544 77.0926C25.6479 76.972 25.6066 76.7734 25.4841 76.6832C25.3506 76.5848 25.1785 76.6229 25.0755 76.7454C25.0382 76.7894 25.0011 76.833 24.9639 76.877C24.86 76.9976 24.9013 77.1961 25.0237 77.2863C25.1575 77.3844 25.3296 77.3464 25.4333 77.2261Z" fill="black"/>
<path d="M-1.23214 20.7967C-1.43498 19.3775 -0.909893 18.0855 -0.6285 16.717C-0.365463 15.4426 -0.466109 14.252 -0.945676 13.0424C-1.08488 12.6921 -1.62277 12.9213 -1.48378 13.2719C-0.424174 15.9435 -2.19135 18.2175 -1.81141 20.8761C-1.75969 21.2477 -1.17945 21.1709 -1.23214 20.7967Z" fill="black"/>
<path d="M31.2604 89.0791C31.2368 89.0894 31.2131 89.0991 31.1895 89.1094C30.8428 89.2571 31.0703 89.7961 31.4189 89.6475C31.4426 89.6372 31.4663 89.6275 31.4899 89.6172C31.8366 89.4695 31.6071 88.9314 31.2604 89.0791Z" fill="black"/>
<path d="M29.7083 85.5087C30.2756 85.9868 30.6898 86.5882 30.9209 87.286C30.5164 87.3338 30.1275 87.2681 29.7389 87.0906C29.3952 86.9346 29.1786 87.4767 29.5204 87.6341C30.0987 87.8989 30.7133 87.9624 31.3317 87.808C31.47 87.7745 31.6236 87.6455 31.5811 87.4804C31.3312 86.506 30.8273 85.6881 30.0577 85.0395C29.7684 84.7965 29.4213 85.265 29.7083 85.5087Z" fill="black"/>
<path d="M14.7545 48.8267C15.4037 49.7172 16.0515 50.6109 16.7008 51.502C16.9225 51.8068 17.3797 51.4416 17.158 51.1368C16.5088 50.2463 15.8618 49.3545 15.2126 48.464C14.9913 48.1585 14.533 48.5215 14.7545 48.8267Z" fill="black"/>
<path d="M44.2325 114.279C45.2412 116.962 46.0599 119.701 46.6894 122.497C46.7712 122.861 47.3521 122.787 47.2688 122.418C46.6286 119.573 45.7971 116.781 44.7707 114.05C44.6382 113.696 44.1003 113.926 44.2325 114.279Z" fill="black"/>
<path d="M43.178 110.318C42.7296 109.266 42.2817 108.215 41.8333 107.163C41.6857 106.816 41.1476 107.046 41.2952 107.392C41.7436 108.445 42.1914 109.495 42.6398 110.548C42.7877 110.894 43.3258 110.664 43.178 110.318Z" fill="black"/>
<path d="M13.1736 36.4278C9.84879 32.4936 8.04198 27.5135 8.10275 22.3628C8.10649 21.9901 7.52646 21.9117 7.52141 22.2877C7.45918 27.6018 9.28409 32.7318 12.7155 36.791C12.9567 37.0772 13.418 36.7153 13.1736 36.4278Z" fill="black"/>
<path d="M31.5227 80.4144C31.7433 79.7202 30.7593 79.4704 30.3122 79.3229C29.1655 78.9418 28.0221 78.5618 26.876 78.183C26.5204 78.0647 26.2988 78.6068 26.6575 78.7264C27.451 78.9885 28.2439 79.2507 29.0354 79.5137C29.4771 79.6611 29.9217 79.7974 30.357 79.9526C30.7798 80.1031 31.133 80.2753 30.4661 80.4352C29.6545 80.626 29.0364 80.3095 28.3407 79.942C27.9244 79.7228 27.5472 79.6138 27.1028 79.8008C26.7546 79.9442 26.9836 80.4824 27.3323 80.3389C27.8046 80.1401 28.2742 80.6037 28.6715 80.7955C29.0483 80.9757 29.4563 81.0739 29.8753 81.0837C30.3755 81.0941 31.336 80.9975 31.5227 80.4144Z" fill="black"/>
<path d="M50.8795 126.479C50.85 126.548 50.8239 126.617 50.7969 126.685C50.6562 127.035 51.1994 127.254 51.3404 126.903C51.3665 126.834 51.394 126.766 51.421 126.699C51.5612 126.349 51.0202 126.129 50.8795 126.479Z" fill="black"/>
<path d="M34.046 87.6072C33.7534 87.3682 33.404 87.8374 33.6966 88.0764C34.0471 88.3619 35.2791 89.4799 34.9549 89.9664C34.7972 90.1991 34.7044 90.101 34.5041 89.9653C34.3833 89.8844 34.2795 89.7787 34.1636 89.6908C33.9621 89.54 33.7693 89.4519 33.5246 89.391C33.161 89.3017 33.091 89.8835 33.4514 89.9715C33.9635 90.0992 34.2282 90.6424 34.7822 90.7065C35.13 90.7465 35.5146 90.6232 35.6542 90.2762C35.8225 89.8533 35.508 89.3721 35.2985 89.0239C34.9661 88.4767 34.5405 88.0094 34.046 87.6072Z" fill="black"/>
<path d="M31.8563 82.696C32.5759 83.7399 33.2379 84.8158 33.8484 85.9265C32.6962 85.5325 32.2447 83.5836 31.195 82.9828C30.8719 82.7976 30.5196 83.2657 30.8456 83.452C32.1837 84.2168 32.4165 86.3865 34.0933 86.5671C34.1953 86.5795 34.3042 86.5841 34.4165 86.5792C34.5972 86.5737 34.7291 86.3342 34.6466 86.176C33.9433 84.8479 33.167 83.5691 32.3166 82.3316C32.103 82.0211 31.6458 82.3863 31.8563 82.696Z" fill="black"/>
<path d="M27.2968 74.6823C28.2311 74.6247 29.767 75.7581 30.4068 74.4962C30.6436 74.0317 30.4326 73.5366 30.1832 73.124C29.7258 72.3728 29.1376 71.7028 28.509 71.0933C28.2416 70.836 27.7797 71.1956 28.0487 71.4571C28.4158 71.8118 28.7613 72.1809 29.0789 72.5795C29.2375 72.779 29.3931 72.9822 29.531 73.193C29.6429 73.3487 29.7431 73.5121 29.8293 73.6838C29.9946 73.9108 29.9532 74.094 29.7012 74.2367C29.4237 74.5582 29.2515 74.5479 28.8592 74.4507C28.6463 74.399 28.4441 74.312 28.2374 74.245C27.8929 74.135 27.5817 74.0793 27.2198 74.1015C26.8445 74.1274 26.9233 74.7067 27.2968 74.6823Z" fill="black"/>
<path d="M16.205 41.6492C16.056 41.3057 15.5172 41.5329 15.6668 41.8787C17.4896 46.1018 19.3795 50.3577 22.4981 53.8024C22.7507 54.0789 23.2099 53.7178 22.9561 53.4392C19.8679 50.0299 18.0083 45.8273 16.205 41.6492Z" fill="black"/>
<path d="M31.9183 77.2017C32.0399 76.4785 31.5548 75.8231 30.8594 75.6541C30.4938 75.5656 30.4257 76.1466 30.7862 76.2346C31.0839 76.3062 31.2812 76.5602 31.3339 76.8456C30.9208 76.813 30.5088 76.7776 30.097 76.7419C29.7217 76.7086 29.6465 77.29 30.0229 77.3204C30.5454 77.3646 31.0688 77.4114 31.5912 77.4556C31.7543 77.4673 31.8928 77.3624 31.9183 77.2017Z" fill="black"/>
<path d="M51.2982 122.461C51.4216 122.894 51.4375 123.342 51.3674 123.787C51.3079 124.16 51.8877 124.231 51.9478 123.86C52.0348 123.306 51.9901 122.766 51.8361 122.231C51.7325 121.869 51.1961 122.102 51.2982 122.461Z" fill="black"/>
<path d="M34.0509 80.3798C34.0634 80.3439 34.0771 80.3102 34.0909 80.2763C34.2316 79.9264 33.6907 79.7069 33.5497 80.0566C33.5347 80.0934 33.5213 80.1273 33.5077 80.161C33.367 80.5109 33.9102 80.7297 34.0509 80.3798Z" fill="black"/>
<path d="M8.04548 20.0323C8.27102 19.4632 8.35743 18.8665 8.31089 18.2561C8.28258 17.879 7.7042 17.9604 7.73154 18.335C7.76976 18.8425 7.68931 19.34 7.50201 19.8138C7.36418 20.1647 7.90545 20.3844 8.04548 20.0323Z" fill="black"/>
<path d="M37.8264 88.5699C37.4798 88.7176 37.7073 89.2566 38.0559 89.108C38.4 88.9613 38.1731 88.4222 37.8264 88.5699Z" fill="black"/>
<path d="M24.6835 55.7675C24.5629 55.6636 24.3644 55.7049 24.2742 55.8274C24.1758 55.9609 24.2138 56.133 24.3341 56.2367C24.4168 56.3058 24.4974 56.3757 24.5803 56.4444C24.6997 56.5461 24.8985 56.5045 24.9896 56.3845C25.0879 56.2513 25.0492 56.0769 24.9298 55.9752C24.8472 55.9067 24.7665 55.8368 24.6835 55.7675Z" fill="black"/>
<path d="M12.8072 28.0488C13.4977 30.1579 14.4409 32.139 15.6345 34.0082C15.8364 34.3264 16.2927 33.9593 16.0926 33.645C14.927 31.817 14.0198 29.8794 13.3453 27.8193C13.2287 27.4621 12.6915 27.6936 12.8072 28.0488Z" fill="black"/>
<path d="M37.9407 86.2958C37.4082 85.3274 36.7126 84.4944 35.8482 83.8024C35.5532 83.5695 35.2061 84.038 35.4988 84.2716C36.1585 84.7992 36.7123 85.4126 37.1582 86.1179C36.7248 86.0916 36.3095 85.9888 35.8961 85.8115C35.5486 85.6648 35.3298 86.208 35.6776 86.355C36.3325 86.6327 37.0021 86.7417 37.7123 86.7011C37.8904 86.6914 38.0295 86.4566 37.9407 86.2958Z" fill="black"/>
<path d="M16.5874 36.6262C16.8935 37.1772 17.2519 37.6784 17.6832 38.1356C17.9391 38.4079 18.4003 38.0461 18.1412 37.7723C17.7474 37.3552 17.4028 36.8992 17.1253 36.3971C16.944 36.0723 16.404 36.2973 16.5874 36.6262Z" fill="black"/>
<path d="M34.5583 82.6737C34.223 82.5013 34.0074 83.0459 34.3395 83.217C35.1982 83.6625 36.1905 83.5801 36.9952 83.0569C37.0705 83.0069 37.1247 82.8773 37.1027 82.7899C36.9037 81.9771 36.5175 81.2613 35.9203 80.6715C35.6573 80.4124 35.1949 80.7721 35.4631 81.0367C35.9399 81.505 36.287 82.0565 36.4735 82.6915C35.872 83.0118 35.171 82.9901 34.5583 82.6737Z" fill="black"/>
<path d="M35.4498 78.1889C34.9145 77.2194 34.2189 76.3864 33.3552 75.6968C33.0612 75.461 32.7118 75.9302 33.0057 76.166C33.6646 76.6915 34.2217 77.306 34.6691 78.0105C34.2357 77.9842 33.8173 77.88 33.4016 77.704C33.0563 77.5561 32.8376 78.0993 33.1831 78.2475C33.838 78.5252 34.5077 78.6342 35.2198 78.5926C35.3966 78.5829 35.5376 78.3473 35.4498 78.1889Z" fill="black"/>
<path d="M29.8133 70.2807C30.3254 70.4083 30.59 70.9515 31.144 71.0157C31.4918 71.0556 31.8764 70.9324 32.014 70.5862C32.1844 70.1625 31.8698 69.6812 31.6584 69.3339C31.3269 68.7833 30.9026 68.3183 30.4081 67.916C30.1155 67.677 29.7661 68.1462 30.0587 68.3852C30.4092 68.6708 31.6411 69.7888 31.3147 70.2764C31.1591 70.5082 31.0643 70.4111 30.8662 70.2741C30.7454 70.1933 30.6416 70.0875 30.5257 69.9996C30.3219 69.85 30.1314 69.7607 29.8867 69.6999C29.5206 69.612 29.4528 70.1926 29.8133 70.2807Z" fill="black"/>
<path d="M26.147 57.2495C25.9177 56.9503 25.4596 57.3135 25.6889 57.6127C26.6048 58.807 27.702 59.812 28.9739 60.6177C29.2909 60.8182 29.641 60.3513 29.3234 60.1486C28.0896 59.3669 27.0346 58.4075 26.147 57.2495Z" fill="black"/>
<path d="M-1.1353 5.81868C1.61634 5.13197 4.28305 6.13187 6.81791 7.14433C7.16777 7.28503 7.38657 6.74176 7.03641 6.60085C4.41545 5.55338 1.63078 4.5275 -1.21245 5.23821C-1.57508 5.32955 -1.49823 5.90981 -1.1353 5.81868Z" fill="black"/>
<path d="M38.6075 84.0408C38.9541 83.8932 38.7247 83.355 38.378 83.5027C38.0314 83.6504 38.2608 84.1885 38.6075 84.0408Z" fill="black"/>
<path d="M39.8354 85.0484C39.6061 84.7492 39.146 85.1132 39.3773 85.4116C39.6016 85.705 40.3732 86.704 39.9036 87.0285C39.4331 87.3511 38.8916 86.8265 38.5812 86.5213C38.316 86.2628 37.8539 86.6228 38.1241 86.8865C38.6751 87.4274 39.5026 88.0565 40.269 87.4854C41.1123 86.8568 40.2986 85.6519 39.8354 85.0484Z" fill="black"/>
<path d="M41.8084 94.9834C48.1189 102.116 51.5956 111.474 51.4391 121.001C51.4332 121.375 52.0125 121.451 52.0196 121.075C52.178 111.391 48.6856 101.877 42.2655 94.6182C42.0185 94.337 41.5573 94.6989 41.8084 94.9834Z" fill="black"/>
<path d="M38.4989 78.7078C38.6131 78.1402 38.1935 77.6147 37.8568 77.2012C37.5106 76.7765 37.1117 76.4555 36.5613 76.357C36.1901 76.2915 36.118 76.8742 36.4881 76.9375C37.047 77.0375 37.815 77.8193 37.8925 78.389C38.0329 79.4226 36.5996 79.0492 36.0551 78.8464C35.7037 78.7137 35.4849 79.257 35.8386 79.389C36.704 79.7121 38.2402 79.9806 38.4989 78.7078Z" fill="black"/>
<path d="M33.6442 74.8002C34.5777 74.7407 36.1145 75.8761 36.7542 74.6142C36.9903 74.1473 36.7793 73.6523 36.5285 73.2431C36.073 72.4911 35.4828 71.8219 34.8534 71.2104C34.5882 70.952 34.126 71.3119 34.3962 71.5756C34.7605 71.9292 35.1089 72.2994 35.4264 72.698C35.5844 72.8952 35.7374 73.0994 35.8785 73.3115C35.9905 73.4672 36.0907 73.6306 36.1768 73.8023C36.3424 74.0295 36.2985 74.2132 36.0488 74.3552C35.769 74.6779 35.599 74.6664 35.2067 74.5692C34.9938 74.5175 34.7917 74.4305 34.583 74.3644C34.2385 74.2544 33.9272 74.1987 33.5654 74.2209C33.1887 74.244 33.2708 74.8247 33.6442 74.8002Z" fill="black"/>
<path d="M31.106 65.073C31.6307 65.1166 32.1532 65.1609 32.6756 65.2051C32.8372 65.2203 32.9747 65.1134 33.0024 64.9515C33.1227 64.2314 32.6364 63.5739 31.9436 63.4039C31.5779 63.3154 31.5079 63.8972 31.8704 63.9844C32.1658 64.0567 32.3654 64.31 32.4161 64.5963C32.0041 64.5608 31.5935 64.5273 31.1815 64.4919C30.8048 64.4613 30.7307 65.0398 31.106 65.073Z" fill="black"/>
<path d="M44.8674 93.4485C44.5297 93.2821 44.3132 93.8247 44.6489 93.992C44.9898 94.1597 45.2766 94.4264 45.464 94.7586C45.6456 95.083 46.1855 94.858 46.0021 94.5291C45.7341 94.0505 45.3597 93.6912 44.8674 93.4485Z" fill="black"/>
<path d="M42.1627 86.6607C41.7968 86.5726 41.727 87.1541 42.0895 87.2412C42.3849 87.3135 42.5852 87.5692 42.6352 87.8531C42.2241 87.8197 41.8126 87.7842 41.3983 87.7494C41.0239 87.7181 40.9498 88.2966 41.3251 88.3299C41.8475 88.3741 42.3723 88.4177 42.8947 88.462C43.0563 88.4771 43.1939 88.3702 43.2215 88.2083C43.3421 87.4885 42.8558 86.8309 42.1627 86.6607Z" fill="black"/>
<path d="M37.0892 71.1576C37.1256 71.1116 37.1629 71.0677 37.2001 71.0237C37.3041 70.9031 37.2627 70.7046 37.1403 70.6144C37.007 70.5162 36.8346 70.554 36.7309 70.6743C36.6937 70.7182 36.6573 70.7642 36.6202 70.8078C36.5163 70.9284 36.5576 71.127 36.6801 71.2172C36.8134 71.3159 36.9855 71.2778 37.0892 71.1576Z" fill="black"/>
<path d="M39.6414 79.6581C39.3752 79.3977 38.914 79.7596 39.1833 80.0213C39.7343 80.5622 40.5598 81.1922 41.326 80.6214C42.1715 79.9916 41.3578 78.7868 40.8946 78.1832C40.664 77.8871 40.2059 78.2504 40.4352 78.5496C40.6618 78.8423 41.4331 79.8411 40.9628 80.1633C40.4925 80.4856 39.9519 79.963 39.6414 79.6581Z" fill="black"/>
<path d="M35.8954 67.8539C35.1584 68.0461 34.4105 67.9499 33.7236 67.5919C33.3871 67.4173 33.1715 67.9619 33.504 68.1332C34.4093 68.6043 35.4325 68.6543 36.3873 68.3109C36.5461 68.2535 36.5853 68.0715 36.5417 67.9274C36.2454 66.9573 35.5901 66.2019 34.6963 65.728C34.3643 65.5516 34.1487 66.0961 34.4798 66.2706C35.144 66.6227 35.621 67.1749 35.8954 67.8539Z" fill="black"/>
<path d="M41.4607 84.1421C41.9509 84.284 42.6517 84.5374 43.1245 84.2265C44.2038 83.5123 42.5651 82.0131 42.1155 81.4952C41.8698 81.2109 41.4094 81.5748 41.6574 81.8584C41.9433 82.1893 42.2426 82.5095 42.5176 82.85C42.6062 82.9624 42.7601 83.1207 42.7927 83.2694C42.8814 83.6565 42.5906 83.7979 42.26 83.7382C41.3954 83.5778 40.5729 83.2287 39.8297 82.7623C39.5116 82.5647 39.1613 83.0319 39.4814 83.2337C40.0993 83.6211 40.7575 83.9357 41.4607 84.1421Z" fill="black"/>
<path d="M52.4875 103.469C51.3469 100.883 49.9091 98.4693 48.1767 96.2369C47.9464 95.941 47.4881 96.304 47.7196 96.6021C49.4206 98.7916 50.8314 101.159 51.9493 103.698C52.1012 104.043 52.6393 103.814 52.4875 103.469Z" fill="black"/>
<path d="M53.5633 105.617C53.4154 105.599 53.2459 105.714 53.2365 105.871C53.2304 105.988 53.2234 106.103 53.2151 106.221C53.2056 106.378 53.3045 106.526 53.4688 106.548C53.6187 106.565 53.7863 106.451 53.7956 106.294C53.8017 106.177 53.8107 106.061 53.817 105.944C53.8263 105.788 53.7276 105.639 53.5633 105.617Z" fill="black"/>
<path d="M38.7142 71.7773C38.3398 71.7461 38.2638 72.3254 38.6391 72.3587C39.1638 72.4023 39.6862 72.4465 40.2087 72.4908C40.3724 72.5047 40.5078 72.399 40.5355 72.2371C40.6558 71.5171 40.1695 70.8595 39.4766 70.6895C39.111 70.6011 39.041 71.1829 39.4035 71.27C39.6989 71.3424 39.8991 71.598 39.9492 71.8819C39.5369 71.8463 39.126 71.8131 38.7142 71.7773Z" fill="black"/>
<path d="M41.4144 76.6336C41.7622 76.6736 42.1468 76.5503 42.2844 76.2042C42.4557 75.7829 42.1402 75.2992 41.9288 74.9519C41.5985 74.4035 41.1738 73.9382 40.6785 73.534C40.3868 73.297 40.0376 73.7664 40.3291 74.0032C40.6796 74.2888 41.9115 75.4067 41.5853 75.8941C41.4296 76.1259 41.336 76.0309 41.1378 75.8943C41.0169 75.8134 40.9123 75.7057 40.797 75.6201C40.5926 75.4682 40.4019 75.3792 40.158 75.3203C39.7935 75.229 39.7235 75.8108 40.0848 75.9008C40.5963 76.0262 40.8607 76.5697 41.4144 76.6336Z" fill="black"/>
<path d="M47.9707 90.3583C47.6217 90.2196 47.4029 90.7628 47.7522 90.9018C48.2977 91.1194 48.7424 91.4945 49.0266 92.0118C49.2068 92.3394 49.7459 92.1124 49.5647 91.7823C49.207 91.1285 48.6667 90.6366 47.9707 90.3583Z" fill="black"/>
<path d="M36.6539 62.1261C36.8249 61.6081 36.3527 60.8228 36.1046 60.4019C35.7216 59.7536 35.2025 59.2224 34.5849 58.7937C34.2772 58.5788 33.9279 59.0485 34.2367 59.2651C34.9728 59.7753 35.7312 60.5636 35.9615 61.4622C35.9854 61.5359 36.0112 61.6087 36.0341 61.6805C36.0592 61.9241 35.9829 61.9898 35.8063 61.8743C35.6293 61.8888 35.371 61.7241 35.2021 61.6559C34.7142 61.4542 34.2502 61.2123 33.7981 60.9396C33.4774 60.7483 33.1239 61.2142 33.4487 61.4088C33.9725 61.7251 36.2871 63.2415 36.6539 62.1261Z" fill="black"/>
<path d="M45.3887 82.7834C45.5284 82.7467 45.6826 82.62 45.6394 82.4526C45.3895 81.4782 44.8844 80.6634 44.1161 80.0117C43.8279 79.7709 43.4785 80.2401 43.7666 80.4809C44.3349 80.961 44.7491 81.5629 44.9801 82.2602C44.5737 82.3089 44.1854 82.2455 43.7958 82.0655C43.4543 81.9083 43.2378 82.4509 43.5793 82.6081C44.1554 82.8741 44.7723 82.9369 45.3887 82.7834Z" fill="black"/>
<path d="M36.5813 63.7647C36.9318 64.0503 38.1638 65.1682 37.8396 65.6547C37.6819 65.8874 37.5891 65.7894 37.3888 65.6536C37.268 65.5727 37.1642 65.467 37.0483 65.3791C36.8468 65.2283 36.654 65.1402 36.4102 65.0813C36.0457 64.99 35.9757 65.5718 36.3363 65.6595C36.8485 65.7872 37.1131 66.3304 37.6671 66.3945C38.0149 66.4345 38.3995 66.3112 38.5369 65.9654C38.7072 65.5416 38.3927 65.0604 38.1832 64.7122C37.8507 64.1645 37.4254 63.6974 36.931 63.2952C36.6378 63.0563 36.2896 63.5277 36.5813 63.7647Z" fill="black"/>
<path d="M44.8655 79.8019C44.867 79.7045 44.867 79.608 44.8685 79.5106C44.8697 78.8335 44.8334 78.1574 44.7467 77.4823C44.6888 77.0416 44.7078 76.347 44.1829 76.1889C44.0521 76.1507 43.9267 76.1788 43.8404 76.2866C43.8223 76.3099 43.8031 76.3306 43.7849 76.3533C43.607 76.574 43.8294 76.8279 44.0507 76.8099C44.211 77.0848 44.2147 77.9584 44.2324 78.149C44.2635 78.5021 44.2817 78.8553 44.2844 79.208C43.7723 78.8184 43.3416 78.3507 42.98 77.8003C42.7725 77.4868 42.3154 77.852 42.5228 78.1655C43.0149 78.9146 43.6394 79.5259 44.4009 80.0001C44.565 80.1055 44.8603 80.0406 44.8655 79.8019Z" fill="black"/>
<path d="M35.8663 57.1693C35.8561 57.1457 35.8463 57.1219 35.836 57.0983C35.6884 56.7517 35.1494 56.9792 35.2979 57.3278C35.3082 57.3514 35.318 57.3751 35.3282 57.3988C35.4759 57.7454 36.014 57.5159 35.8663 57.1693Z" fill="black"/>
<path d="M47.5994 85.7632C46.4414 84.9496 45.24 84.2075 43.9995 83.5282C43.6708 83.3477 43.4552 83.8923 43.783 84.0708C44.8848 84.6745 45.9517 85.3339 46.9849 86.0456C45.7616 86.183 44.5456 84.6666 43.2938 84.6176C42.9184 84.602 42.8432 85.1834 43.2186 85.199C44.8092 85.261 46.0618 87.3471 47.7498 86.4138C47.9354 86.3119 48.0057 86.0479 47.8099 85.9103C47.7403 85.8609 47.6707 85.8115 47.5994 85.7632Z" fill="black"/>
<path d="M39.2484 67.6C40.202 68.4348 41.1095 69.317 41.9746 70.2432C40.7617 70.1422 39.8389 68.3531 38.6716 68.0369C38.3127 67.9409 38.0909 68.4825 38.4531 68.5804C39.9504 68.9851 40.6871 71.0416 42.3684 70.8029C42.471 70.7871 42.5761 70.7654 42.6871 70.7332C42.8632 70.681 42.9163 70.4117 42.8004 70.2829C41.7938 69.1679 40.7265 68.1197 39.5979 67.1308C39.3138 66.8829 38.9669 67.3511 39.2484 67.6Z" fill="black"/>
<path d="M48.1044 82.5799C47.8127 82.343 47.4635 82.8124 47.7559 83.0516C48.1058 83.3349 49.3384 84.4552 49.011 84.9403C48.8562 85.1741 48.7617 85.0772 48.5612 84.9412C48.4423 84.8595 48.3391 84.7536 48.2226 84.6659C48.0189 84.5163 47.8275 84.425 47.5836 84.3661C47.2171 84.2757 47.1491 84.8566 47.5105 84.9466C48.0217 85.0722 48.2872 85.6174 48.8412 85.6816C49.1881 85.7195 49.5736 85.5983 49.7112 85.2522C49.8816 84.8284 49.565 84.348 49.3547 83.9978C49.0241 83.4493 48.5997 82.9842 48.1044 82.5799Z" fill="black"/>
<path d="M37.1709 60.2604C37.6925 60.5774 40.0092 62.0926 40.3766 60.9795C40.5477 60.4615 40.0745 59.6737 39.8267 59.253C39.4435 58.605 38.9255 58.0755 38.3079 57.6468C38.0002 57.4319 37.6499 57.8991 37.9585 58.116C38.6958 58.6284 39.453 59.4145 39.6833 60.3131C39.7072 60.3868 39.733 60.4596 39.7571 60.5335C39.7813 60.7752 39.7047 60.8407 39.5293 60.7273C39.3513 60.7394 39.0928 60.575 38.9242 60.507C38.4364 60.3053 37.9723 60.0633 37.5202 59.7907C37.1995 59.5994 36.847 60.0678 37.1709 60.2604Z" fill="black"/>
<path d="M63.2124 114.593C63.7381 116.788 64.1525 119.002 64.4613 121.235C64.5118 121.611 65.0911 121.531 65.0416 121.158C64.7321 118.922 64.3176 116.708 63.792 114.514C63.7055 114.151 63.1246 114.226 63.2124 114.593Z" fill="black"/>
<path d="M48.7421 79.6122C48.0366 78.2852 47.2625 77.0052 46.4121 75.7677C46.1982 75.457 45.741 75.8222 45.9517 76.1316C46.6721 77.1775 47.3344 78.2535 47.9446 79.3641C46.7915 78.9681 46.3398 77.019 45.2904 76.4184C44.9681 76.2352 44.615 76.7013 44.941 76.8876C46.2793 77.6526 46.5119 79.8221 48.1896 80.0047C48.2915 80.0171 48.4004 80.0217 48.5127 80.0168C48.6926 80.0098 48.8248 79.7705 48.7421 79.6122Z" fill="black"/>
<path d="M60.6558 106.201C60.5924 106.053 60.53 105.906 60.4675 105.76C60.3198 105.413 59.7808 105.641 59.9294 105.989C59.9919 106.136 60.054 106.282 60.1177 106.431C60.2655 106.777 60.8036 106.547 60.6558 106.201Z" fill="black"/>
<path d="M22.7549 17.924C22.9966 18.2101 23.4554 17.8492 23.2121 17.5588C22.9862 17.2916 22.7603 17.0239 22.5345 16.7567C22.293 16.4703 21.834 16.8315 22.0773 17.1219C22.3034 17.3893 22.529 17.6568 22.7549 17.924Z" fill="black"/>
<path d="M60.9549 107.989C61.5785 109.351 62.1079 110.748 62.5434 112.182C62.6536 112.542 63.1908 112.311 63.0815 111.953C62.6457 110.518 62.1166 109.121 61.493 107.759C61.3347 107.418 60.7966 107.647 60.9549 107.989Z" fill="black"/>
<path d="M42.8996 67.4249C42.4089 67.4431 41.9243 67.3981 41.4428 67.3184C41.0702 67.256 40.9972 67.8362 41.3676 67.8997C42.1222 68.0233 43.1694 68.159 43.9053 67.8686C44.467 67.647 44.6223 67.1279 44.2195 66.6666C43.6586 66.0309 41.2675 64.1859 40.633 65.55C40.477 65.8937 41.0191 66.1102 41.1765 65.7685C41.4383 65.2067 43.306 66.6058 43.5433 66.8223C44.1213 67.3493 43.3094 67.4077 42.8996 67.4249Z" fill="black"/>
<path d="M42.5901 63.4646C42.3126 63.7861 42.1404 63.7758 41.7481 63.6786C41.5352 63.6269 41.333 63.5399 41.1263 63.473C40.7818 63.3629 40.4706 63.3072 40.1087 63.3294C39.7321 63.3526 39.8118 63.9339 40.1856 63.9097C41.1191 63.8501 42.6581 64.9849 43.2956 63.7236C43.5317 63.2568 43.3214 62.764 43.072 62.3514C42.6146 61.6002 42.0264 60.9301 41.397 60.3187C41.1295 60.0614 40.6676 60.421 40.9398 60.6839C41.304 61.0374 41.6505 61.4085 41.968 61.8071C42.126 62.0043 42.2813 62.2078 42.4226 62.4197C42.5326 62.5763 42.6328 62.7396 42.7187 62.9117C42.8837 63.1384 42.8423 63.3216 42.5901 63.4646Z" fill="black"/>
<path d="M40.5801 57.3453C40.7198 57.3086 40.8742 57.1816 40.8309 57.0145C40.5809 56.0401 40.0783 55.2243 39.3075 54.5736C39.0193 54.3328 38.6719 54.8011 38.9581 55.0428C39.5263 55.5229 39.9405 56.1248 40.1716 56.8221C39.7671 56.8699 39.379 56.8062 38.9872 56.6274C38.6457 56.4702 38.4292 57.0128 38.7707 57.1699C39.347 57.4357 39.9636 57.4983 40.5801 57.3453Z" fill="black"/>
<path d="M23.81 19.3669C24.7553 20.3553 25.4992 21.4624 26.0485 22.716C26.2004 23.0606 26.7388 22.8313 26.5866 22.4865C26.017 21.1853 25.2487 20.0274 24.2671 19.0012C24.0099 18.7325 23.5487 19.0944 23.81 19.3669Z" fill="black"/>
<path d="M49.4554 79.9136C49.9586 80.1571 50.3754 80.5084 50.6903 80.949C50.1505 80.8283 49.6068 80.7217 49.0608 80.6285C48.6882 80.5662 48.6176 81.1457 48.9876 81.209C49.745 81.3391 50.4952 81.4948 51.2417 81.6701C51.4598 81.7222 51.6356 81.454 51.5473 81.2653C51.1543 80.4205 50.511 79.7764 49.6726 79.3733C49.3329 79.2079 49.1172 79.7524 49.4554 79.9136Z" fill="black"/>
<path d="M43.7934 72.9773C43.4172 72.9953 43.4969 73.5767 43.8702 73.5576C44.9173 73.5082 46.0872 73.5971 47.1108 73.3795C47.5707 73.2827 47.9878 73.0387 47.9979 72.5311C48.001 72.3952 47.9451 72.2816 47.8163 72.2243C46.1866 71.4919 44.4151 71.3391 42.6861 71.7935C42.3273 71.8879 42.4016 72.4691 42.765 72.3728C44.3042 71.9687 45.8451 72.0569 47.3084 72.6441C46.7476 73.0763 44.22 72.9583 43.7934 72.9773Z" fill="black"/>
<path d="M69.496 122.993C69.4602 123.304 69.4269 123.613 69.3934 123.922C69.3516 124.296 69.9323 124.369 69.9739 123.996C70.0074 123.686 70.041 123.377 70.0745 123.068C70.1158 122.694 69.5376 122.62 69.496 122.993Z" fill="black"/>
<path d="M44.8198 66.9651C45.187 67.3198 45.5325 67.6889 45.85 68.0875C46.0087 68.287 46.162 68.4914 46.3021 68.701C46.4141 68.8567 46.5143 69.0201 46.6004 69.1918C46.7657 69.4188 46.7231 69.6052 46.4724 69.7447C46.1927 70.0674 46.0226 70.0559 45.6312 69.9607C45.4175 69.907 45.2162 69.822 45.0066 69.7539C44.6641 69.643 44.3509 69.5882 43.989 69.6104C43.6132 69.6355 43.6944 70.2142 44.0687 70.1917C45.0022 70.1322 46.5381 71.2656 47.1778 70.0037C47.4146 69.5391 47.2036 69.0441 46.955 68.6337C46.4976 67.8825 45.9084 67.2105 45.2776 66.6017C45.0127 66.344 44.5505 66.7034 44.8198 66.9651Z" fill="black"/>
<path d="M51.1608 77.7625C50.9626 76.9516 50.5755 76.2339 49.9792 75.6466C49.7131 75.3862 49.2519 75.7481 49.522 76.0118C49.9957 76.4787 50.3435 77.0326 50.5324 77.6666C49.9289 77.9872 49.2279 77.9655 48.615 77.6495C48.2817 77.4762 48.0654 78.0185 48.3985 78.1921C49.2565 78.6353 50.2495 78.5552 51.0542 78.032C51.1295 77.982 51.1816 77.8527 51.1608 77.7625Z" fill="black"/>
<path d="M52.3427 80.8576C51.996 81.0053 52.2235 81.5443 52.5721 81.3958C52.9163 81.2491 52.689 80.7098 52.3427 80.8576Z" fill="black"/>
<path d="M68.8989 120.094C68.9202 120.144 68.9411 120.193 68.9614 120.241C69.1091 120.587 69.6478 120.36 69.4995 120.011C69.4795 119.964 69.4583 119.914 69.4371 119.865C69.2892 119.519 68.7511 119.748 68.8989 120.094Z" fill="black"/>
<path d="M43.3451 56.1054C43.4462 56.1158 43.5528 56.121 43.6654 56.1164C43.8483 56.1096 43.9802 55.8702 43.8969 55.71C43.1922 54.3851 42.4173 53.1031 41.5647 51.8668C41.352 51.5583 40.8936 51.9213 41.1075 52.232C41.827 53.2759 42.489 54.3517 43.0995 55.4625C41.9473 55.0685 41.4959 53.1196 40.4462 52.5188C40.123 52.3336 39.7696 52.7995 40.0967 52.988C41.434 53.7513 41.6655 55.9237 43.3451 56.1054Z" fill="black"/>
<path d="M42.7022 59.5082C43.2134 59.6338 43.4789 60.179 44.0317 60.241C44.3795 60.2809 44.7653 60.1599 44.9027 59.8141C45.0731 59.3903 44.7585 58.909 44.5462 58.5597C44.2159 58.0114 43.7913 57.5461 43.2959 57.1418C43.0042 56.9048 42.6551 57.3743 42.9477 57.6132C43.2973 57.8968 44.5301 59.0168 44.2028 59.5019C44.048 59.7357 43.9535 59.6388 43.7552 59.5022C43.6344 59.4213 43.5299 59.3132 43.4147 59.2277C43.2109 59.0781 43.0195 58.9868 42.7757 58.9279C42.4106 58.8362 42.3407 59.4176 42.7022 59.5082Z" fill="black"/>
<path d="M53.1514 89.7677C62.3998 96.2692 68.2836 106.948 68.8483 118.239C68.8682 118.614 69.4467 118.534 69.4273 118.16C68.8549 106.725 62.8655 95.8822 53.5005 89.2983C53.1922 89.0816 52.8428 89.5508 53.1514 89.7677Z" fill="black"/>
<path d="M52.3985 77.6116C52.0519 77.7593 52.2814 78.2974 52.628 78.1497C52.9743 78.0018 52.7452 77.4639 52.3985 77.6116Z" fill="black"/>
<path d="M56.2942 86.1855C56.5323 86.4755 56.9907 86.1125 56.7514 85.8203C56.5808 85.6107 56.408 85.4021 56.2362 85.1903C55.9983 84.9 55.54 85.263 55.779 85.5554C55.9496 85.7651 56.1224 85.9736 56.2942 86.1855Z" fill="black"/>
<path d="M45.7271 65.6986C46.3832 65.9785 47.0525 66.0873 47.7618 66.0446C47.8986 66.0374 48.0109 65.9003 48.0188 65.7647C48.0233 65.7219 48.0157 65.6796 47.9939 65.6406C47.7238 65.1505 47.414 64.6976 47.06 64.2788C46.7149 63.869 46.3278 63.4921 45.8992 63.1484C45.6053 62.9126 45.2559 63.3818 45.5498 63.6176C46.2086 64.1432 46.7665 64.7599 47.2144 65.4643C46.7789 65.4389 46.3625 65.3339 45.9468 65.1578C45.5981 65.0084 45.3818 65.5507 45.7271 65.6986Z" fill="black"/>
<path d="M50.1857 70.8913C49.9567 70.5923 49.4962 70.9565 49.7277 71.2545C49.9542 71.5473 50.7236 72.5469 50.2539 72.8715C49.7834 73.194 49.2419 72.6694 48.9323 72.3665C48.6661 72.1061 48.204 72.466 48.4742 72.7297C49.0252 73.2706 49.8527 73.8997 50.6191 73.3287C51.4624 72.7 50.6512 71.4942 50.1857 70.8913Z" fill="black"/>
<path d="M45.9845 61.5221C45.6401 61.6691 45.8673 62.2079 46.2139 62.0602C46.5601 61.9126 46.3331 61.3735 45.9845 61.5221Z" fill="black"/>
<path d="M53.3096 74.2527C52.9794 73.7044 52.5538 73.2371 52.0594 72.8348C51.7667 72.5959 51.4173 73.0651 51.7099 73.304C52.0604 73.5896 53.2924 74.7076 52.9682 75.1941C52.8102 75.4265 52.7177 75.3287 52.5175 75.1929C52.3966 75.1121 52.2928 75.0063 52.1769 74.9185C51.9754 74.7677 51.7826 74.6796 51.5379 74.6187C51.1743 74.5294 51.1043 75.1112 51.4647 75.1992C51.9768 75.3268 52.2415 75.87 52.7955 75.9342C53.1433 75.9741 53.5279 75.8509 53.6655 75.5048C53.8356 75.0813 53.5211 74.6 53.3096 74.2527Z" fill="black"/>
<path d="M50.1462 68.5432C50.2866 68.5088 50.4401 68.3798 50.3976 68.2147C50.3833 68.1572 50.3677 68.103 50.3523 68.0484C50.8951 68.5343 51.6279 68.9825 52.3099 68.4705C53.1543 67.8436 52.3429 66.6381 51.8774 66.0352C51.855 66.0067 51.8293 65.9818 51.8019 65.9657C51.564 65.8076 51.2134 66.1301 51.419 66.3982C51.6456 66.6909 52.4169 67.6897 51.9444 68.0131C51.4771 68.337 50.9356 67.8124 50.6228 67.5082C50.4791 67.3684 50.2757 67.4095 50.1659 67.5223C49.883 66.8469 49.4532 66.2619 48.8737 65.7738C48.7829 65.6982 48.6891 65.6924 48.6072 65.7272C48.4309 65.8024 48.3267 66.0782 48.5243 66.2431C49.0916 66.7212 49.5068 67.3251 49.7378 68.0224C49.3334 68.0702 48.9444 68.0045 48.5558 67.827C48.2111 67.6685 47.9955 68.2131 48.3373 68.3704C48.9143 68.6358 49.5301 68.6964 50.1462 68.5432Z" fill="black"/>
<path d="M47.3975 58.4351C47.2895 58.6056 47.2382 58.5386 47.0582 58.5159C46.8451 58.4873 46.6461 58.4677 46.4319 58.508C46.0627 58.5788 46.1396 59.159 46.5088 59.0882C47.0412 58.9887 48.1445 59.4413 48.1014 58.4629C48.0822 58.0184 47.747 57.5536 47.5034 57.1969C47.153 56.685 46.7097 56.2535 46.2099 55.8866C45.9069 55.665 45.5566 56.1322 45.8627 56.3552C46.4708 56.8032 46.9789 57.3572 47.3247 58.0312C47.4017 58.1815 47.4974 58.2807 47.3975 58.4351Z" fill="black"/>
<path d="M47.5919 64.029C48.4314 64.4647 49.4008 64.3949 50.1961 63.9033C50.2143 63.8929 50.2299 63.8811 50.2485 63.8709C50.3237 63.8209 50.3779 63.6913 50.3548 63.6017C50.1567 62.7909 49.7696 62.0732 49.1733 61.4859C48.9072 61.2254 48.4459 61.5873 48.7152 61.8491C49.1898 62.3185 49.538 62.8667 49.7279 63.5032C49.1256 63.826 48.4221 63.8053 47.8094 63.4889C47.5289 63.3441 47.3309 63.7029 47.4736 63.9244C47.4983 63.9645 47.539 64.0005 47.5919 64.029Z" fill="black"/>
<path d="M64.761 97.3153C64.8444 97.511 64.928 97.707 65.0124 97.9053C65.1591 98.2494 65.6982 98.0224 65.5505 97.6757C65.4659 97.4778 65.3828 97.2818 65.2991 97.0858C65.1512 96.7395 64.6131 96.969 64.761 97.3153Z" fill="black"/>
<path d="M46.2456 52.5932C46.3209 52.5432 46.3751 52.4136 46.3519 52.324C46.1538 51.5131 45.7667 50.7955 45.1704 50.2082C44.9063 49.9468 44.445 50.3087 44.7124 50.5714C45.1872 51.0405 45.5363 51.5911 45.7237 52.2286C45.1225 52.5486 44.4215 52.5269 43.8088 52.2105C43.4735 52.0381 43.257 52.5807 43.5903 52.754C44.4479 53.1965 45.4412 53.1166 46.2456 52.5932Z" fill="black"/>
<path d="M58.9101 87.4534C58.6374 87.1957 58.2892 87.6671 58.5606 87.9226C59.5453 88.8486 60.5031 89.8011 61.4272 90.7879C62.3307 91.7561 63.3538 92.7364 63.6402 94.0768C63.7184 94.4452 64.2986 94.3683 64.2205 93.9999C63.9359 92.664 63.0846 91.722 62.1807 90.7413C61.1315 89.6046 60.0383 88.5141 58.9101 87.4534Z" fill="black"/>
<path d="M39.3143 36.066C39.2104 36.0544 39.103 36.0951 39.0431 36.1815C39.0156 36.2187 38.9903 36.2546 38.964 36.294C38.8036 36.5202 39.02 36.7712 39.2283 36.7586C39.2164 36.8145 39.2369 36.8922 39.2893 36.992C39.3109 37.1862 39.3305 37.3813 39.3501 37.5764C39.3807 37.8685 39.4056 38.1603 39.4309 38.4523C39.4879 39.1353 39.5315 39.8161 39.5641 40.5014C39.5841 40.8767 40.1625 40.7959 40.1434 40.4226C40.0926 39.3964 40.0208 38.3741 39.9163 37.353C39.8656 36.8586 39.9397 36.1375 39.3143 36.066Z" fill="black"/>
<path d="M52.2097 64.8332C51.6962 64.4517 51.175 64.1477 50.5289 64.0694C50.4455 64.059 50.3783 64.0801 50.3286 64.119C50.1442 64.2536 50.1641 64.6161 50.4557 64.6498C51.1466 64.7318 51.7346 65.1858 52.3241 65.6084C53.0305 66.1136 53.736 66.5759 54.624 66.2966C54.7073 66.2714 54.7908 66.2408 54.876 66.2018C55.0874 66.1067 55.1089 65.8407 54.9358 65.6981C54.3433 65.2027 53.7371 64.7287 53.1168 64.2708C53.6182 64.5581 54.1501 64.7918 54.7136 64.9559C55.2016 65.099 55.9023 65.3524 56.3742 65.039C57.4555 64.3239 55.8148 62.8256 55.3677 62.3067C55.1207 62.0256 54.6616 62.3863 54.9083 62.6731C55.1955 63.0008 55.4955 63.3233 55.7673 63.6624C55.8588 63.776 56.0127 63.9342 56.0458 64.0828C56.1313 64.4687 55.8417 64.6123 55.5121 64.5491C54.6465 64.3917 53.8259 64.0417 53.0807 63.5761C52.8231 63.4137 52.542 63.6963 52.621 63.9118C52.2161 63.6239 51.8033 63.342 51.3871 63.0694C51.0735 62.8649 50.7212 63.333 51.0377 63.5387C52.1033 64.2367 53.1321 64.9859 54.1211 65.7851C53.4128 65.8056 52.7703 65.2478 52.2097 64.8332Z" fill="black"/>
<path d="M55.2144 71.7343C55.3854 71.2162 54.9132 70.431 54.6651 70.0101C54.2819 69.3621 53.7632 68.8302 53.1476 68.4007C52.8378 68.1869 52.4883 68.6561 52.7992 68.8724C53.5333 69.3835 54.2913 70.1718 54.5219 71.0707C54.5477 71.1435 54.5718 71.2174 54.5944 71.2889C54.6195 71.5325 54.5452 71.5974 54.37 71.4837C54.192 71.4958 53.9316 71.3323 53.7649 71.2634C53.2751 71.0626 52.8107 70.8204 52.3586 70.5477C52.0401 70.3553 51.687 70.8214 52.0092 71.0169C52.5331 71.3332 54.8479 72.8493 55.2144 71.7343Z" fill="black"/>
<path d="M57.4471 77.1409C57.6833 76.6741 57.4723 76.1791 57.2236 75.7687C56.7662 75.0175 56.1771 74.3455 55.5463 73.7367C55.281 73.4782 54.8189 73.8381 55.0882 74.0999C55.4556 74.4547 55.8008 74.8236 56.1196 75.2245C56.2775 75.4216 56.4306 75.6258 56.5717 75.838C56.6836 75.9937 56.7838 76.1571 56.8691 76.3268C57.0344 76.5537 56.9939 76.739 56.742 76.8821C56.4645 77.2037 56.2914 77.1913 55.9 77.0961C55.6864 77.0422 55.4847 76.9578 55.2753 76.8894C54.9328 76.7785 54.6219 76.723 54.2586 76.7478C53.882 76.771 53.963 77.3492 54.3377 77.3269C55.2706 77.2674 56.8074 78.4029 57.4471 77.1409Z" fill="black"/>
<path d="M59.2702 79.9145C59.322 79.5413 58.7418 79.4684 58.6897 79.8413C58.6309 80.2528 58.8886 80.69 59.2991 80.8C59.4517 80.8417 59.616 80.7972 59.6802 80.6378C59.7334 80.5057 59.6714 80.3009 59.5186 80.2591C59.3548 80.2141 59.2437 80.0909 59.2702 79.9145Z" fill="black"/>
<path d="M38.8248 31.755C38.9331 32.5278 38.9803 33.3013 38.9621 34.0821C38.953 34.4548 39.5323 34.5309 39.5426 34.1553C39.5626 33.3252 39.5187 32.4997 39.4042 31.6762C39.3546 31.3028 38.773 31.3828 38.8248 31.755Z" fill="black"/>
<path d="M46.4321 49.0855C46.4558 49.0752 46.4795 49.0655 46.5031 49.0552C46.8497 48.9075 46.6202 48.3694 46.2736 48.5171C46.25 48.5274 46.2263 48.5371 46.2026 48.5474C45.856 48.6951 46.0833 49.2344 46.4321 49.0855Z" fill="black"/>
<path d="M55.8166 70.8317C55.592 71.0087 55.491 71.1892 55.431 71.4664C55.3613 71.7859 55.7886 71.8813 55.9569 71.662C56.0344 71.8732 56.0848 72.0932 56.0999 72.3257C56.1174 72.6054 56.0803 72.8882 55.7317 72.9175C55.5254 72.9342 55.2863 72.7793 55.1269 72.6741C54.6695 72.3708 54.2899 72.0592 53.711 72.1024C53.3362 72.13 53.4159 72.7114 53.7898 72.6818C54.3224 72.6429 54.7006 73.1658 55.1582 73.3626C55.4891 73.5064 55.9042 73.5736 56.234 73.3922C57.072 72.9357 56.6154 71.5664 56.2667 70.9445C56.1772 70.7822 55.9775 70.702 55.8166 70.8317Z" fill="black"/>
<path d="M35.0319 49.2083C35.2177 49.5312 35.7578 49.3059 35.57 48.9789C32.4552 43.615 31.9752 37.7029 33.3601 31.7386C33.9953 28.9982 34.5818 26.322 34.4983 23.4887C34.412 20.5473 33.8177 17.6546 33.2272 14.7829C33.1499 14.4165 32.571 14.4902 32.6469 14.8598C33.2511 17.7994 33.8621 20.7612 33.9243 23.7713C33.9901 26.9097 33.1476 29.8502 32.5054 32.8909C31.3234 38.4894 32.1484 44.2445 35.0319 49.2083Z" fill="black"/>
<path d="M60.8055 81.1473C60.4956 80.9336 60.1442 81.4036 60.4561 81.6165C60.946 81.9546 61.3652 82.3531 61.7265 82.8249C61.9558 83.1241 62.4139 82.7609 62.1837 82.4597C61.7941 81.9516 61.3314 81.5107 60.8055 81.1473Z" fill="black"/>
<path d="M55.3573 67.373C55.3417 67.4076 55.328 67.4413 55.3141 67.4752C55.1734 67.8251 55.7167 68.0439 55.8576 67.6937C55.8713 67.66 55.8846 67.6262 55.8983 67.5925C56.0392 67.2423 55.4982 67.0228 55.3573 67.373Z" fill="black"/>
<path d="M50.383 56.5069C51.2274 55.88 50.416 54.6745 49.9496 54.0696C49.7213 53.7729 49.261 54.1367 49.4925 54.4348C49.7187 54.7273 50.4884 55.7272 50.0178 56.0497C49.5485 56.3745 49.007 55.8499 48.6962 55.5448C48.4309 55.2864 47.9688 55.6462 48.239 55.91C48.7891 56.4484 49.6174 57.0795 50.383 56.5069Z" fill="black"/>
<path d="M50.0054 60.5919C50.8705 60.9148 52.4064 61.1836 52.6655 59.911C52.7817 59.3425 52.3601 58.8179 52.0234 58.4044C51.6772 57.9797 51.2783 57.6587 50.7286 57.5625C50.3564 57.495 50.2841 58.0774 50.6545 58.141C51.2134 58.241 51.9814 59.0228 52.0588 59.5925C52.2015 60.6254 50.766 60.2527 50.2215 60.0499C49.8703 59.9169 49.6518 60.4604 50.0054 60.5919Z" fill="black"/>
<path d="M32.8887 12.1685C32.581 11.1603 32.4699 10.1291 32.5463 9.07939C32.5744 8.70369 31.9931 8.62851 31.965 9.00421C31.8808 10.1615 32.0123 11.2882 32.3506 12.398C32.4609 12.7576 32.9993 12.5232 32.8887 12.1685Z" fill="black"/>
<path d="M50.4192 52.3964C50.5903 51.8783 50.1181 51.0931 49.87 50.6722C49.487 50.0239 48.9679 49.4927 48.3503 49.064C48.0426 48.8491 47.6933 49.3188 48.0021 49.5354C48.7382 50.0456 49.4966 50.8339 49.7269 51.7325C49.7507 51.8062 49.7768 51.8792 49.7995 51.9507C49.8246 52.1943 49.748 52.2599 49.5719 52.1442C49.3949 52.1588 49.1366 51.9941 48.9677 51.9259C48.4798 51.7242 48.0157 51.4822 47.5637 51.2095C47.243 51.0183 46.8897 51.4839 47.2143 51.6787C47.7382 51.9956 50.0527 53.5115 50.4192 52.3964Z" fill="black"/>
<path d="M57.2408 70.975C57.8996 71.5006 58.4567 72.115 58.9041 72.8195C58.4707 72.7932 58.0523 72.6891 57.6366 72.513C57.2914 72.3651 57.0726 72.9084 57.4201 73.0556C58.0762 73.3355 58.7455 73.4443 59.4548 73.4017C59.6317 73.3925 59.7727 73.1568 59.6849 72.9985C59.1496 72.029 58.4569 71.1971 57.5903 70.5063C57.2965 70.2697 56.947 70.7389 57.2408 70.975Z" fill="black"/>
<path d="M54.216 60.9769C53.7455 61.2994 53.204 60.7748 52.8915 60.4708C52.6263 60.2124 52.1661 60.5714 52.4343 60.836C52.9873 61.376 53.8128 62.006 54.5795 61.4351C55.4231 60.8062 54.6114 59.6005 54.1462 58.9978C53.9169 58.6986 53.4588 59.0618 53.6881 59.361C53.9138 59.6537 54.6857 60.6523 54.216 60.9769Z" fill="black"/>
<path d="M57.3859 67.5611C57.8607 68.0302 58.2067 68.5796 58.3986 69.2152C57.7937 69.539 57.0927 69.5173 56.48 69.201C56.1467 69.0277 55.9304 69.57 56.2626 69.741C57.1212 70.1865 58.1138 70.1044 58.9191 69.583C58.9944 69.5329 59.0463 69.404 59.0255 69.3137C58.8273 68.5029 58.4402 67.7852 57.844 67.1979C57.5778 66.9375 57.1166 67.2994 57.3859 67.5611Z" fill="black"/>
<path d="M52.5067 53.6661C52.473 53.6524 52.4391 53.639 52.4055 53.6254C52.0556 53.4847 51.8368 54.0279 52.187 54.1689C52.2206 54.1825 52.2545 54.1959 52.2905 54.2088C52.6381 54.3502 52.8566 53.8068 52.5067 53.6661Z" fill="black"/>
<path d="M51.0884 48.1186C51.9319 47.4896 51.1202 46.2839 50.655 45.6812C50.426 45.3822 49.9676 45.7452 50.1969 46.0444C50.4235 46.3372 51.1948 47.3359 50.7255 47.6607C50.255 47.9833 49.7135 47.4587 49.4009 47.1547C49.138 46.8956 48.6756 47.2552 48.9438 47.5199C49.4958 48.0574 50.3222 48.6893 51.0884 48.1186Z" fill="black"/>
<path d="M53.337 56.7127C53.8491 56.8403 54.1137 57.3835 54.6677 57.4477C55.0155 57.4876 55.3981 57.3653 55.5377 57.0183C55.7081 56.5945 55.3915 56.1141 55.1821 55.7659C54.8506 55.2154 54.4263 54.7503 53.9298 54.3489C53.6372 54.11 53.2901 54.5785 53.5827 54.8174C53.9312 55.1039 55.1651 56.221 54.8387 56.7087C54.6833 56.9402 54.5883 56.8433 54.388 56.7075C54.2692 56.6258 54.1659 56.52 54.0494 56.4322C53.8457 56.2826 53.6532 56.1942 53.4105 56.1324C53.0445 56.0438 52.9745 56.6255 53.337 56.7127Z" fill="black"/>
<path d="M40.3904 29.0964C40.6173 25.7619 40.378 22.4432 39.6638 19.1797C39.5846 18.8142 39.0034 18.8891 39.0848 19.2588C39.7886 22.4735 40.0353 25.7382 39.8103 29.0234C39.7861 29.3973 40.3655 29.4734 40.3904 29.0964Z" fill="black"/>
<path d="M58.6408 63.5952C58.7791 63.5617 58.9346 63.4319 58.8925 63.2669C58.6426 62.2926 58.1367 61.4755 57.3669 60.8272C57.0799 60.5835 56.7313 61.0547 57.0175 61.2964C57.5848 61.7745 58 62.3784 58.2333 63.0751C57.8268 63.1237 57.4386 63.0604 57.0489 62.8803C56.7066 62.7212 56.4886 63.2664 56.8304 63.4238C57.4087 63.6881 58.0224 63.7496 58.6408 63.5952Z" fill="black"/>
<path d="M52.5711 50.4392C52.8688 50.5109 53.0661 50.7649 53.1168 51.0511C52.7048 51.0157 52.2939 50.9819 51.8822 50.9467C51.5069 50.9135 51.4317 51.4948 51.807 51.5281C52.3317 51.5717 52.8542 51.6159 53.3766 51.6602C53.5395 51.6721 53.6777 51.5675 53.7034 51.4065C53.8231 50.6842 53.3374 50.0289 52.6446 49.8589C52.2784 49.7706 52.2084 50.3524 52.5711 50.4392Z" fill="black"/>
<path d="M56.0739 59.6969C56.8505 60.0096 57.6469 60.1535 58.4746 60.144C58.5606 60.1429 58.649 60.1409 58.7381 60.136C58.9798 60.1246 59.0405 59.8315 58.9282 59.6633C58.437 58.9343 57.8931 58.2427 57.2839 57.6071C56.9844 57.2922 56.6546 56.9241 56.2068 57.2039C56.1186 57.2594 56.0946 57.3765 56.1005 57.4732C56.1002 57.4962 56.1028 57.5204 56.1033 57.5457C56.1194 57.8286 56.4483 57.8539 56.6039 57.6935C56.7655 57.8636 57.4733 58.6888 57.5572 58.7906C57.7601 59.0398 57.9561 59.297 58.1436 59.5578C57.5076 59.5339 56.8944 59.3957 56.2927 59.1537C55.9426 59.0128 55.7241 59.5562 56.0739 59.6969Z" fill="black"/>
<path d="M59.3054 64.4033C59.532 64.6961 60.3033 65.6948 59.8317 66.0203C59.3612 66.3428 58.8197 65.8182 58.5094 65.513C58.2441 65.2546 57.782 65.6145 58.0522 65.8782C58.6023 66.4171 59.4307 67.0482 60.1974 66.4774C61.0409 65.8484 60.2292 64.6427 59.764 64.04C59.5345 63.7411 59.0762 64.1041 59.3054 64.4033Z" fill="black"/>
<path d="M45.7086 29.6758C45.3634 29.9757 45.1882 30.4239 45.2572 30.8779C45.3119 31.2512 45.8921 31.1744 45.8375 30.8011C45.7991 30.5504 45.8814 30.3017 46.0741 30.1332C46.3562 29.8882 45.9952 29.4289 45.7086 29.6758Z" fill="black"/>
<path d="M59.5475 59.3915C59.2549 59.1525 58.9055 59.6217 59.1981 59.8607C59.5479 60.144 60.7825 61.2634 60.4554 61.7487C60.3007 61.9825 60.2062 61.8856 60.0056 61.7496C59.8867 61.6679 59.7835 61.562 59.6651 61.4751C59.4635 61.3243 59.2708 61.2362 59.0283 61.1742C58.6626 61.0857 58.5926 61.6675 58.9531 61.7555C59.4643 61.8812 59.7298 62.4264 60.2858 62.4897C60.6336 62.5296 61.0163 62.4072 61.1559 62.0602C61.3265 61.6367 61.0097 61.1561 60.8002 60.8079C60.4688 60.2578 60.044 59.7929 59.5475 59.3915Z" fill="black"/>
<path d="M56.7091 53.0297C56.4294 53.3525 56.2574 53.3418 55.8671 53.2438C55.6542 53.1921 55.452 53.1051 55.2433 53.039C54.8988 52.9289 54.5876 52.8733 54.2258 52.8954C53.8491 52.9186 53.9291 53.5002 54.3026 53.4757C55.237 53.4181 56.7751 54.5509 57.4126 53.2896C57.6494 52.8251 57.4384 52.33 57.189 51.9174C56.7336 51.1653 56.1434 50.4962 55.514 49.8847C55.2465 49.6274 54.7853 49.9893 55.0568 50.2499C55.4219 50.6054 55.7695 50.9737 56.0848 51.3735C56.2434 51.5729 56.3978 51.7739 56.5391 51.9858C56.6511 52.1415 56.7493 52.3058 56.8352 52.4778C57.0025 52.7038 56.9589 52.8877 56.7091 53.0297Z" fill="black"/>
<path d="M55.5224 47.9836C55.6954 47.4646 55.2203 46.6777 54.9725 46.2571C54.5893 45.609 54.0713 45.0795 53.456 44.6502C53.1483 44.4352 52.7958 44.9036 53.1066 45.1194C53.8416 45.6324 54.5998 46.421 54.8324 47.319C54.8553 47.3907 54.8792 47.4644 54.905 47.5372C54.9279 47.782 54.8526 47.8444 54.6774 47.7307C54.5004 47.7453 54.2398 47.5812 54.0723 47.5104C53.5845 47.3087 53.1181 47.0674 52.6672 46.7969C52.3478 46.6025 51.9955 47.0705 52.3178 47.2661C52.8414 47.5827 55.155 49.0966 55.5224 47.9836Z" fill="black"/>
<path d="M70.7323 82.3059C70.3999 81.8066 69.943 81.4267 69.3997 81.1723C69.0584 81.0098 68.843 81.5546 69.1825 81.7126C69.638 81.928 69.9978 82.2529 70.2751 82.6711C70.4823 82.9849 70.9397 82.6194 70.7323 82.3059Z" fill="black"/>
<path d="M57.5586 53.9549C58.8989 54.719 59.1295 56.8894 60.8063 57.0699C60.9083 57.0824 61.0172 57.0869 61.1295 57.0821C61.3102 57.0765 61.4443 56.8359 61.3596 56.6789C60.6563 55.3507 59.88 54.072 59.0296 52.8345C58.8157 52.5237 58.3585 52.8889 58.5716 53.1977C59.2911 54.2416 59.9531 55.3174 60.5645 56.4302C59.4103 56.037 58.9628 54.0864 57.9082 53.4854C57.5848 53.3 57.2323 53.7683 57.5586 53.9549Z" fill="black"/>
<path d="M76.3651 92.408C75.7122 92.3199 75.1405 91.9991 74.7291 91.4876C74.4924 91.1945 74.032 91.5584 74.2688 91.8515C74.7776 92.4789 75.4913 92.8817 76.2919 92.9885C76.6652 93.0408 76.738 92.4602 76.3651 92.408Z" fill="black"/>
<path d="M39.3576 16.08C39.1502 10.7003 38.246 5.39158 36.6777 0.243338C36.5675 -0.116546 36.0303 0.114943 36.1395 0.472841C37.692 5.57168 38.5731 10.8323 38.7773 16.1569C38.7912 16.5352 39.3715 16.453 39.3576 16.08Z" fill="black"/>
<path d="M68.1727 73.633C67.6788 73.6375 67.1959 73.5254 66.7467 73.3303C66.4006 73.1804 66.1818 73.7237 66.5282 73.8738C67.0774 74.1127 67.654 74.2178 68.2519 74.2126C68.628 74.2123 68.544 73.6324 68.1727 73.633Z" fill="black"/>
<path d="M71.9376 84.0302C72.3451 83.8465 72.0601 83.1896 71.6581 83.3863C71.5153 83.4572 71.4395 83.6194 71.5037 83.7698C71.5167 83.7999 71.535 83.8251 71.5556 83.8496C71.6031 83.9973 71.7541 84.1135 71.9376 84.0302Z" fill="black"/>
<path d="M57.2872 49.0273C57.6371 49.168 57.8559 48.6248 57.5057 48.4838C57.472 48.4702 57.4361 48.4577 57.4025 48.444C57.0526 48.3033 56.836 48.8454 57.186 48.9866C57.2198 49 57.2535 49.0136 57.2872 49.0273Z" fill="black"/>
<path d="M47.0622 26.5378C47.1978 25.5671 47.3332 24.5962 47.4669 23.6263C47.5213 23.2522 46.9386 23.1802 46.8884 23.5522C46.7528 24.523 46.6174 25.4939 46.4817 26.4646C46.4297 26.8381 47.0101 26.9113 47.0622 26.5378Z" fill="black"/>
<path d="M51.8831 39.6821C51.5527 39.8559 51.7797 40.3949 52.1125 40.2202C53.5614 39.4606 54.2536 37.7844 53.7837 36.2221C53.6745 35.8642 53.1372 36.0957 53.2456 36.4516C53.6185 37.6911 53.0265 39.0827 51.8831 39.6821Z" fill="black"/>
<path d="M66.4741 56.2313C66.3071 56.216 66.1248 56.2887 66.034 56.434C65.9515 56.5683 65.9595 56.7429 66.0939 56.8433C66.1871 56.913 66.3347 56.9188 66.4339 56.8536C66.5122 56.9119 66.6118 56.9304 66.7126 56.8874C66.8481 56.8295 66.9421 56.6446 66.867 56.5038C66.7834 56.3485 66.6535 56.2463 66.4741 56.2313Z" fill="black"/>
<path d="M78.4696 84.0087C78.7781 84.2256 79.1275 83.7564 78.819 83.5395C77.423 82.5499 76.0262 81.5634 74.631 80.5758C74.3225 80.3589 73.973 80.8281 74.2816 81.045C75.6767 82.0326 77.0747 83.0213 78.4696 84.0087Z" fill="black"/>
<path d="M79.4144 84.6614C79.761 84.5138 79.5315 83.9756 79.1849 84.1233C78.8382 84.271 79.0677 84.8091 79.4144 84.6614Z" fill="black"/>
<path d="M77.3584 75.553C74.9994 75.5918 72.7057 75.163 70.5146 74.2883C70.1624 74.1483 69.9439 74.6917 70.2961 74.8318C72.5866 75.7427 74.9726 76.173 77.4372 76.1324C77.814 76.1266 77.7298 75.5471 77.3584 75.553Z" fill="black"/>
<path d="M82.2542 86.2588C82.6028 86.4027 82.8196 85.8603 82.4705 85.7165C82.0408 85.5383 81.6464 85.3048 81.2827 85.0122C80.9896 84.7784 80.6405 85.2478 80.9344 85.4836C81.3354 85.8037 81.7794 86.0644 82.2542 86.2588Z" fill="black"/>
<path d="M54.5003 17.7574C55.057 23.1814 54.7064 28.6308 53.4713 33.9387C53.3861 34.3057 53.9678 34.3757 54.0518 34.0119C55.2971 28.6565 55.6414 23.1512 55.0803 17.6809C55.0429 17.3051 54.4633 17.3843 54.5003 17.7574Z" fill="black"/>
<path d="M85.2223 92.6927C85.577 92.8085 85.7986 92.2663 85.4389 92.1501C80.9733 90.7012 76.9058 88.3297 73.4447 85.1558C73.1665 84.9028 72.8206 85.3736 73.0953 85.625C76.5922 88.8296 80.7103 91.2302 85.2223 92.6927Z" fill="black"/>
<path d="M46.5671 20.0475C46.5676 20.4187 47.1479 20.4968 47.1476 20.1207C47.1523 14.7192 45.4492 9.60062 44.0673 4.43672C43.372 1.83853 42.7588 -0.794022 42.5228 -3.47847C42.2893 -6.13338 42.7543 -8.92055 41.7012 -11.4395C41.5555 -11.787 41.0174 -11.5575 41.1631 -11.21C42.2144 -8.69503 41.7084 -5.8547 41.9618 -3.20085C42.2091 -0.584991 42.8101 1.98202 43.488 4.51608C44.8515 9.61872 46.5703 14.7078 46.5671 20.0475Z" fill="black"/>
<path d="M89.9769 99.6592C85.5551 99.1605 81.4719 97.1165 78.4373 93.857C78.1834 93.5837 77.7243 93.9445 77.9792 94.2202C81.118 97.5926 85.3248 99.7239 89.9037 100.24C90.2783 100.284 90.3515 99.703 89.9769 99.6592Z" fill="black"/>
<path d="M79.8169 76.0816C79.8267 76.2174 79.9541 76.3207 80.0859 76.3309C80.1781 76.4162 80.3191 76.4424 80.4448 76.3381C80.6732 76.1519 80.5891 75.829 80.3317 75.72C80.0635 75.6103 79.7991 75.7894 79.8169 76.0816Z" fill="black"/>
<path d="M66.3591 40.1529C66.343 40.1926 66.3284 40.2297 66.3123 40.2694C66.1716 40.6193 66.7148 40.8381 66.8558 40.4879C66.8695 40.4489 66.8856 40.4092 66.9026 40.3714C67.0431 40.0219 66.5001 39.8033 66.3591 40.1529Z" fill="black"/>
<path d="M63.1983 35.3381C63.8708 34.4514 64.4774 33.5238 65.0209 32.555C65.2029 32.2305 64.7373 31.8773 64.5517 32.2055C64.0085 33.1746 63.3994 34.1032 62.7291 34.9887C62.5009 35.2894 62.9703 35.6385 63.1983 35.3381Z" fill="black"/>
<path d="M68.8596 45.4891C69.0232 45.0555 69.2834 44.6931 69.6458 44.4039C69.9398 44.1691 69.5771 43.7109 69.2826 43.9458C68.8441 44.2954 68.5146 44.7459 68.3161 45.2706C68.1835 45.622 68.725 45.8414 68.8596 45.4891Z" fill="black"/>
<path d="M92.7585 69.3481C85.0726 72.1582 76.5954 72.3071 68.8177 69.7694C68.4599 69.6523 68.2414 70.1958 68.5992 70.3129C76.5302 72.8995 85.1498 72.7509 92.988 69.8862C93.3429 69.758 93.1114 69.2208 92.7585 69.3481Z" fill="black"/>
<path d="M70.0066 36.2872C68.9677 37.0249 68.049 37.882 67.2344 38.8598C66.9936 39.148 67.4628 39.4974 67.703 39.207C68.4855 38.2682 69.374 37.4521 70.3696 36.7456C70.6765 36.5281 70.3135 36.0697 70.0066 36.2872Z" fill="black"/>
<path d="M79.8059 67.4089C80.4677 67.3684 81.1317 67.3272 81.7955 67.2859C82.1721 67.2627 82.0911 66.6845 81.7164 66.7068C81.0524 66.748 80.3906 66.7885 79.7269 66.8299C79.3502 66.853 79.4312 67.4312 79.8059 67.4089Z" fill="black"/>
<path d="M66.3839 30.3586C66.6911 29.8743 66.9435 29.3624 67.1324 28.8214C67.2588 28.4674 66.7146 28.2466 66.5915 28.6019C66.4187 29.0978 66.194 29.5672 65.9145 30.0095C65.7131 30.3239 66.1809 30.6765 66.3839 30.3586Z" fill="black"/>
<path d="M75.8964 38.3269C73.8986 39.3386 72.1332 40.6502 70.5792 42.2613C70.3206 42.532 70.7914 42.8779 71.0506 42.6096C72.53 41.0736 74.222 39.8287 76.1256 38.8648C76.46 38.6944 76.2328 38.1556 75.8964 38.3269Z" fill="black"/>
<path d="M79.8442 51.1054C80.1646 50.9205 79.9396 50.3806 79.6148 50.5672C78.6035 51.1484 77.5236 51.4609 76.359 51.5096C75.9816 51.5254 76.0629 52.1038 76.4359 52.0899C77.6509 52.0401 78.7883 51.713 79.8442 51.1054Z" fill="black"/>
<path d="M81.6213 54.4758C79.3546 55.4825 76.6283 54.5641 74.2472 54.4671C72.1432 54.3822 70.0643 54.5942 68.0921 55.3555C67.7412 55.4924 67.9702 56.0306 68.3216 55.8936C70.7262 54.9656 73.2794 54.9176 75.8167 55.1664C77.8414 55.3641 79.9102 55.8736 81.8505 55.0137C82.1954 54.8621 81.9661 54.3237 81.6213 54.4758Z" fill="black"/>
<path d="M85.4129 53.0304C85.0297 53.1938 84.6487 53.356 84.2657 53.5191C83.919 53.6668 84.1485 54.2049 84.4952 54.0572C84.8782 53.8941 85.2594 53.7316 85.6424 53.5685C85.9888 53.4206 85.7593 52.8825 85.4129 53.0304Z" fill="black"/>
<path d="M67.9574 27.3252C69.3586 24.2458 70.7266 21.1299 71.098 17.7338C71.1398 17.36 70.5591 17.2871 70.5175 17.6606C70.1514 21.0084 68.7949 24.0741 67.4141 27.1064C67.258 27.4504 67.8012 27.6692 67.9574 27.3252Z" fill="black"/>
<path d="M72.4271 23.9682C72.1913 24.2621 72.6605 24.6116 72.8956 24.3153C73.7895 23.2019 74.1238 21.7549 73.7976 20.3628C73.7129 19.9972 73.1327 20.074 73.2173 20.4397C73.5119 21.6979 73.2351 22.9575 72.4271 23.9682Z" fill="black"/>
<path d="M96.9804 67.9634C96.5628 68.1414 96.1432 68.3202 95.7256 68.4982C95.3789 68.6459 95.6084 69.184 95.9551 69.0363C96.3727 68.8583 96.7923 68.6795 97.2099 68.5015C97.5563 68.3541 97.327 67.8157 96.9804 67.9634Z" fill="black"/>
<path d="M76.75 23.3518C77.0246 22.9754 77.2495 22.5667 77.4207 22.1326C77.5608 21.7804 77.0182 21.5639 76.8794 21.9129C76.725 22.3018 76.5276 22.6629 76.2808 23.0024C76.0598 23.3076 76.529 23.6571 76.75 23.3518Z" fill="black"/>
<path d="M96.2937 63.7619C93.2022 65.4713 89.7792 66.3553 86.242 66.3262C85.8692 66.3225 85.794 66.9038 86.1688 66.9067C89.8137 66.9376 93.3325 66.0636 96.5229 64.2998C96.8506 64.1201 96.6233 63.5808 96.2937 63.7619Z" fill="black"/>
<path d="M72.1782 10.8341C72.1427 10.6966 72.0442 10.5859 71.9023 10.5805C71.8207 10.5085 71.6962 10.4725 71.5983 10.5294C71.4594 10.609 71.3666 10.7196 71.3513 10.8866C71.336 11.0535 71.4221 11.2201 71.5724 11.2985C71.8621 11.447 72.268 11.1697 72.1782 10.8341Z" fill="black"/>
<path d="M83.6316 44.7988C84.6434 44.4872 85.6528 44.1763 86.6637 43.8628C87.0236 43.7527 86.7921 43.2154 86.4342 43.3247C85.4237 43.6384 84.4139 43.9491 83.4021 44.2607C83.0425 44.371 83.274 44.9082 83.6316 44.7988Z" fill="black"/>
<path d="M84.6902 38.206C84.8817 38.1242 85.0734 38.0426 85.2647 37.961C85.6113 37.8134 85.3818 37.2753 85.0352 37.4229C84.8437 37.5048 84.6519 37.5864 84.4607 37.6679C84.1143 37.8152 84.3438 38.3533 84.6902 38.206Z" fill="black"/>
<path d="M78.094 20.0121C78.5895 18.8296 78.9092 17.5919 79.0495 16.3165C79.0913 15.9426 78.5106 15.8698 78.469 16.2433C78.3335 17.4711 78.0288 18.6537 77.5507 19.7933C77.4034 20.1408 77.9467 20.3596 78.094 20.0121Z" fill="black"/>
<path d="M81.1414 26.3455C81.41 26.1649 81.6805 25.981 81.9492 25.8004C82.2606 25.5887 81.8954 25.1316 81.586 25.3423C81.3148 25.5239 81.0468 25.7068 80.7759 25.8886C80.4645 26.1002 80.8297 26.5574 81.1414 26.3455Z" fill="black"/>
<path d="M100.315 67.1477C100.482 66.9543 100.647 66.7621 100.812 66.5699C100.916 66.4516 100.872 66.2518 100.752 66.1606C100.618 66.0622 100.447 66.1022 100.342 66.2205C100.178 66.4127 100.011 66.6061 99.846 66.7983C99.7421 66.9188 99.7866 67.1187 99.9059 67.2076C100.04 67.308 100.212 67.268 100.315 67.1477Z" fill="black"/>
<path d="M74.2015 3.10247C74.3675 3.0802 74.4624 2.93282 74.4529 2.77396C74.445 2.67822 74.4385 2.5793 74.4328 2.48237C74.4245 2.32572 74.2532 2.21032 74.1043 2.23094C73.9383 2.25321 73.8446 2.40278 73.8535 2.56173C73.8592 2.65866 73.8646 2.75538 73.8705 2.852C73.8822 3.00968 74.0523 3.12287 74.2015 3.10247Z" fill="black"/>
<path d="M87.331 36.9662C87.8258 36.4502 88.4329 36.1025 89.1159 35.9028C89.4746 35.7956 89.2432 35.2583 88.8864 35.3647C88.0975 35.5965 87.4287 36.0267 86.8624 36.619C86.6037 36.8891 87.0743 37.2354 87.331 36.9662Z" fill="black"/>
<path d="M74.2536 -0.134336C74.0449 -0.856923 73.835 -1.57581 73.6263 -2.2984C73.5213 -2.65784 72.9843 -2.42668 73.0882 -2.06891C73.2968 -1.34633 73.5066 -0.627133 73.7155 0.0951482C73.8204 0.454595 74.3577 0.223124 74.2536 -0.134336Z" fill="black"/>
<path d="M97.6308 58.4316C98.289 58.3826 98.946 58.3365 99.6042 58.2875C99.979 58.2599 99.8992 57.6785 99.5251 57.7085C98.869 57.7566 98.2099 57.8035 97.5541 57.8519C97.1769 57.8797 97.2591 58.46 97.6308 58.4316Z" fill="black"/>
<path d="M84.8465 22.9252C85.5917 22.0836 86.336 21.24 87.0802 20.3964C87.3292 20.1149 86.8575 19.7664 86.6088 20.0482C85.8646 20.8917 85.1226 21.7347 84.3783 22.5782C84.1294 22.8598 84.5979 23.2069 84.8465 22.9252Z" fill="black"/>
<path d="M77.6203 -0.90531C79.3105 3.79417 79.6925 8.81464 78.7503 13.7175C78.6794 14.0886 79.2589 14.1593 79.3308 13.7906C80.2914 8.78828 79.8826 3.65693 78.1584 -1.1348C78.0302 -1.48966 77.4929 -1.25818 77.6203 -0.90531Z" fill="black"/>
<path d="M89.212 28.8598C90.1607 28.036 91.2425 27.4834 92.4724 27.2186C92.838 27.1394 92.7631 26.5582 92.3956 26.6384C91.0638 26.9263 89.8771 27.5081 88.8468 28.4026C88.5645 28.6474 88.9255 29.1067 89.212 28.8598Z" fill="black"/>
<path d="M103.367 34.9282C99.0902 37.621 94.6403 40.0106 90.0373 42.0944C89.6965 42.2498 89.9237 42.7886 90.2668 42.6325C94.9184 40.5255 99.4108 38.1047 103.73 35.3866C104.05 35.1867 103.682 34.7305 103.367 34.9282Z" fill="black"/>
<path d="M104.118 41.7015C98.2184 46.0186 91.3311 48.7581 84.0797 49.6817C83.7057 49.729 83.7848 50.3086 84.1586 50.2611C91.5113 49.3249 98.5002 46.5374 104.482 42.1619C104.786 41.9384 104.423 41.4803 104.118 41.7015Z" fill="black"/>
<path d="M94.7726 18.2221C94.1826 18.944 93.4798 19.5388 92.6638 19.993C92.3385 20.1726 92.5644 20.7145 92.8933 20.5312C93.8015 20.0247 94.5853 19.3751 95.2443 18.5705C95.482 18.2811 95.0128 17.9316 94.7726 18.2221Z" fill="black"/>
<path d="M102.605 58.6156C104.389 58.3563 106.186 58.2747 107.982 58.4199C109.577 58.5516 111.754 58.6432 112.726 60.1113C112.934 60.4248 113.391 60.0596 113.183 59.7461C112.249 58.3359 110.446 58.11 108.892 57.9251C106.772 57.6713 104.638 57.7289 102.528 58.0357C102.155 58.0902 102.234 58.6696 102.605 58.6156Z" fill="black"/>
<path d="M88.6929 19.048C92.2128 16.345 95.0064 12.8681 96.9027 8.85561C97.062 8.51294 96.5194 8.29644 96.3594 8.63682C94.5051 12.5631 91.773 15.9452 88.3277 18.5908C88.0307 18.8189 88.3937 19.2773 88.6929 19.048Z" fill="black"/>
<path d="M110.51 37.9095C109.333 38.6376 108.155 39.3657 106.978 40.0938C106.658 40.2915 107.025 40.7475 107.341 40.5519C108.519 39.8238 109.696 39.0956 110.876 38.3663C111.194 38.1699 110.828 37.7125 110.51 37.9095Z" fill="black"/>
<path d="M112.944 35.1884C112.804 35.6707 112.532 36.0638 112.127 36.3608C111.822 36.5825 112.187 37.0397 112.49 36.8189C112.969 36.4696 113.321 35.9762 113.486 35.4076C113.592 35.0494 113.05 34.8278 112.944 35.1884Z" fill="black"/>
<path d="M94.9237 2.46323C96.7753 -1.86357 97.3188 -6.61475 96.4917 -11.247C96.4253 -11.618 95.8451 -11.5411 95.9114 -11.1701C96.7229 -6.62773 96.1961 -1.99827 94.3802 2.24473C94.2323 2.58997 94.7737 2.80935 94.9237 2.46323Z" fill="black"/>
<path d="M103.77 0.221643C103.688 3.22725 103.324 6.23563 102.03 8.98224C100.749 11.7052 98.7561 14.017 96.8162 16.2859C96.5725 16.5729 97.043 16.9191 97.2876 16.6341C99.2637 14.3247 101.264 11.9692 102.574 9.20072C103.892 6.41615 104.267 3.34457 104.352 0.297036C104.36 -0.0778187 103.78 -0.154184 103.77 0.221643Z" fill="black"/>
<path d="M92.7994 33.2442C92.4418 33.366 92.6733 33.9032 93.0289 33.7824C102.71 30.4425 111.414 24.6859 118.295 17.1044C118.546 16.824 118.076 16.4778 117.825 16.755C111.014 24.261 102.381 29.9391 92.7994 33.2442Z" fill="black"/>
<path d="M-42.4313 109.887C-41.4903 111.152 -40.5016 112.374 -39.4336 113.526C-38.5032 114.533 -37.5121 115.487 -36.4469 116.368C-32.7144 119.457 -28.1515 121.289 -23.3615 121.901C-13.7784 123.124 -3.62289 120.027 4.56642 115.146C5.67696 114.482 6.76047 113.766 7.79927 112.993C6.78963 116.818 5.86548 120.671 4.89436 124.503C3.41943 130.322 2.24233 136.332 0.250695 142.001C-0.718727 144.757 -2.16614 147.556 -4.15973 149.74C-4.51685 150.131 -4.88983 150.504 -5.28082 150.851C-4.94144 150.872 -4.60392 150.889 -4.26388 150.904C-4.06213 150.912 -3.86138 150.923 -3.66051 150.929C-3.00085 150.961 -2.34224 150.985 -1.68289 151.004C-1.61588 151.042 -1.53239 151.065 -1.43434 151.069C-0.833176 151.095 -0.239636 151.091 0.348117 151.062C2.44599 150.954 4.45237 150.506 6.35674 149.788C13.2247 147.212 18.804 141.177 22.803 135.183C25.9389 130.487 28.4176 125.364 30.185 120.005C30.5606 121.071 30.9624 122.128 31.3882 123.174C33.1545 127.516 35.2142 131.872 37.7597 135.816C39.7835 138.954 42.4942 141.99 46.1972 143.064C48.0751 143.609 49.9714 143.577 51.3519 142.025C52.699 140.507 53.5583 138.358 54.357 136.515C56.1967 132.274 57.3956 127.735 57.8988 123.12C58.6726 123.755 59.4903 124.337 60.3472 124.867C63.8327 127.019 67.9299 127.717 71.5213 129.579C71.8335 129.738 72.1406 129.91 72.443 130.089C72.4775 130.11 72.5152 130.127 72.5511 130.139C72.7607 129.813 72.958 129.482 73.145 129.151C78.9052 118.987 75.6876 106.472 70.6684 96.2944C75.7343 101.193 81.9309 105.134 89.2539 104.653C91.4581 104.508 93.6303 103.864 95.5149 102.761C95.9358 102.513 96.342 102.243 96.7316 101.952C96.7474 101.452 96.7462 100.954 96.7268 100.461C96.4419 92.7212 92 85.5679 86.6965 80.0764C89.597 79.9719 92.4785 79.5477 95.2954 78.6677C102.655 76.3627 108.902 71.5006 114.604 66.4638C115.326 65.8253 116.041 65.1823 116.755 64.5348C117.274 64.0644 118.422 63.3564 118.691 62.7228C119.103 61.754 118.06 60.0899 117.528 59.3124C115.764 56.7377 112.766 55.4261 109.768 54.9666C105.888 54.3741 101.774 54.7214 97.8643 54.9709C101.055 53.2197 104.061 51.0837 106.903 48.8427C112.195 44.67 117.05 39.6326 119.901 33.4487C122.832 27.0849 123.49 19.4619 120.479 13.0186C120.403 12.8526 120.323 12.6884 120.24 12.5229C120.053 12.1499 119.676 12.0945 119.336 12.2949C112.449 16.4179 104.77 20.845 96.6638 21.6778C99.9367 19.3674 102.88 16.6731 104.877 13.1343C108.431 6.8358 107.944 -0.734142 106.279 -7.52438C105.253 -11.7107 104.03 -16.3344 101.127 -19.6477C99.9266 -21.0154 98.3934 -22.1065 96.7111 -22.7122C96.3438 -22.8456 95.9723 -22.9542 95.5948 -23.04C95.4865 -22.6733 95.3815 -22.3056 95.2812 -21.9374C95.1703 -21.547 95.0662 -21.1591 94.9637 -20.767C94.9473 -20.7042 94.9404 -20.6425 94.9422 -20.5848C93.8294 -17.1145 93.6107 -13.4508 93.1377 -9.84599C92.5951 -5.71833 91.73 -1.63154 90.4614 2.33247C88.6291 8.05241 85.9333 13.5198 82.2884 18.2749C86.908 7.37421 84.9536 -5.39926 79.4451 -15.7708C77.507 -19.4236 75.083 -22.7117 72.6614 -26.0487C72.6313 -26.0895 72.6044 -26.1289 72.5744 -26.1692C72.3789 -26.4369 72.188 -26.7064 71.9945 -26.975C71.6893 -26.7125 71.3865 -26.4438 71.0901 -26.1725C68.3828 -23.6986 66.1052 -20.8436 65.0455 -17.1774C63.5901 -12.142 64.3209 -6.82253 65.1156 -1.74161C65.9876 3.82558 66.7814 9.28039 66.0953 14.9213C65.44 20.3124 63.7497 25.56 61.196 30.3514C59.8397 32.8978 58.2304 35.2979 56.4003 37.5149C57.6142 32.7603 58.3141 27.8794 58.4832 22.9776C58.6978 16.7974 58.0977 10.5908 56.6374 4.58045C55.024 -2.06425 52.0066 -8.26077 50.3736 -14.8919C49.9788 -16.4989 49.6709 -18.1277 49.5061 -19.7739C49.3473 -21.3517 49.6484 -23.2298 49.0227 -24.7157C48.0121 -27.1233 44.2081 -26.6492 42.1688 -26.2253C36.786 -25.1062 32.3089 -21.0441 29.8788 -16.2191C24.2683 -5.07148 28.1989 7.50581 28.0687 19.428C23.5419 13.2342 17.7326 7.99358 10.5402 5.06917C5.92349 3.19371 0.921597 2.36006 -4.04637 2.87739C-4.5401 2.93033 -4.63979 3.46619 -4.4267 3.82282C-4.35258 3.94875 -4.28381 4.07452 -4.2244 4.20194C-3.1262 6.46286 -3.99393 9.04525 -4.86704 11.2639C-5.75733 13.5252 -6.79836 15.7138 -7.24244 18.1206C-8.1905 23.2781 -6.77441 28.5827 -4.63656 33.2642C-2.73472 37.4287 -0.222471 41.3424 2.51971 45.0315C0.205431 44.7208 -2.14023 44.5708 -4.41018 44.4116C-8.16052 44.1456 -11.9195 43.8887 -15.6319 43.2758C-17.558 42.9574 -19.4701 42.5412 -21.3379 41.9713C-22.9927 41.4659 -24.5876 40.767 -26.2631 40.3267C-27.9594 39.8797 -29.6673 39.8166 -31.3052 40.5146C-32.1703 40.8832 -33.6179 41.8433 -34.9389 42.1748C-35.3455 42.2768 -35.7424 42.319 -36.1068 42.2632C-36.1307 42.6245 -36.1444 42.9862 -36.1487 43.3468C-36.2188 47.2398 -35.3799 51.16 -33.897 54.783C-31.0427 61.761 -25.9643 67.5721 -20.7082 72.8581C-16.924 76.6651 -12.5759 80.4761 -7.78029 83.3025C-12.1417 88.5844 -17.5156 93.0006 -23.5531 96.2656C-27.2145 98.2432 -31.1084 99.8185 -35.1306 100.889C-37.1499 101.427 -39.1854 101.753 -41.2358 102.128C-42.7742 102.41 -44.0558 103.185 -44.119 104.888C-44.1247 105.071 -44.1203 105.255 -44.1055 105.439C-43.974 106.966 -43.134 108.495 -42.4313 109.887ZM29.5548 118.126C29.3854 118.689 29.2066 119.249 29.0215 119.805C26.0913 128.595 21.1754 137.338 14.1778 143.53C10.2934 146.965 5.55241 149.614 0.336914 149.897C-0.65331 149.876 -1.64546 149.846 -2.63675 149.806C-1.85621 148.868 -1.16764 147.852 -0.583502 146.794C2.05071 142.024 3.06337 136.458 4.38956 131.226C5.95393 125.056 7.48012 118.874 9.09181 112.714C9.17481 112.401 9.25552 112.09 9.33853 111.777C9.51591 111.119 9.69329 110.461 9.88032 109.802C11.1183 105.36 12.5773 100.966 14.671 96.8493C16.3346 93.5794 18.4393 90.4798 21.0138 87.8616C21.1947 87.6776 21.379 87.4951 21.5648 87.3163C21.7655 87.513 21.9687 87.7087 22.1763 87.8975C22.7053 88.3868 23.2568 88.8511 23.8242 89.2883C25.4285 90.5222 27.1787 91.3708 29.0084 91.8984C29.3824 92.006 29.7593 92.1024 30.1389 92.182C30.6883 92.3012 31.2405 92.3914 31.8005 92.458C31.7499 92.5482 31.7272 92.6621 31.7435 92.7952C32.7027 100.56 32.1423 108.478 30.1447 116.035C29.9623 116.737 29.7635 117.434 29.5548 118.126ZM20.6611 84.6472C20.8361 84.5803 21.01 84.5112 21.1839 84.4421C21.1618 84.688 21.1423 84.9354 21.1254 85.1818C20.9684 85.0045 20.8135 84.8264 20.6611 84.6472ZM55.0051 78.2785C54.7744 77.9824 54.3164 78.3456 54.5479 78.6437C54.7721 78.9371 55.5438 79.936 55.0733 80.2586C54.6039 80.5834 54.0624 80.0588 53.7516 79.7537C53.4855 79.4932 53.0242 79.8551 53.2935 80.1169C53.8055 80.6194 54.5542 81.1972 55.2724 80.8191C52.6244 83.9943 49.3245 86.6274 45.6226 88.4831C44.3888 89.1028 43.0719 89.6591 41.7062 90.1191C40.9432 90.3755 40.165 90.6029 39.3777 90.7962C36.4527 91.5059 33.4001 91.7186 30.525 91.1253C30.1429 91.0467 29.7629 90.9541 29.3888 90.8465C28.133 90.4839 26.9189 89.9562 25.7763 89.2322C24.5671 88.4656 23.4479 87.5462 22.4123 86.5307C22.3481 86.4691 22.2858 86.4067 22.2235 86.3443C22.2415 85.9273 22.268 85.5117 22.3003 85.0984C22.3288 84.7175 22.3622 84.3369 22.402 83.9589C22.4477 83.5172 22.4995 83.078 22.5619 82.6393C23.2401 77.5942 24.7938 72.7359 27.0456 68.2029C27.217 67.8527 27.3951 67.5073 27.5754 67.1607C29.2461 63.9792 31.2629 60.9658 33.5586 58.1713C33.8078 57.8667 34.0611 57.5654 34.317 57.2656C35.9902 55.3137 37.8005 53.4741 39.7274 51.7656C40.0699 51.4592 40.4174 51.1586 40.7677 50.8645C41.6452 50.1192 42.5454 49.4025 43.4657 48.7155C45.1878 47.4271 46.9742 46.2359 48.8187 45.1397C50.1116 44.3725 51.4336 43.6489 52.7799 42.9761C53.0786 42.8234 53.382 42.6763 53.6843 42.5321C53.8031 42.4713 53.9241 42.4146 54.0428 42.3591C54.3037 42.5174 54.5574 42.6894 54.8061 42.8729C55.7494 43.5647 56.6013 44.4119 57.3636 45.3587C57.6149 45.6739 57.8582 45.9998 58.0924 46.3349C58.8411 47.417 59.4824 48.5936 60.0164 49.8055C60.1913 50.2041 60.3555 50.607 60.5091 51.0093C60.9021 52.0446 61.2148 53.0891 61.451 54.1025C61.8818 55.9485 62.1416 57.8291 62.2297 59.7194C62.2494 60.1178 62.2598 60.5178 62.2648 60.9177C62.2758 62.0776 62.2229 63.2423 62.1054 64.3985C62.0665 64.7967 62.0193 65.1931 61.9615 65.5889C61.588 68.2992 60.8588 70.9625 59.7806 73.4872C59.7645 73.5269 59.7462 73.5678 59.7305 73.6078C59.5938 73.9253 59.4521 74.2376 59.303 74.5502C58.542 76.1538 57.6345 77.6826 56.5952 79.117C56.3694 79.4344 56.1344 79.7485 55.8926 80.0523C55.8558 80.0994 55.8173 80.1452 55.7802 80.192C55.916 79.553 55.3593 78.7403 55.0051 78.2785ZM56.8256 122.188C56.5099 125.601 55.8045 128.977 54.7432 132.204C54.1154 134.114 53.3622 135.982 52.4848 137.79C51.4907 139.843 50.4187 142.543 47.6931 142.2C43.9222 141.724 41.0737 138.645 39.0589 135.666C36.6869 132.165 34.83 128.226 33.1547 124.354C32.2686 122.31 31.4652 120.229 30.7758 118.109C31.6674 115.099 32.3352 112.022 32.7724 108.914C33.5294 103.523 33.5693 98.0424 32.9024 92.6398C32.8979 92.6112 32.8932 92.5828 32.8865 92.5549C35.8285 92.7328 38.8505 92.2512 41.7102 91.3402C49.0928 93.6188 53.9172 100.678 55.7825 108.021C56.8261 112.129 57.1897 116.419 56.9389 120.677C56.9121 121.18 56.8729 121.685 56.8256 122.188ZM73.3887 106.317C75.5861 113.598 75.9115 121.845 72.1161 128.587C68.7965 126.896 65.0573 126.203 61.7958 124.368C60.4476 123.61 59.1858 122.714 58.0313 121.7C58.3275 117.932 58.1596 114.13 57.4922 110.421C56.0099 102.169 51.3302 93.8735 43.4631 90.7209C43.6962 90.6291 43.9284 90.5354 44.1594 90.4395C49.0819 88.3899 53.4383 85.053 56.7348 80.8763C56.9527 81.0887 57.1661 81.3029 57.3802 81.5195C60.9178 85.088 64.0201 89.0257 67.3392 92.7918C67.5128 92.9899 67.6914 93.1883 67.869 93.3848C67.869 93.3848 67.8722 93.3861 67.8731 93.3881C70.1802 97.4938 72.0424 101.858 73.3887 106.317ZM92.3955 89.6515C94.3541 93.275 95.5868 97.2592 95.5705 101.35C93.5869 102.681 91.1663 103.405 88.7521 103.511C84.7337 103.69 80.6908 102.29 77.3055 100.195C74.0264 98.1639 71.2595 95.4315 68.6992 92.5628C68.2705 92.0819 67.8489 91.6001 67.4308 91.1144C65.873 89.309 64.3458 87.4801 62.7864 85.6827C61.2888 83.9583 59.7588 82.2604 58.1436 80.637C57.9115 80.4027 57.6773 80.1693 57.4419 79.9391C58.4194 78.6043 59.2887 77.1889 60.038 75.7069C60.1593 75.4669 60.2791 75.2227 60.3937 74.9779C64.7847 76.6697 69.322 77.9763 73.9447 78.8697C77.629 79.5835 81.4024 80.0888 85.1577 80.0982C88.0062 82.9562 90.4978 86.1416 92.3955 89.6515ZM103.181 55.9089C108.267 55.776 116.19 55.9553 117.55 62.2271C110.781 68.4362 103.593 74.9201 94.63 77.6537C91.7174 78.5416 88.6826 78.9395 85.6165 78.9847C85.0783 78.9926 84.5408 78.9906 84.0028 78.9756C78.5406 78.8466 73.0213 77.6815 67.9246 76.255C65.5364 75.5867 63.1837 74.8038 60.8718 73.9149C61.9487 71.3934 62.6908 68.7245 63.0903 66.0034C63.15 65.6066 63.2005 65.2062 63.2446 64.8084C63.3964 63.4162 63.4608 62.0154 63.4325 60.6182C63.9883 60.4905 64.5426 60.3767 65.0945 60.2813C72.2617 59.0224 79.615 60.1587 86.7946 58.971C89.7215 58.4867 92.5107 57.5599 95.1694 56.3326C97.8356 56.1194 100.507 55.978 103.181 55.9089ZM119.453 13.5796C122.174 19.5108 121.658 26.4093 119.116 32.3324C116.359 38.7614 111.309 43.9251 105.865 48.1703C102.39 50.8822 98.7236 53.3681 94.7707 55.1927C93.4971 55.7789 92.1929 56.2991 90.8549 56.7344C88.9713 57.3516 87.0216 57.8011 84.9984 58.0426C78.0604 58.8781 70.9645 57.8813 64.0845 59.2824C63.8532 59.3303 63.6227 59.3801 63.3929 59.4322C63.3075 57.8893 63.1137 56.3543 62.8085 54.844C62.4775 53.2022 62.0245 51.5543 61.4088 49.9725C63.5174 47.5557 65.6803 45.184 67.9284 42.8908C73.978 36.724 80.6199 31.3504 88.0745 26.9704C90.267 25.6825 92.5428 24.392 94.7316 22.9811C103.572 22.7332 111.951 18.0511 119.453 13.5796ZM93.8648 -6.81808C94.6947 -11.7037 94.6529 -16.8563 96.5149 -21.5108C96.5199 -21.5232 96.5248 -21.5352 96.5266 -21.5489C98.4313 -20.7736 100.104 -19.2713 101.243 -17.572C103.416 -14.3402 104.471 -10.2548 105.328 -6.49491C106.868 0.257578 107.134 7.73817 103.143 13.7348C100.909 17.0927 97.7941 19.613 94.4308 21.812C93.8336 22.2013 93.2277 22.5817 92.618 22.9532C90.5329 24.231 88.3964 25.4185 86.3548 26.6371C79.4597 30.748 73.2867 35.8253 67.6449 41.5235C65.3208 43.8697 63.0856 46.2995 60.9091 48.7838C60.3409 47.5278 59.659 46.3281 58.8423 45.2292C64.7386 36.8948 74.3774 31.4876 79.9201 22.7825C87.4629 14.8553 92.0204 4.04163 93.8648 -6.81808ZM66.5698 19.1102C67.7402 13.7642 67.7798 8.3553 67.0253 2.94954C66.2748 -2.42241 64.9575 -7.8758 65.4991 -13.3308C65.8249 -16.6004 66.9314 -19.6559 68.9525 -22.2594C69.7944 -23.3456 70.7454 -24.3309 71.7564 -25.2525C73.258 -23.1915 74.8326 -21.1793 76.1494 -19.1159C80.1993 -12.7822 83.0609 -5.54803 83.643 1.99407C84.1444 8.4999 82.932 15.2629 79.6637 20.9561C79.4303 21.3634 79.1867 21.7649 78.9321 22.1581C77.7962 23.9392 76.4845 25.5816 75.0692 27.1413C72.6686 29.7919 69.9721 32.1949 67.3418 34.593C64.0411 37.6018 60.7305 40.7066 58.1037 44.3058C57.8051 43.9574 57.4901 43.6239 57.1594 43.3017C56.5791 42.7402 55.9507 42.2323 55.2829 41.787C55.2507 41.7653 55.2191 41.7454 55.185 41.7246C54.9692 41.5825 54.7491 41.4478 54.5219 41.3204C54.7958 41.0437 55.0661 40.7654 55.3327 40.484C55.3319 40.482 55.3347 40.4831 55.3347 40.4831C55.4549 40.353 55.5738 40.2261 55.6937 40.0962C61.084 34.2328 64.8598 26.9194 66.5698 19.1102ZM29.1833 21.0065C29.2217 20.2909 29.2425 19.5697 29.2423 18.8474C29.2461 15.6819 28.9896 12.5256 28.712 9.37357C28.1822 3.36814 27.587 -2.71843 28.6664 -8.70247C29.7019 -14.4541 32.4949 -19.8841 37.541 -23.0824C39.9233 -24.5937 42.7497 -25.493 45.5872 -25.3161C46.1824 -25.28 46.9749 -25.2641 47.4799 -24.8918C48.2933 -24.2899 48.1861 -22.9903 48.2074 -22.1042C48.2479 -20.4456 48.3993 -18.801 48.6941 -17.1665C49.8002 -11.0561 52.4255 -5.37896 54.2959 0.507414C56.0641 6.07639 57.0572 11.8868 57.3049 17.725C57.576 24.1736 56.908 30.6688 55.3507 36.9329C55.1378 37.7942 54.9055 38.651 54.6532 39.5038C54.2538 39.9332 53.8427 40.3527 53.4246 40.7622C53.1389 41.0467 52.8484 41.3258 52.5508 41.6C52.4041 41.7388 52.252 41.8774 52.1012 42.0129C47.9899 44.0983 44.0975 46.632 40.5449 49.5625C40.1961 49.8486 39.8517 50.1377 39.5097 50.4336C37.3848 52.2625 35.3935 54.2377 33.5603 56.3464C31.3358 53.5379 29.6241 50.3331 28.5143 46.8995C27.5747 43.9911 27.0797 40.9136 27.1013 37.8549C27.1245 34.6865 27.7367 31.5641 28.2835 28.4545C28.6142 26.5867 28.8836 24.7245 29.0533 22.8492C29.1102 22.2382 29.1532 21.6223 29.1833 21.0065ZM-3.24819 33.4675C-5.53639 28.6771 -7.09792 23.2411 -6.01287 17.9212C-5.09876 13.4419 -1.12608 8.57235 -3.06789 3.96251C5.63675 3.32745 14.1079 7.00907 20.5466 12.7418C23.3796 15.2655 25.8537 18.1583 28.0142 21.2891C27.9826 21.979 27.9304 22.6676 27.8613 23.353C27.4649 27.2326 26.4868 31.0245 26.1004 34.9047C25.7514 38.418 25.9917 41.9602 26.8674 45.3814C27.9775 49.7228 30.0041 53.7803 32.7892 57.2476C30.4043 60.108 28.3104 63.1975 26.5721 66.4946C18.9048 61.3338 12.011 55.0346 6.18708 47.8497C5.87524 47.4637 5.56518 47.0772 5.25894 46.6865C4.89101 46.2228 4.52727 45.7571 4.16824 45.2846C1.34257 41.5847 -1.25043 37.6543 -3.24819 33.4675ZM-18.3052 73.5928C-23.3228 68.7653 -28.2243 63.453 -31.4634 57.2369C-33.6861 52.9703 -35.0693 48.1426 -34.9862 43.349C-33.3262 43.1322 -32.0104 41.9765 -30.4435 41.4282C-28.6268 40.7914 -26.7261 41.3366 -24.9843 41.9451C-23.2957 42.5353 -21.6291 43.1347 -19.8936 43.5779C-12.5225 45.4594 -4.90378 45.183 2.581 46.2204C2.89728 46.2637 3.21259 46.3122 3.52712 46.3639C3.85743 46.7929 4.18908 47.2187 4.52152 47.6415C8.19083 52.2885 12.3058 56.5854 16.7752 60.4663C19.7135 63.0162 22.807 65.3754 26.0362 67.5343C24.464 70.6839 23.2171 74.013 22.3469 77.4966C21.8822 79.3605 21.5379 81.2443 21.3178 83.1439C20.8441 83.333 20.367 83.5211 19.8886 83.7046C19.5095 83.8536 19.1263 83.9989 18.7434 84.1392C16.8341 84.8513 14.896 85.489 12.9282 85.9563C7.04321 87.353 1.19894 86.4583 -4.22317 83.8809C-4.82627 83.5936 -5.42121 83.2902 -6.00747 82.9706C-6.35681 82.7838 -6.70151 82.5897 -7.0435 82.3898C-11.1665 79.9962 -14.8828 76.8853 -18.3052 73.5928ZM-42.8583 105.776C-43.1399 104.46 -42.6459 103.613 -41.2737 103.323C-40.2573 103.106 -39.2152 102.998 -38.1954 102.795C-36.3639 102.431 -34.5504 101.966 -32.7661 101.415C-25.3438 99.1136 -18.4171 95.1775 -12.6165 90.0143C-10.4996 88.1305 -8.5344 86.0823 -6.74376 83.8922C-1.3388 86.8713 4.61081 88.5447 10.9533 87.5407C13.8841 87.0775 16.7273 86.1458 19.5126 85.091C19.9154 85.5705 20.3281 86.0378 20.7556 86.4914C14.9801 92.0836 11.5834 99.874 9.30588 107.582C8.94721 108.793 8.6036 110.01 8.27368 111.229C3.58095 115.101 -2.40075 117.686 -7.99036 119.297C-16.7439 121.822 -26.8334 121.953 -34.4937 116.403C-37.2709 114.392 -39.5425 111.843 -41.5746 109.098C-42.1183 108.014 -42.6198 106.903 -42.8583 105.776Z" fill="black"/>
</svg>
