<svg width="24" height="24" viewBox="0 0 24 24" fill="none" xmlns="http://www.w3.org/2000/svg">
<path d="M17.8499 22.5H6.1499C3.6749 22.5 1.6499 20.475 1.6499 18V17.85L2.0999 5.85C2.1749 3.375 4.1999 1.5 6.5999 1.5H17.3999C19.7999 1.5 21.8249 3.375 21.8999 5.85L22.3499 17.85C22.4249 19.05 21.9749 20.175 21.1499 21.075C20.3249 21.975 19.1999 22.5 17.9999 22.5C17.9999 22.5 17.9249 22.5 17.8499 22.5ZM6.5999 3C4.9499 3 3.6749 4.275 3.5999 5.85L3.1499 18C3.1499 19.65 4.4999 21 6.1499 21H17.9999C18.8249 21 19.5749 20.625 20.0999 20.025C20.6249 19.425 20.9249 18.675 20.9249 17.85L20.4749 5.85C20.3999 4.2 19.1249 3 17.4749 3H6.5999Z" fill="black"/>
<path d="M12 10.5C9.075 10.5 6.75 8.175 6.75 5.25C6.75 4.8 7.05 4.5 7.5 4.5C7.95 4.5 8.25 4.8 8.25 5.25C8.25 7.35 9.9 9 12 9C14.1 9 15.75 7.35 15.75 5.25C15.75 4.8 16.05 4.5 16.5 4.5C16.95 4.5 17.25 4.8 17.25 5.25C17.25 8.175 14.925 10.5 12 10.5Z" fill="black"/>
</svg>
