<svg width="40" height="40" viewBox="0 0 40 40" fill="none" xmlns="http://www.w3.org/2000/svg">
<g clip-path="url(#clip0_42_226)">
<path d="M34.3423 31.0733C33.6644 31.0738 33.0017 30.8733 32.4378 30.497C31.874 30.1208 31.4344 29.5858 31.1746 28.9597C30.9149 28.3336 30.8467 27.6445 30.9786 26.9797C31.1106 26.3148 31.4367 25.704 31.9159 25.2245C32.395 24.745 33.0055 24.4184 33.6703 24.286C34.3351 24.1536 35.0242 24.2213 35.6505 24.4806C36.2768 24.7399 36.8121 25.1791 37.1887 25.7426C37.5654 26.3062 37.7664 26.9688 37.7664 27.6466C37.766 28.5549 37.4052 29.4258 36.7632 30.0683C36.1212 30.7107 35.2505 31.0722 34.3423 31.0733ZM34.3423 25.47C33.9116 25.4695 33.4906 25.5967 33.1323 25.8356C32.774 26.0745 32.4946 26.4142 32.3295 26.8119C32.1644 27.2096 32.1209 27.6474 32.2046 28.0698C32.2883 28.4921 32.4954 28.8802 32.7997 29.1849C33.104 29.4896 33.4919 29.6971 33.9142 29.7813C34.3365 29.8655 34.7743 29.8225 35.1722 29.6579C35.57 29.4932 35.9101 29.2142 36.1494 28.8562C36.3887 28.4982 36.5164 28.0772 36.5164 27.6466C36.5162 27.0698 36.2871 26.5167 35.8795 26.1086C35.4719 25.7005 34.919 25.4709 34.3423 25.47Z" fill="black"/>
<path d="M16.2855 31.0733C15.6076 31.074 14.9448 30.8736 14.3808 30.4974C13.8169 30.1213 13.3771 29.5864 13.1173 28.9603C12.8574 28.3342 12.7891 27.6451 12.9209 26.9802C13.0527 26.3152 13.3788 25.7044 13.8579 25.2248C14.337 24.7452 14.9476 24.4185 15.6124 24.2861C16.2772 24.1536 16.9664 24.2212 17.5927 24.4805C18.219 24.7398 18.7544 25.179 19.1311 25.7425C19.5077 26.3061 19.7088 26.9688 19.7088 27.6466C19.7081 28.5547 19.3474 29.4254 18.7056 30.0677C18.0638 30.7101 17.1935 31.0718 16.2855 31.0733ZM16.2855 25.47C15.8548 25.4693 15.4337 25.5964 15.0753 25.8352C14.7169 26.074 14.4374 26.4137 14.2721 26.8114C14.1069 27.209 14.0633 27.6468 14.1469 28.0692C14.2305 28.4917 14.4375 28.8798 14.7418 29.1846C15.0461 29.4893 15.4339 29.697 15.8563 29.7812C16.2786 29.8655 16.7164 29.8226 17.1143 29.6579C17.5123 29.4933 17.8524 29.2143 18.0917 28.8563C18.3311 28.4983 18.4588 28.0773 18.4588 27.6466C18.4584 27.0701 18.2294 26.5172 17.822 26.1092C17.4146 25.7012 16.862 25.4713 16.2855 25.47Z" fill="black"/>
<path d="M38.8507 28.2716H37.1415C36.9757 28.2716 36.8168 28.2058 36.6996 28.0886C36.5823 27.9714 36.5165 27.8124 36.5165 27.6466C36.5165 27.4809 36.5823 27.3219 36.6996 27.2047C36.8168 27.0875 36.9757 27.0216 37.1415 27.0216H38.674V23.7075C38.6736 23.2594 38.5589 22.8188 38.3407 22.4275L34.9573 16.3616C34.9284 16.3099 34.8862 16.2667 34.8351 16.2367C34.784 16.2067 34.7258 16.1908 34.6665 16.1908H30.0557V27.0241H31.544C31.7098 27.0241 31.8687 27.09 31.9859 27.2072C32.1031 27.3244 32.169 27.4834 32.169 27.6491C32.169 27.8149 32.1031 27.9739 31.9859 28.0911C31.8687 28.2083 31.7098 28.2741 31.544 28.2741H29.4307C29.2649 28.2741 29.1059 28.2083 28.9887 28.0911C28.8715 27.9739 28.8057 27.8149 28.8057 27.6491V15.5658C28.8057 15.4 28.8715 15.2411 28.9887 15.1239C29.1059 15.0066 29.2649 14.9408 29.4307 14.9408H34.6665C34.9485 14.9407 35.2253 15.0158 35.4685 15.1585C35.7117 15.3012 35.9124 15.5063 36.0498 15.7525L39.4323 21.8191C39.7539 22.3966 39.9228 23.0465 39.9232 23.7075V27.1991C39.9227 27.4834 39.8096 27.756 39.6085 27.957C39.4075 28.1581 39.135 28.2712 38.8507 28.2716Z" fill="black"/>
<path d="M13.4857 28.2716H7.49316C7.3274 28.2716 7.16843 28.2058 7.05122 28.0886C6.93401 27.9714 6.86816 27.8124 6.86816 27.6466V22.84C6.86816 22.6742 6.93401 22.5152 7.05122 22.398C7.16843 22.2808 7.3274 22.215 7.49316 22.215C7.65892 22.215 7.8179 22.2808 7.93511 22.398C8.05232 22.5152 8.11816 22.6742 8.11816 22.84V27.0216H13.4857C13.6514 27.0216 13.8104 27.0875 13.9276 27.2047C14.0448 27.3219 14.1107 27.4809 14.1107 27.6466C14.1107 27.8124 14.0448 27.9714 13.9276 28.0886C13.8104 28.2058 13.6514 28.2716 13.4857 28.2716Z" fill="black"/>
<path d="M7.49316 20.6224C7.3274 20.6224 7.16843 20.5566 7.05122 20.4394C6.93401 20.3222 6.86816 20.1632 6.86816 19.9974V15.8008C6.86816 15.635 6.93401 15.476 7.05122 15.3588C7.16843 15.2416 7.3274 15.1758 7.49316 15.1758C7.65892 15.1758 7.8179 15.2416 7.93511 15.3588C8.05232 15.476 8.11816 15.635 8.11816 15.8008V19.9999C8.1175 20.1653 8.05136 20.3236 7.93422 20.4403C7.81709 20.5569 7.65849 20.6224 7.49316 20.6224Z" fill="black"/>
<path d="M29.4307 28.2716H19.0832C18.9174 28.2716 18.7584 28.2058 18.6412 28.0886C18.524 27.9713 18.4582 27.8124 18.4582 27.6466C18.4582 27.4808 18.524 27.3219 18.6412 27.2047C18.7584 27.0875 18.9174 27.0216 19.0832 27.0216H28.8057V10.6708H8.11816V13.2449C8.11816 13.4107 8.05232 13.5697 7.93511 13.6869C7.8179 13.8041 7.65892 13.8699 7.49316 13.8699C7.3274 13.8699 7.16843 13.8041 7.05122 13.6869C6.93401 13.5697 6.86816 13.4107 6.86816 13.2449V10.5558C6.86861 10.2547 6.98844 9.96619 7.20138 9.7534C7.41432 9.54062 7.70297 9.421 8.004 9.42078H28.9207C29.2215 9.42122 29.51 9.54094 29.7227 9.7537C29.9355 9.96646 30.0552 10.2549 30.0557 10.5558V27.6466C30.0557 27.8124 29.9898 27.9713 29.8726 28.0886C29.7554 28.2058 29.5964 28.2716 29.4307 28.2716Z" fill="black"/>
<path d="M9.96375 23.4651H2.03125C1.86549 23.4651 1.70652 23.3992 1.58931 23.282C1.4721 23.1648 1.40625 23.0058 1.40625 22.8401C1.40625 22.6743 1.4721 22.5154 1.58931 22.3981C1.70652 22.2809 1.86549 22.2151 2.03125 22.2151H9.96375C10.1295 22.2151 10.2885 22.2809 10.4057 22.3981C10.5229 22.5154 10.5887 22.6743 10.5887 22.8401C10.5887 23.0058 10.5229 23.1648 10.4057 23.282C10.2885 23.3992 10.1295 23.4651 9.96375 23.4651Z" fill="black"/>
<path d="M16.285 20.6226H5.21582C5.05006 20.6226 4.89109 20.5567 4.77388 20.4395C4.65667 20.3223 4.59082 20.1633 4.59082 19.9976C4.59082 19.8318 4.65667 19.6728 4.77388 19.5556C4.89109 19.4384 5.05006 19.3726 5.21582 19.3726H16.285C16.4507 19.3726 16.6097 19.4384 16.7269 19.5556C16.8441 19.6728 16.91 19.8318 16.91 19.9976C16.91 20.1633 16.8441 20.3223 16.7269 20.4395C16.6097 20.5567 16.4507 20.6226 16.285 20.6226Z" fill="black"/>
<path d="M4.87133 17.3225H0.548828C0.383068 17.3225 0.224097 17.2567 0.106886 17.1395C-0.0103239 17.0222 -0.0761719 16.8633 -0.0761719 16.6975C-0.0761719 16.5317 -0.0103239 16.3728 0.106886 16.2556C0.224097 16.1384 0.383068 16.0725 0.548828 16.0725H4.87133C5.03709 16.0725 5.19606 16.1384 5.31327 16.2556C5.43048 16.3728 5.49633 16.5317 5.49633 16.6975C5.49633 16.8633 5.43048 17.0222 5.31327 17.1395C5.19606 17.2567 5.03709 17.3225 4.87133 17.3225Z" fill="black"/>
<path d="M11.8029 13.87H4.17285C4.00709 13.87 3.84812 13.8041 3.73091 13.6869C3.6137 13.5697 3.54785 13.4108 3.54785 13.245C3.54785 13.0792 3.6137 12.9203 3.73091 12.8031C3.84812 12.6858 4.00709 12.62 4.17285 12.62H11.8029C11.9686 12.62 12.1276 12.6858 12.2448 12.8031C12.362 12.9203 12.4279 13.0792 12.4279 13.245C12.4279 13.4108 12.362 13.5697 12.2448 13.6869C12.1276 13.8041 11.9686 13.87 11.8029 13.87Z" fill="black"/>
</g>
<defs>
<clipPath id="clip0_42_226">
<rect width="40" height="40" fill="white"/>
</clipPath>
</defs>
</svg>
