<svg width="40" height="40" viewBox="0 0 40 40" fill="none" xmlns="http://www.w3.org/2000/svg">
<path d="M4.18359 7.94995V20.6666C4.18359 33.1416 19.0586 39.2666 19.6919 39.5166C19.7919 39.5583 19.9003 39.575 20.0003 39.575C20.1003 39.575 20.2086 39.5583 20.3086 39.5166C20.9419 39.2583 35.8169 33.1333 35.8169 20.6666V7.94995C35.8169 7.51662 35.4836 7.15829 35.0586 7.11662C34.9836 7.10828 27.7336 6.39995 20.5253 0.599951C20.2169 0.358285 19.7836 0.358285 19.4836 0.599951C12.2919 6.38329 5.01693 7.10828 4.94193 7.11662C4.51693 7.15829 4.18359 7.51662 4.18359 7.94995ZM5.85026 8.67495C7.92526 8.34995 13.8836 7.04162 20.0003 2.30828C26.1169 7.04162 32.0753 8.34995 34.1503 8.67495V20.6666C34.1503 31.0666 22.1086 36.9 20.0003 37.8416C17.8919 36.9 5.85026 31.075 5.85026 20.6666V8.67495Z" fill="black"/>
<path d="M17.4831 24.375C17.6497 24.5417 17.8581 24.6167 18.0747 24.6167C18.2914 24.6167 18.4997 24.5334 18.6664 24.375L28.1664 14.875C28.4914 14.55 28.4914 14.025 28.1664 13.7C27.8414 13.375 27.3164 13.375 26.9914 13.7L18.0747 22.6084L13.0164 17.55C12.6914 17.225 12.1664 17.225 11.8414 17.55C11.5164 17.875 11.5164 18.4 11.8414 18.725L17.4831 24.375Z" fill="black"/>
</svg>
