<svg width="28" height="28" viewBox="0 0 28 28" fill="none" xmlns="http://www.w3.org/2000/svg">
<path d="M17.0981 5.96957C18.3115 6.20632 19.4267 6.79978 20.3009 7.67399C21.1751 8.54821 21.7686 9.6634 22.0053 10.8768M17.0981 1.00018C19.6191 1.28025 21.97 2.40922 23.7648 4.20172C25.5596 5.99422 26.6915 8.34371 26.9747 10.8644M25.7324 20.7784V24.5054C25.7338 24.8514 25.6629 25.1939 25.5243 25.5109C25.3857 25.8279 25.1824 26.1125 24.9274 26.3464C24.6725 26.5803 24.3715 26.7584 24.0437 26.8692C23.7159 26.9801 23.3686 27.0212 23.0241 26.9901C19.2011 26.5747 15.529 25.2684 12.3026 23.1761C9.30087 21.2687 6.75593 18.7237 4.84851 15.722C2.74891 12.481 1.44229 8.79094 1.0345 4.95085C1.00345 4.6073 1.04428 4.26105 1.15438 3.93414C1.26449 3.60724 1.44145 3.30684 1.67402 3.05207C1.90658 2.7973 2.18964 2.59375 2.50518 2.45438C2.82072 2.315 3.16182 2.24286 3.50677 2.24253H7.23381C7.83673 2.2366 8.42124 2.4501 8.87839 2.84325C9.33553 3.23639 9.63413 3.78235 9.71851 4.37937C9.87582 5.57211 10.1676 6.74322 10.5882 7.87037C10.7553 8.31503 10.7915 8.79829 10.6924 9.26289C10.5933 9.72748 10.3631 10.1539 10.0291 10.4917L8.45131 12.0695C10.2199 15.1798 12.7951 17.755 15.9054 19.5236L17.4832 17.9458C17.821 17.6118 18.2474 17.3816 18.712 17.2825C19.1766 17.1834 19.6599 17.2196 20.1045 17.3867C21.2317 17.8073 22.4028 18.0991 23.5955 18.2564C24.199 18.3415 24.7502 18.6455 25.1442 19.1105C25.5381 19.5755 25.7475 20.1691 25.7324 20.7784Z" stroke="#F6F6F6" stroke-width="2" stroke-linecap="round" stroke-linejoin="round"/>
</svg>
