<svg width="244" height="175" viewBox="0 0 244 175" fill="none" xmlns="http://www.w3.org/2000/svg">
<path d="M209.181 88.0546C209.044 87.7049 208.531 87.9861 208.668 88.3337C208.824 88.7248 208.979 89.1188 209.133 89.5102C209.273 89.8597 209.786 89.5758 209.646 89.229C209.492 88.8374 209.338 88.4457 209.181 88.0546Z" fill="black"/>
<path d="M201.226 79.7542C199.449 78.5315 197.034 76.6537 194.748 76.9394C194.375 76.9861 194.511 77.5551 194.882 77.509C196.222 77.3416 197.479 78.1526 198.6 78.7954C199.619 79.3786 200.607 80.0146 201.558 80.7001C203.496 82.1008 205.26 83.7132 206.863 85.4862C207.114 85.7663 207.539 85.3641 207.286 85.0842C205.478 83.0807 203.454 81.2841 201.226 79.7542Z" fill="black"/>
<path d="M191.055 75.6157C190.164 75.4017 189.268 75.4241 188.393 75.7011C188.035 75.8139 188.166 76.3839 188.527 76.2706C189.303 76.0239 190.089 75.9836 190.883 76.1749C191.25 76.2622 191.422 75.705 191.055 75.6157Z" fill="black"/>
<path d="M185.344 75.6515C185.185 75.6887 185.026 75.7264 184.864 75.7641C184.499 75.8497 184.631 76.4195 184.998 76.3336C185.159 76.2956 185.319 76.2585 185.478 76.221C185.844 76.1351 185.711 75.5653 185.344 75.6515Z" fill="black"/>
<path d="M189.923 84.1475C189.069 83.7735 188.157 83.6027 187.224 83.6433C186.851 83.6612 186.827 84.2458 187.203 84.23C188.09 84.1904 188.938 84.3499 189.752 84.707C190.097 84.8588 190.266 84.2977 189.923 84.1475Z" fill="black"/>
<path d="M184.709 83.6248C184.344 83.7105 184.476 84.2803 184.843 84.1944C185.209 84.1085 185.078 83.5384 184.709 83.6248Z" fill="black"/>
<path d="M172.645 40.926C172.625 40.8372 172.604 40.7505 172.583 40.6616C172.498 40.2948 171.928 40.4284 172.014 40.7953C172.035 40.8841 172.055 40.9708 172.076 41.0596C172.161 41.4241 172.731 41.2928 172.645 40.926Z" fill="black"/>
<path d="M181.316 75.6585C179.218 76.2823 177.095 76.8039 174.944 77.2237C174.577 77.2957 174.71 77.8649 175.078 77.7933C177.229 77.3734 179.351 76.8519 181.449 76.228C181.809 76.1197 181.677 75.5499 181.316 75.6585Z" fill="black"/>
<path d="M189.256 141.073C189.317 141.444 189.886 141.31 189.826 140.94C189.436 138.63 188.813 136.393 187.963 134.213C187.828 133.862 187.315 134.143 187.45 134.492C188.28 136.623 188.876 138.817 189.256 141.073Z" fill="black"/>
<path d="M190.689 148.326C190.708 148.406 190.726 148.486 190.745 148.565C190.831 148.932 191.401 148.799 191.315 148.432C191.296 148.352 191.278 148.272 191.259 148.193C191.173 147.826 190.603 147.96 190.689 148.326Z" fill="black"/>
<path d="M189.509 143.29C189.528 143.37 189.546 143.449 189.565 143.529C189.651 143.896 190.22 143.762 190.134 143.395C190.116 143.315 190.097 143.236 190.078 143.156C189.992 142.79 189.423 142.923 189.509 143.29Z" fill="black"/>
<path d="M185.488 141.731C185.645 142.4 185.802 143.07 185.959 143.74C186.045 144.107 186.615 143.973 186.529 143.606C186.372 142.936 186.215 142.266 186.058 141.597C185.972 141.231 185.402 141.362 185.488 141.731Z" fill="black"/>
<path d="M172.771 91.0915C173.138 91.0056 173.004 90.4361 172.637 90.522C171.997 90.6719 171.357 90.8219 170.717 90.9721C170.353 91.0578 170.484 91.6276 170.851 91.5417C171.491 91.3914 172.131 91.2415 172.771 91.0915Z" fill="black"/>
<path d="M160.407 47.3341C163.012 45.3155 165.863 43.6886 168.919 42.4557C169.266 42.3168 168.984 41.8034 168.638 41.9426C165.533 43.1939 162.65 44.8596 160.004 46.9095C159.707 47.1398 160.111 47.5618 160.407 47.3341Z" fill="black"/>
<path d="M175.182 100.949C174.263 101.498 173.297 101.912 172.262 102.188C171.9 102.285 172.031 102.855 172.395 102.758C173.479 102.468 174.5 102.039 175.463 101.462C175.783 101.269 175.506 100.755 175.182 100.949Z" fill="black"/>
<path d="M172.754 115.712C173.91 116.71 175.065 117.711 176.222 118.709C176.503 118.953 176.93 118.552 176.644 118.307C175.489 117.306 174.335 116.308 173.179 115.31C172.898 115.066 172.47 115.464 172.754 115.712Z" fill="black"/>
<path d="M182.711 83.3167C174.364 83.5689 166.173 85.5176 158.609 89.0513C158.267 89.2107 158.548 89.7239 158.888 89.565C166.357 86.0774 174.451 84.1519 182.687 83.9015C183.062 83.8904 183.086 83.3056 182.711 83.3167Z" fill="black"/>
<path d="M160.899 64.5012C160.739 64.4525 160.59 64.5471 160.534 64.6949C160.415 64.997 160.298 65.2982 160.178 65.6C160.122 65.7478 160.23 65.9218 160.373 65.9676C160.533 66.0164 160.681 65.9194 160.738 65.7739C160.857 65.4719 160.974 65.1685 161.093 64.8665C161.15 64.721 161.042 64.5468 160.899 64.5012Z" fill="black"/>
<path d="M170.591 113.108C170.958 113.022 170.824 112.452 170.457 112.538C170.09 112.624 170.224 113.193 170.591 113.108Z" fill="black"/>
<path d="M167.297 110.948C167.569 111.206 167.996 110.803 167.72 110.546C167.504 110.344 167.289 110.142 167.073 109.938C166.799 109.683 166.371 110.083 166.648 110.34C166.864 110.544 167.079 110.746 167.297 110.948Z" fill="black"/>
<path d="M168.31 118.263C168 118.047 167.693 118.544 168.001 118.76C171.587 121.253 174.882 124.138 177.802 127.388C180.851 130.782 184.271 134.816 184.631 139.559C184.66 139.93 185.243 139.956 185.215 139.581C184.862 134.906 181.735 130.996 178.762 127.591C175.681 124.06 172.157 120.939 168.31 118.263Z" fill="black"/>
<path d="M166.292 122.203C165.974 122.002 165.665 122.499 165.983 122.701C169.418 124.869 172.285 127.749 174.431 131.196C174.63 131.513 175.144 131.236 174.944 130.915C172.747 127.383 169.809 124.424 166.292 122.203Z" fill="black"/>
<path d="M155.653 65.1012C157.537 57.3831 164.701 52.6452 168.376 45.8941C168.557 45.5657 168.061 45.2541 167.879 45.5875C164.177 52.3832 156.992 57.148 155.093 64.9294C155.003 65.2941 155.562 65.466 155.653 65.1012Z" fill="black"/>
<path d="M153.549 70.0204C154.18 69.2864 154.525 68.3908 154.516 67.4196C154.512 67.0433 153.927 67.0193 153.931 67.3956C153.939 68.2084 153.675 68.9791 153.144 69.596C152.903 69.8786 153.301 70.3066 153.549 70.0204Z" fill="black"/>
<path d="M166.289 91.5122C162.805 92.2709 159.523 93.6264 156.523 95.5527C156.208 95.754 156.485 96.2706 156.803 96.0664C159.763 94.1664 162.987 92.8294 166.423 92.0817C166.791 92.0026 166.658 91.4331 166.289 91.5122Z" fill="black"/>
<path d="M160.614 117.805C160.299 117.6 159.99 118.098 160.305 118.303C161.58 119.139 162.852 119.972 164.126 120.808C164.442 121.015 164.748 120.518 164.433 120.311C163.161 119.477 161.889 118.641 160.614 117.805Z" fill="black"/>
<path d="M151.301 82.2094C150.929 82.2608 151.064 82.8295 151.435 82.7789C152.605 82.6129 153.137 81.623 153.652 80.6637C154.404 79.2547 155.116 77.8239 155.8 76.3828C157.115 73.6065 158.308 70.7726 159.386 67.8959C159.519 67.5427 158.961 67.373 158.829 67.7238C157.869 70.2821 156.822 72.808 155.673 75.2859C155.154 76.4047 154.614 77.5166 154.057 78.6156C153.473 79.7657 152.737 82.0075 151.301 82.2094Z" fill="black"/>
<path d="M155.004 91.0065C154.456 91.385 153.907 91.7611 153.357 92.1398C153.051 92.3509 153.327 92.8651 153.638 92.653C154.186 92.2745 154.735 91.8984 155.285 91.5197C155.592 91.3109 155.317 90.7939 155.004 91.0065Z" fill="black"/>
<path d="M153.042 95.7176C152.514 96.1416 151.888 96.4015 151.213 96.4637C150.841 96.4979 150.815 97.083 151.189 97.0485C152.035 96.9702 152.781 96.6753 153.444 96.1427C153.737 95.9052 153.335 95.483 153.042 95.7176Z" fill="black"/>
<path d="M153.657 112.443C153.29 112.529 153.424 113.098 153.791 113.012C153.857 112.997 153.925 112.981 153.991 112.965C154.358 112.879 154.226 112.309 153.857 112.396C153.792 112.411 153.723 112.427 153.657 112.443Z" fill="black"/>
<path d="M139.798 64.4189C139.655 63.8109 139.513 63.2023 139.371 62.5964C139.285 62.2295 138.715 62.3632 138.801 62.73C138.943 63.3359 139.086 63.9442 139.228 64.5525C139.315 64.9191 139.884 64.7857 139.798 64.4189Z" fill="black"/>
<path d="M161.137 139.478C159.341 139.529 157.666 138.994 156.229 137.92C155.926 137.693 155.621 138.192 155.92 138.415C157.43 139.547 159.228 140.115 161.115 140.062C161.49 140.052 161.514 139.467 161.137 139.478Z" fill="black"/>
<path d="M141.786 74.5747C144.227 69.4441 146.773 64.3612 149.42 59.3337C149.595 59.0021 149.099 58.6904 148.922 59.0251C146.275 64.055 143.732 69.1352 141.289 74.266C141.127 74.6018 141.624 74.9154 141.786 74.5747Z" fill="black"/>
<path d="M154.392 127.65C154.172 127.569 154.021 127.388 153.968 127.163C153.885 126.796 153.315 126.927 153.399 127.297C153.497 127.725 153.806 128.061 154.22 128.207C154.577 128.334 154.746 127.774 154.392 127.65Z" fill="black"/>
<path d="M140.172 76.9763C139.838 77.3163 139.698 77.8057 139.833 78.269C139.937 78.6293 140.507 78.4981 140.403 78.1354C140.326 77.87 140.379 77.6004 140.574 77.4009C140.838 77.1323 140.438 76.7069 140.172 76.9763Z" fill="black"/>
<path d="M144.705 106.286C151.292 104.043 158.643 104.894 164.535 108.603C164.853 108.802 165.162 108.307 164.843 108.105C158.833 104.321 151.297 103.427 144.572 105.716C144.22 105.837 144.349 106.408 144.705 106.286Z" fill="black"/>
<path d="M151.037 111.639C149.338 110.951 147.587 110.443 145.782 110.114C145.416 110.048 145.242 110.606 145.61 110.673C147.416 111.002 149.166 111.51 150.865 112.198C151.216 112.339 151.385 111.781 151.037 111.639Z" fill="black"/>
<path d="M151.521 145.882C154.623 151.571 156.198 157.933 156.106 164.413C156.101 164.79 156.685 164.811 156.69 164.435C156.783 157.856 155.183 151.379 152.034 145.6C151.853 145.271 151.34 145.55 151.521 145.882Z" fill="black"/>
<path d="M143.557 106.793C143.924 106.707 143.79 106.138 143.423 106.223C143.057 106.309 143.19 106.879 143.557 106.793Z" fill="black"/>
<path d="M138.883 81.9038C137.967 83.6467 137.382 85.495 137.125 87.4463C137.076 87.8208 137.66 87.84 137.71 87.4703C137.953 85.618 138.511 83.8654 139.378 82.2132C139.552 81.879 139.057 81.5701 138.883 81.9038Z" fill="black"/>
<path d="M152.612 124.727C150.86 122.708 148.997 120.789 147.017 118.992C145.482 117.6 143.834 115.902 141.736 115.459C141.369 115.382 141.195 115.939 141.564 116.019C143.809 116.492 145.612 118.473 147.232 119.982C148.977 121.606 150.624 123.33 152.187 125.129C152.434 125.415 152.859 125.012 152.612 124.727Z" fill="black"/>
<path d="M130.513 60.986C129.323 54.5651 129.065 48.0272 129.734 41.5288C129.773 41.1542 129.187 41.1332 129.15 41.5071C128.475 48.0548 128.744 54.6481 129.944 61.1196C130.012 61.4905 130.581 61.3568 130.513 60.986Z" fill="black"/>
<path d="M130.964 63.7615C130.908 63.2943 130.851 62.827 130.797 62.3589C130.75 61.9855 130.181 62.1233 130.227 62.4925C130.281 62.9606 130.338 63.4279 130.395 63.8952C130.439 64.2691 131.007 64.131 130.964 63.7615Z" fill="black"/>
<path d="M138.879 98.0152C139.224 98.1651 139.392 97.604 139.052 97.4554C138.772 97.3336 138.618 97.0479 138.618 96.7594C139.017 96.8629 139.419 96.9681 139.819 97.074C140.182 97.1692 140.354 96.612 139.99 96.5148C139.483 96.3814 138.976 96.2478 138.467 96.115C138.311 96.0746 138.156 96.154 138.101 96.3087C137.859 96.9997 138.225 97.7284 138.879 98.0152Z" fill="black"/>
<path d="M131.52 67.6084C131.673 67.5246 131.694 67.3585 131.636 67.2109C131.547 66.9843 131.535 66.7276 131.59 66.4912C131.677 66.127 131.118 65.953 131.033 66.3188C130.935 66.7236 130.97 67.1074 131.123 67.4919C131.181 67.6376 131.394 67.6764 131.52 67.6084Z" fill="black"/>
<path d="M138.746 101.313C138.69 101.329 138.634 101.344 138.579 101.36C138.634 101.361 138.696 101.349 138.759 101.328C139.56 102.202 140.866 103.222 141.509 102.296C141.725 101.986 141.227 101.678 141.013 101.987C140.659 102.495 139.059 100.796 138.861 100.543C138.382 99.9268 139.194 100.006 139.598 100.06C140.085 100.126 140.557 100.254 141.017 100.414C141.374 100.54 141.545 99.9808 141.19 99.8572C140.469 99.6032 139.461 99.289 138.686 99.449C138.093 99.5715 137.85 100.056 138.17 100.579C138.279 100.758 138.485 101.027 138.746 101.313Z" fill="black"/>
<path d="M139.015 106.38C138.97 106.416 138.926 106.453 138.883 106.492C138.76 106.593 138.766 106.796 138.871 106.906C138.986 107.026 139.162 107.018 139.285 106.915C139.329 106.878 139.373 106.841 139.417 106.804C139.54 106.703 139.534 106.501 139.428 106.391C139.314 106.271 139.138 106.279 139.015 106.38Z" fill="black"/>
<path d="M155.588 166.551C155.544 167.984 154.805 169.167 154.293 170.467C153.815 171.677 153.709 172.867 153.974 174.141C154.051 174.51 154.62 174.377 154.543 174.008C153.958 171.194 156.09 169.257 156.173 166.573C156.185 166.198 155.601 166.174 155.588 166.551Z" fill="black"/>
<path d="M135.311 93.7015C135.336 93.6955 135.361 93.69 135.386 93.6839C135.753 93.598 135.621 93.0279 135.252 93.1144C135.227 93.1204 135.202 93.126 135.177 93.132C134.81 93.2179 134.944 93.7875 135.311 93.7015Z" fill="black"/>
<path d="M136.226 97.4857C135.75 96.9172 135.445 96.2535 135.337 95.5264C135.744 95.5488 136.116 95.6803 136.468 95.922C136.78 96.1347 137.086 95.6379 136.777 95.4242C136.252 95.0639 135.658 94.8957 135.022 94.9416C134.88 94.9508 134.707 95.0515 134.72 95.2215C134.799 96.2243 135.155 97.1167 135.802 97.8878C136.045 98.177 136.467 97.775 136.226 97.4857Z" fill="black"/>
<path d="M144.655 136.191C144.169 135.203 143.684 134.211 143.198 133.222C143.032 132.883 142.518 133.164 142.684 133.503C143.171 134.492 143.655 135.481 144.142 136.47C144.307 136.809 144.821 136.53 144.655 136.191Z" fill="black"/>
<path d="M126.861 66.6478C126.329 63.8313 125.993 60.9925 125.853 58.1298C125.835 57.7566 125.25 57.7303 125.269 58.108C125.411 61.0207 125.75 63.914 126.292 66.7809C126.362 67.1518 126.931 67.0184 126.861 66.6478Z" fill="black"/>
<path d="M127.22 70.7308C127.481 71.8445 127.741 72.9565 128.002 74.0702C128.088 74.4371 128.658 74.3035 128.572 73.9366C128.311 72.8228 128.05 71.7109 127.789 70.5971C127.703 70.2305 127.134 70.3642 127.22 70.7308Z" fill="black"/>
<path d="M144.082 148.677C146.682 153.124 147.606 158.341 146.661 163.404C146.594 163.771 147.152 163.948 147.221 163.578C148.195 158.354 147.279 152.987 144.596 148.398C144.408 148.075 143.891 148.352 144.082 148.677Z" fill="black"/>
<path d="M133.564 102.192C133.227 102.838 134.154 103.253 134.569 103.476C135.633 104.048 136.694 104.619 137.758 105.189C138.088 105.367 138.399 104.871 138.067 104.691C137.33 104.297 136.594 103.902 135.859 103.507C135.449 103.286 135.035 103.075 134.633 102.848C134.242 102.627 133.924 102.396 134.608 102.353C135.441 102.305 135.995 102.723 136.617 103.204C136.99 103.492 137.343 103.664 137.813 103.556C138.18 103.475 138.047 102.905 137.679 102.987C137.179 103.101 136.797 102.564 136.438 102.307C136.098 102.065 135.713 101.898 135.302 101.816C134.811 101.72 133.848 101.65 133.564 102.192Z" fill="black"/>
<path d="M122.409 53.4866C122.45 53.4241 122.488 53.3601 122.526 53.2982C122.725 52.9777 122.227 52.6688 122.028 52.9895C121.991 53.0536 121.952 53.1155 121.914 53.1774C121.715 53.4979 122.211 53.8071 122.409 53.4866Z" fill="black"/>
<path d="M132.314 94.6729C132.561 94.9586 132.986 94.5564 132.738 94.2707C132.442 93.9292 131.421 92.6161 131.824 92.1926C132.019 91.9905 132.094 92.103 132.267 92.2712C132.373 92.3716 132.457 92.4936 132.556 92.6001C132.728 92.7832 132.903 92.9032 133.134 93.0052C133.477 93.1556 133.646 92.5945 133.306 92.4459C132.823 92.2321 132.656 91.6515 132.121 91.4931C131.785 91.3941 131.385 91.4494 131.188 91.7673C130.949 92.1549 131.177 92.6831 131.323 93.0621C131.557 93.6582 131.896 94.1917 132.314 94.6729Z" fill="black"/>
<path d="M133.627 99.8875C133.098 98.7355 132.63 97.5619 132.22 96.3627C133.287 96.9489 133.397 98.9463 134.328 99.7186C134.614 99.9565 135.042 99.5559 134.753 99.3164C133.566 98.3331 133.709 96.1556 132.088 95.6896C131.99 95.6598 131.884 95.6367 131.772 95.6222C131.593 95.5966 131.422 95.8098 131.476 95.9798C131.941 97.4091 132.486 98.8022 133.111 100.167C133.268 100.51 133.781 100.229 133.627 99.8875Z" fill="black"/>
<path d="M136.742 108.565C135.812 108.462 134.493 107.081 133.646 108.214C133.333 108.631 133.456 109.155 133.631 109.605C133.952 110.423 134.417 111.184 134.931 111.893C135.15 112.192 135.667 111.917 135.447 111.613C135.146 111.201 134.869 110.778 134.625 110.331C134.503 110.107 134.385 109.88 134.285 109.649C134.202 109.476 134.131 109.298 134.076 109.114C133.952 108.862 134.024 108.688 134.297 108.591C134.625 108.322 134.793 108.362 135.163 108.525C135.364 108.613 135.548 108.733 135.74 108.834C136.061 109.002 136.358 109.11 136.718 109.151C137.092 109.19 137.114 108.605 136.742 108.565Z" fill="black"/>
<path d="M141.993 143.013C142.081 143.377 142.651 143.246 142.563 142.879C141.493 138.406 140.362 133.889 137.882 129.959C137.681 129.644 137.166 129.92 137.368 130.238C139.825 134.128 140.935 138.587 141.993 143.013Z" fill="black"/>
<path d="M132.622 105.289C132.378 105.981 132.743 106.71 133.399 106.996C133.744 107.146 133.911 106.585 133.571 106.437C133.29 106.315 133.139 106.031 133.137 105.741C133.538 105.844 133.938 105.949 134.337 106.055C134.701 106.153 134.875 105.593 134.51 105.498C134.003 105.365 133.495 105.229 132.988 105.095C132.829 105.056 132.675 105.136 132.622 105.289Z" fill="black"/>
<path d="M121.306 57.3738C121.259 56.926 121.321 56.4814 121.466 56.0555C121.589 55.6976 121.03 55.5282 120.907 55.8837C120.726 56.414 120.677 56.954 120.737 57.5072C120.777 57.8822 121.345 57.7444 121.306 57.3738Z" fill="black"/>
<path d="M131.067 101.792C131.049 101.825 131.029 101.856 131.01 101.887C130.811 102.208 131.306 102.517 131.505 102.197C131.526 102.163 131.545 102.132 131.565 102.101C131.763 101.78 131.266 101.472 131.067 101.792Z" fill="black"/>
<path d="M146.317 165.71C145.997 166.232 145.81 166.805 145.751 167.414C145.714 167.791 146.298 167.81 146.335 167.436C146.385 166.93 146.549 166.454 146.815 166.019C147.011 165.697 146.516 165.388 146.317 165.71Z" fill="black"/>
<path d="M128.755 93.0751C129.122 92.9891 128.99 92.4191 128.621 92.5055C128.257 92.5909 128.388 93.161 128.755 93.0751Z" fill="black"/>
<path d="M136.066 127.648C136.167 127.771 136.37 127.764 136.48 127.659C136.6 127.544 136.592 127.368 136.491 127.246C136.422 127.163 136.354 127.081 136.284 126.999C136.184 126.878 135.981 126.885 135.871 126.987C135.751 127.102 135.759 127.28 135.86 127.401C135.929 127.483 135.997 127.565 136.066 127.648Z" fill="black"/>
<path d="M143.004 156.995C142.686 154.799 142.097 152.685 141.242 150.638C141.098 150.29 140.586 150.574 140.729 150.918C141.563 152.919 142.124 154.983 142.434 157.129C142.488 157.501 143.057 157.365 143.004 156.995Z" fill="black"/>
<path d="M128.252 95.2958C128.61 96.3413 129.152 97.2814 129.885 98.1116C130.135 98.3918 130.558 97.9899 130.309 97.7094C129.75 97.0764 129.31 96.3769 128.992 95.6055C129.414 95.7059 129.806 95.8785 130.183 96.1242C130.5 96.3284 130.809 95.8308 130.491 95.6263C129.894 95.2402 129.253 95.0178 128.546 94.9358C128.369 94.9147 128.192 95.1221 128.252 95.2958Z" fill="black"/>
<path d="M140.753 147.895C140.546 147.3 140.279 146.745 139.933 146.22C139.728 145.908 139.211 146.185 139.419 146.499C139.736 146.978 139.997 147.486 140.184 148.029C140.307 148.38 140.877 148.251 140.753 147.895Z" fill="black"/>
<path d="M130.961 99.4452C131.262 99.6726 131.568 99.1732 131.27 98.9476C130.501 98.3612 129.509 98.2719 128.627 98.649C128.544 98.6854 128.468 98.8037 128.475 98.8936C128.531 99.7285 128.789 100.5 129.276 101.184C129.49 101.484 130.008 101.209 129.789 100.902C129.4 100.359 129.152 99.7562 129.078 99.0986C129.725 98.8865 130.412 99.0282 130.961 99.4452Z" fill="black"/>
<path d="M129.313 103.71C129.673 104.757 130.215 105.697 130.948 106.525C131.197 106.808 131.622 106.406 131.373 106.123C130.814 105.492 130.371 104.791 130.051 104.02C130.474 104.12 130.868 104.295 131.247 104.54C131.562 104.745 131.871 104.247 131.556 104.042C130.958 103.656 130.317 103.433 129.609 103.352C129.433 103.331 129.253 103.539 129.313 103.71Z" fill="black"/>
<path d="M133.507 112.469C133.024 112.255 132.857 111.675 132.322 111.516C131.986 111.417 131.586 111.473 131.391 111.79C131.15 112.178 131.378 112.706 131.526 113.085C131.758 113.684 132.096 114.215 132.514 114.696C132.762 114.982 133.186 114.58 132.939 114.294C132.643 113.953 131.621 112.64 132.027 112.215C132.22 112.014 132.297 112.126 132.468 112.295C132.573 112.395 132.657 112.517 132.756 112.624C132.931 112.806 133.104 112.927 133.334 113.029C133.68 113.178 133.847 112.618 133.507 112.469Z" fill="black"/>
<path d="M134.879 125.936C135.054 126.27 135.567 125.991 135.393 125.657C134.696 124.323 133.788 123.145 132.673 122.132C132.395 121.88 131.97 122.28 132.248 122.535C133.329 123.517 134.204 124.643 134.879 125.936Z" fill="black"/>
<path d="M127.207 97.4025C126.841 97.4884 126.974 98.0579 127.341 97.972C127.708 97.8861 127.574 97.3166 127.207 97.4025Z" fill="black"/>
<path d="M126.171 96.1991C126.345 96.5332 126.861 96.2536 126.684 95.92C126.514 95.5924 125.925 94.4757 126.444 94.2367C126.963 93.9997 127.406 94.6096 127.659 94.9635C127.876 95.2637 128.393 94.9886 128.172 94.6823C127.723 94.0548 127.015 93.2929 126.162 93.7238C125.224 94.1982 125.818 95.5249 126.171 96.1991Z" fill="black"/>
<path d="M125.934 86.0728C120.943 77.9617 119.126 68.1457 120.917 58.7869C120.987 58.4196 120.429 58.2451 120.358 58.6151C118.538 68.1275 120.344 78.0998 125.421 86.354C125.616 86.6734 126.133 86.3961 125.934 86.0728Z" fill="black"/>
<path d="M126.398 102.675C126.188 103.215 126.511 103.804 126.772 104.27C127.04 104.747 127.378 105.132 127.903 105.324C128.257 105.452 128.428 104.89 128.075 104.764C127.541 104.57 126.919 103.668 126.941 103.093C126.98 102.051 128.328 102.665 128.829 102.958C129.153 103.149 129.461 102.652 129.136 102.461C128.339 101.994 126.872 101.466 126.398 102.675Z" fill="black"/>
<path d="M130.509 107.359C129.579 107.257 128.261 105.874 127.414 107.008C127.101 107.427 127.223 107.951 127.4 108.397C127.72 109.216 128.186 109.977 128.701 110.687C128.918 110.987 129.435 110.712 129.214 110.406C128.916 109.995 128.637 109.571 128.392 109.123C128.271 108.902 128.155 108.675 128.052 108.441C127.969 108.269 127.898 108.09 127.843 107.907C127.719 107.654 127.794 107.481 128.064 107.384C128.395 107.114 128.56 107.155 128.93 107.318C129.131 107.405 129.315 107.526 129.51 107.627C129.83 107.794 130.127 107.903 130.487 107.943C130.862 107.985 130.881 107.399 130.509 107.359Z" fill="black"/>
<path d="M131.338 117.377C130.829 117.244 130.322 117.111 129.815 116.977C129.658 116.935 129.504 117.016 129.449 117.171C129.207 117.86 129.573 118.591 130.226 118.878C130.571 119.028 130.74 118.467 130.398 118.318C130.12 118.196 129.966 117.913 129.966 117.622C130.365 117.728 130.764 117.831 131.164 117.937C131.53 118.032 131.702 117.475 131.338 117.377Z" fill="black"/>
<path d="M122.657 87.0592C122.961 87.2812 123.268 86.7838 122.966 86.5614C122.658 86.3376 122.422 86.0256 122.294 85.6661C122.171 85.3153 121.601 85.4442 121.725 85.7997C121.907 86.3173 122.214 86.7356 122.657 87.0592Z" fill="black"/>
<path d="M124.155 94.2107C124.5 94.3604 124.669 93.7995 124.327 93.6514C124.048 93.5294 123.895 93.2432 123.895 92.9548C124.294 93.0584 124.693 93.1641 125.095 93.2695C125.459 93.3647 125.631 92.8075 125.267 92.7103C124.76 92.5769 124.251 92.4438 123.744 92.3105C123.587 92.2678 123.433 92.3495 123.378 92.5042C123.136 93.1926 123.502 93.9239 124.155 94.2107Z" fill="black"/>
<path d="M126.49 110.355C126.446 110.394 126.402 110.431 126.357 110.468C126.234 110.569 126.241 110.772 126.346 110.881C126.46 111.001 126.637 110.993 126.759 110.893C126.804 110.856 126.847 110.817 126.891 110.78C127.015 110.679 127.008 110.477 126.903 110.367C126.788 110.247 126.612 110.254 126.49 110.355Z" fill="black"/>
<path d="M125.436 101.542C125.653 101.845 126.17 101.567 125.949 101.263C125.5 100.636 124.795 99.8734 123.942 100.304C123.001 100.779 123.595 102.106 123.948 102.78C124.124 103.111 124.638 102.832 124.463 102.498C124.29 102.171 123.702 101.054 124.221 100.818C124.739 100.581 125.182 101.189 125.436 101.542Z" fill="black"/>
<path d="M127.098 113.815C127.857 113.752 128.577 113.975 129.192 114.446C129.494 114.676 129.8 114.176 129.502 113.951C128.691 113.331 127.692 113.106 126.692 113.28C126.526 113.309 126.456 113.482 126.474 113.631C126.599 114.638 127.115 115.495 127.914 116.115C128.211 116.346 128.517 115.847 128.221 115.618C127.627 115.157 127.252 114.531 127.098 113.815Z" fill="black"/>
<path d="M124.414 96.8125C123.955 96.5885 123.309 96.2185 122.789 96.4435C121.603 96.9617 122.96 98.7201 123.314 99.3076C123.507 99.6299 124.023 99.3505 123.828 99.0285C123.603 98.6534 123.363 98.2866 123.151 97.9039C123.083 97.7779 122.958 97.5955 122.952 97.4435C122.931 97.0468 123.242 96.9575 123.557 97.0732C124.381 97.3797 125.132 97.8649 125.784 98.4521C126.063 98.7014 126.488 98.3013 126.208 98.0475C125.666 97.5597 125.071 97.1367 124.414 96.8125Z" fill="black"/>
<path d="M116.872 75.8783C117.551 78.6222 118.553 81.2469 119.876 83.7438C120.052 84.0748 120.566 83.796 120.389 83.4626C119.089 81.0134 118.106 78.439 117.441 75.7452C117.351 75.3792 116.781 75.5128 116.872 75.8783Z" fill="black"/>
<path d="M116.181 73.5773C116.324 73.6208 116.511 73.5362 116.547 73.3836C116.573 73.2695 116.599 73.1575 116.628 73.0426C116.664 72.8897 116.592 72.7266 116.434 72.677C116.289 72.634 116.105 72.7181 116.069 72.8707C116.043 72.9848 116.014 73.0974 115.987 73.2118C115.951 73.3644 116.023 73.5278 116.181 73.5773Z" fill="black"/>
<path d="M124.995 109.465C125.359 109.561 125.533 109.003 125.169 108.906C124.66 108.772 124.152 108.639 123.645 108.506C123.487 108.464 123.335 108.545 123.28 108.699C123.038 109.388 123.404 110.12 124.057 110.406C124.402 110.556 124.571 109.995 124.229 109.847C123.95 109.725 123.797 109.438 123.796 109.15C124.197 109.256 124.596 109.359 124.995 109.465Z" fill="black"/>
<path d="M123.17 104.217C122.834 104.118 122.434 104.173 122.239 104.491C121.998 104.876 122.225 105.407 122.374 105.786C122.605 106.383 122.943 106.914 123.362 107.397C123.609 107.681 124.033 107.278 123.787 106.995C123.491 106.653 122.469 105.34 122.874 104.916C123.067 104.715 123.143 104.824 123.315 104.993C123.42 105.093 123.505 105.218 123.604 105.322C123.779 105.506 123.952 105.627 124.182 105.727C124.525 105.879 124.694 105.318 124.354 105.168C123.871 104.956 123.704 104.375 123.17 104.217Z" fill="black"/>
<path d="M119.069 89.5704C119.389 89.767 119.698 89.2694 119.378 89.0726C118.878 88.7645 118.504 88.3185 118.313 87.7601C118.192 87.4064 117.622 87.5374 117.743 87.8937C117.983 88.5992 118.431 89.1767 119.069 89.5704Z" fill="black"/>
<path d="M125.367 119.327C125.109 119.808 125.44 120.663 125.612 121.12C125.878 121.824 126.298 122.437 126.832 122.965C127.099 123.23 127.523 122.827 127.257 122.561C126.619 121.932 126.007 121.025 125.935 120.1C125.924 120.023 125.911 119.947 125.901 119.873C125.918 119.628 126.004 119.577 126.159 119.721C126.335 119.737 126.562 119.943 126.716 120.04C127.162 120.322 127.578 120.64 127.976 120.987C128.259 121.23 128.688 120.832 128.401 120.584C127.939 120.183 125.92 118.291 125.367 119.327Z" fill="black"/>
<path d="M120.311 97.4762C120.167 97.4883 119.993 97.5866 120.007 97.7589C120.086 98.7618 120.443 99.6512 121.088 100.425C121.331 100.712 121.756 100.31 121.513 100.023C121.036 99.4525 120.731 98.7884 120.623 98.0618C121.032 98.0836 121.404 98.2128 121.757 98.4571C122.066 98.6706 122.373 98.1732 122.063 97.9598C121.541 97.5987 120.944 97.4308 120.311 97.4762Z" fill="black"/>
<path d="M125.72 117.725C125.423 117.384 124.402 116.071 124.805 115.647C125 115.445 125.075 115.558 125.249 115.726C125.354 115.826 125.438 115.948 125.537 116.055C125.71 116.238 125.884 116.358 126.114 116.458C126.458 116.61 126.627 116.049 126.286 115.901C125.804 115.687 125.637 115.107 125.102 114.948C124.766 114.849 124.366 114.904 124.171 115.221C123.931 115.61 124.158 116.138 124.304 116.517C124.538 117.114 124.876 117.647 125.294 118.128C125.542 118.414 125.966 118.009 125.72 117.725Z" fill="black"/>
<path d="M120.314 100.503C120.296 100.599 120.279 100.694 120.261 100.79C120.144 101.457 120.063 102.129 120.033 102.809C120.014 103.253 119.876 103.934 120.366 104.18C120.488 104.24 120.617 104.234 120.72 104.142C120.742 104.123 120.764 104.106 120.786 104.086C120.999 103.899 120.824 103.611 120.603 103.591C120.492 103.292 120.639 102.431 120.654 102.24C120.684 101.887 120.727 101.536 120.785 101.188C121.222 101.66 121.566 102.195 121.828 102.799C121.978 103.144 122.491 102.862 122.341 102.518C121.985 101.695 121.475 100.986 120.806 100.388C120.662 100.256 120.36 100.269 120.314 100.503Z" fill="black"/>
<path d="M125.291 124.346C125.297 124.371 125.303 124.396 125.309 124.421C125.394 124.788 125.965 124.656 125.878 124.287C125.872 124.262 125.867 124.237 125.86 124.212C125.775 123.845 125.205 123.979 125.291 124.346Z" fill="black"/>
<path d="M118.645 94.1608C119.646 95.1613 120.702 96.0988 121.807 96.9811C122.1 97.2154 122.406 96.716 122.114 96.4838C121.132 95.6997 120.194 94.8669 119.299 93.9882C120.528 94.0631 121.465 95.7659 122.69 96.0292C123.057 96.109 123.231 95.5492 122.864 95.4694C121.307 95.1349 120.432 92.8647 118.609 93.4941C118.408 93.5626 118.294 93.8106 118.463 93.9798C118.523 94.0404 118.583 94.101 118.645 94.1608Z" fill="black"/>
<path d="M123.751 113.489C122.955 112.503 122.213 111.478 121.52 110.417C122.697 110.724 123.299 112.645 124.394 113.158C124.732 113.314 125.043 112.818 124.703 112.66C123.298 112.004 122.925 109.851 121.228 109.798C121.124 109.795 121.017 109.799 120.902 109.811C120.72 109.833 120.621 110.089 120.713 110.236C121.513 111.507 122.384 112.723 123.326 113.891C123.564 114.184 123.986 113.782 123.751 113.489Z" fill="black"/>
<path d="M117.601 97.2099C117.847 97.4935 118.272 97.091 118.025 96.8051C117.729 96.4659 116.707 95.1505 117.113 94.7288C117.306 94.5251 117.382 94.6368 117.556 94.8053C117.66 94.9062 117.743 95.0282 117.843 95.1347C118.018 95.3171 118.191 95.4399 118.421 95.5398C118.766 95.6918 118.933 95.1313 118.592 94.9805C118.11 94.7689 117.943 94.1862 117.408 94.0278C117.073 93.9308 116.672 93.984 116.477 94.3013C116.236 94.6896 116.466 95.2172 116.613 95.5983C116.844 96.1955 117.182 96.7265 117.601 97.2099Z" fill="black"/>
<path d="M124.537 121.076C124.077 120.674 122.055 118.784 121.502 119.817C121.245 120.298 121.576 121.155 121.747 121.612C122.014 122.316 122.433 122.927 122.968 123.456C123.234 123.72 123.659 123.32 123.392 123.053C122.754 122.422 122.143 121.517 122.071 120.593C122.06 120.516 122.047 120.44 122.036 120.363C122.054 120.121 122.14 120.069 122.294 120.211C122.471 120.23 122.697 120.436 122.852 120.532C123.298 120.814 123.713 121.133 124.112 121.479C124.395 121.722 124.823 121.322 124.537 121.076Z" fill="black"/>
<path d="M108.218 63.0774C108.077 60.825 108.049 58.5727 108.129 56.3193C108.143 55.9409 107.559 55.9195 107.544 56.2954C107.464 58.5511 107.492 60.8034 107.633 63.0557C107.656 63.4276 108.241 63.454 108.218 63.0774Z" fill="black"/>
<path d="M116.463 100.024C116.93 101.453 117.472 102.847 118.097 104.212C118.255 104.555 118.768 104.273 118.613 103.932C118.083 102.778 117.616 101.604 117.205 100.406C118.273 100.994 118.384 102.992 119.314 103.763C119.6 103.999 120.028 103.601 119.739 103.361C118.552 102.378 118.696 100.201 117.074 99.7325C116.976 99.7027 116.869 99.6795 116.758 99.665C116.58 99.641 116.408 99.8539 116.463 100.024Z" fill="black"/>
<path d="M109.294 71.7835C109.331 71.9406 109.368 72.0955 109.404 72.2505C109.49 72.6174 110.06 72.4859 109.974 72.1169C109.937 71.9619 109.901 71.8072 109.864 71.6499C109.778 71.2833 109.208 71.4169 109.294 71.7835Z" fill="black"/>
<path d="M131.464 165.26C131.275 164.937 130.761 165.213 130.951 165.541C131.128 165.843 131.304 166.146 131.481 166.448C131.67 166.771 132.184 166.494 131.994 166.167C131.817 165.864 131.641 165.562 131.464 165.26Z" fill="black"/>
<path d="M109.307 69.971C108.927 68.5222 108.645 67.0548 108.463 65.567C108.416 65.1936 107.847 65.3293 107.893 65.7006C108.076 67.1887 108.357 68.6559 108.737 70.1046C108.835 70.4686 109.404 70.3349 109.307 69.971Z" fill="black"/>
<path d="M120.124 113.034C120.611 113.1 121.08 113.228 121.541 113.389C121.897 113.515 122.069 112.956 121.715 112.829C120.993 112.578 119.984 112.264 119.21 112.424C118.618 112.546 118.376 113.03 118.694 113.554C119.137 114.277 121.175 116.505 122.035 115.27C122.248 114.959 121.751 114.652 121.537 114.962C121.183 115.47 119.583 113.771 119.386 113.517C118.908 112.898 119.718 112.98 120.124 113.034Z" fill="black"/>
<path d="M119.749 116.988C120.077 116.719 120.245 116.759 120.615 116.922C120.816 117.01 121 117.13 121.192 117.232C121.513 117.399 121.81 117.508 122.17 117.548C122.545 117.59 122.566 117.004 122.194 116.963C121.264 116.861 119.943 115.479 119.098 116.612C118.785 117.031 118.908 117.553 119.083 118.002C119.404 118.821 119.869 119.582 120.384 120.293C120.603 120.592 121.12 120.317 120.897 120.011C120.599 119.601 120.321 119.175 120.077 118.728C119.955 118.507 119.837 118.28 119.734 118.047C119.653 117.874 119.582 117.695 119.527 117.511C119.403 117.259 119.476 117.086 119.749 116.988Z" fill="black"/>
<path d="M120.677 123.362C120.534 123.374 120.36 123.473 120.374 123.645C120.452 124.648 120.807 125.538 121.455 126.311C121.697 126.598 122.12 126.196 121.88 125.909C121.402 125.339 121.098 124.674 120.99 123.948C121.397 123.97 121.768 124.1 122.123 124.343C122.433 124.557 122.739 124.059 122.43 123.846C121.908 123.485 121.311 123.317 120.677 123.362Z" fill="black"/>
<path d="M130.673 163.657C129.911 162.521 129.369 161.303 129.043 159.973C128.953 159.608 128.383 159.741 128.473 160.107C128.811 161.487 129.369 162.759 130.16 163.939C130.367 164.248 130.883 163.971 130.673 163.657Z" fill="black"/>
<path d="M115.812 99.6047C115.358 99.2784 115.008 98.8607 114.773 98.3726C115.284 98.5842 115.801 98.7827 116.323 98.9682C116.68 99.0936 116.849 98.5349 116.495 98.4089C115.771 98.1506 115.059 97.8684 114.354 97.5674C114.148 97.4786 113.929 97.7126 113.983 97.9137C114.225 98.8135 114.748 99.5585 115.505 100.1C115.811 100.321 116.117 99.8216 115.812 99.6047Z" fill="black"/>
<path d="M120.198 107.41C120.572 107.457 120.593 106.871 120.222 106.826C119.182 106.694 118.045 106.406 116.999 106.444C116.529 106.461 116.076 106.629 115.979 107.128C115.953 107.261 115.988 107.382 116.105 107.461C117.585 108.462 119.304 108.917 121.085 108.767C121.455 108.736 121.482 108.15 121.107 108.183C119.521 108.316 118.019 107.965 116.678 107.135C117.305 106.805 119.774 107.356 120.198 107.41Z" fill="black"/>
<path d="M103.471 53.7219C103.559 53.4225 103.645 53.1236 103.732 52.8245C103.837 52.4634 103.277 52.2918 103.172 52.6526C103.086 52.9518 103 53.2504 102.914 53.5495C102.809 53.9106 103.366 54.0827 103.471 53.7219Z" fill="black"/>
<path d="M118.154 113.157C117.853 112.745 117.576 112.322 117.332 111.874C117.21 111.651 117.094 111.423 116.992 111.192C116.908 111.02 116.837 110.841 116.782 110.657C116.658 110.406 116.732 110.229 117.003 110.135C117.334 109.865 117.5 109.906 117.869 110.067C118.07 110.156 118.254 110.275 118.449 110.378C118.767 110.546 119.066 110.654 119.427 110.694C119.801 110.734 119.821 110.15 119.448 110.107C118.518 110.006 117.2 108.625 116.353 109.759C116.04 110.175 116.162 110.699 116.337 111.146C116.658 111.965 117.123 112.728 117.64 113.436C117.857 113.736 118.374 113.461 118.154 113.157Z" fill="black"/>
<path d="M113.762 101.431C113.818 102.264 114.076 103.037 114.563 103.718C114.78 104.02 115.297 103.743 115.076 103.437C114.689 102.896 114.442 102.29 114.365 101.633C115.014 101.421 115.701 101.563 116.251 101.979C116.549 102.207 116.855 101.71 116.557 101.482C115.788 100.898 114.796 100.806 113.913 101.183C113.831 101.22 113.757 101.338 113.762 101.431Z" fill="black"/>
<path d="M113.13 98.1786C113.496 98.0927 113.365 97.5226 112.996 97.609C112.632 97.6944 112.763 98.2648 113.13 98.1786Z" fill="black"/>
<path d="M103.561 56.6806C103.549 56.6282 103.536 56.576 103.525 56.5256C103.439 56.1588 102.869 56.29 102.955 56.6593C102.967 56.7093 102.979 56.7618 102.991 56.8142C103.078 57.1808 103.647 57.0472 103.561 56.6806Z" fill="black"/>
<path d="M117.74 124.109C117.643 124.081 117.539 124.057 117.427 124.043C117.245 124.018 117.074 124.231 117.129 124.403C117.595 125.83 118.139 127.226 118.766 128.59C118.923 128.93 119.437 128.652 119.279 128.309C118.75 127.157 118.283 125.983 117.872 124.784C118.939 125.37 119.049 127.368 119.98 128.14C120.267 128.378 120.695 127.98 120.405 127.738C119.219 126.756 119.364 124.576 117.74 124.109Z" fill="black"/>
<path d="M118.958 120.867C118.476 120.655 118.309 120.073 117.775 119.917C117.439 119.818 117.038 119.871 116.843 120.188C116.603 120.576 116.83 121.104 116.979 121.484C117.21 122.081 117.548 122.613 117.967 123.096C118.214 123.38 118.638 122.977 118.391 122.692C118.095 122.352 117.073 121.037 117.479 120.615C117.672 120.412 117.748 120.523 117.92 120.692C118.025 120.792 118.11 120.917 118.208 121.021C118.383 121.203 118.556 121.326 118.786 121.426C119.13 121.579 119.299 121.018 118.958 120.867Z" fill="black"/>
<path d="M113.864 89.2621C105.87 81.2683 101.909 69.7371 103.292 58.5172C103.337 58.144 102.753 58.1242 102.708 58.4956C101.307 69.8586 105.345 81.5696 113.439 89.6646C113.706 89.931 114.131 89.5288 113.864 89.2621Z" fill="black"/>
<path d="M112.517 101.367C112.884 101.281 112.75 100.711 112.383 100.797C112.016 100.883 112.15 101.453 112.517 101.367Z" fill="black"/>
<path d="M110.152 92.2509C109.967 91.9243 109.454 92.2032 109.639 92.5321C109.771 92.768 109.906 93.0031 110.038 93.2413C110.223 93.5681 110.737 93.2893 110.551 92.9601C110.419 92.7242 110.285 92.4891 110.152 92.2509Z" fill="black"/>
<path d="M117.042 114.249C116.444 113.86 115.803 113.638 115.097 113.558C114.961 113.542 114.827 113.658 114.796 113.79C114.784 113.831 114.784 113.874 114.799 113.917C114.981 114.446 115.208 114.945 115.485 115.419C115.755 115.882 116.071 116.319 116.434 116.732C116.684 117.014 117.108 116.612 116.859 116.329C116.301 115.698 115.857 114.995 115.537 114.224C115.961 114.324 116.354 114.499 116.733 114.744C117.051 114.951 117.357 114.454 117.042 114.249Z" fill="black"/>
<path d="M113.542 108.367C113.716 108.701 114.232 108.421 114.056 108.088C113.883 107.761 113.297 106.644 113.815 106.405C114.334 106.168 114.777 106.778 115.03 107.129C115.248 107.431 115.765 107.156 115.544 106.85C115.094 106.223 114.387 105.461 113.534 105.892C112.595 106.366 113.187 107.693 113.542 108.367Z" fill="black"/>
<path d="M116.071 118.319C116.435 118.233 116.304 117.663 115.937 117.749C115.571 117.835 115.702 118.405 116.071 118.319Z" fill="black"/>
<path d="M111.042 104.519C111.273 105.116 111.612 105.649 112.03 106.131C112.277 106.416 112.702 106.014 112.455 105.728C112.159 105.387 111.137 104.074 111.54 103.65C111.736 103.448 111.81 103.561 111.984 103.729C112.089 103.829 112.173 103.951 112.272 104.058C112.445 104.241 112.62 104.361 112.85 104.463C113.193 104.613 113.362 104.052 113.022 103.904C112.54 103.69 112.372 103.109 111.838 102.951C111.502 102.852 111.102 102.907 110.907 103.224C110.666 103.612 110.893 104.141 111.042 104.519Z" fill="black"/>
<path d="M113.178 110.687C113.033 110.697 112.86 110.798 112.873 110.968C112.878 111.027 112.884 111.083 112.889 111.139C112.438 110.567 111.793 110 111.034 110.387C110.094 110.86 110.686 112.187 111.041 112.86C111.058 112.892 111.079 112.921 111.104 112.942C111.311 113.138 111.712 112.881 111.555 112.582C111.382 112.254 110.794 111.138 111.315 110.9C111.831 110.662 112.274 111.271 112.53 111.625C112.648 111.787 112.855 111.782 112.983 111.689C113.145 112.403 113.468 113.054 113.955 113.634C114.032 113.724 114.123 113.746 114.21 113.726C114.396 113.682 114.546 113.428 114.38 113.232C113.903 112.663 113.598 111.997 113.49 111.27C113.897 111.293 114.269 111.424 114.621 111.666C114.934 111.881 115.24 111.382 114.93 111.168C114.407 110.808 113.811 110.642 113.178 110.687Z" fill="black"/>
<path d="M114.149 121.117C114.284 120.968 114.323 121.043 114.497 121.096C114.702 121.161 114.895 121.214 115.112 121.211C115.488 121.205 115.512 120.62 115.136 120.627C114.595 120.633 113.586 119.998 113.46 120.969C113.403 121.41 113.653 121.926 113.832 122.319C114.089 122.883 114.451 123.385 114.881 123.832C115.141 124.102 115.567 123.702 115.303 123.43C114.781 122.884 114.376 122.251 114.151 121.528C114.101 121.366 114.024 121.252 114.149 121.117Z" fill="black"/>
<path d="M114.918 115.573C114.166 115 113.199 114.902 112.331 115.25C112.311 115.257 112.294 115.266 112.274 115.273C112.191 115.309 112.116 115.427 112.123 115.519C112.179 116.352 112.437 117.126 112.923 117.807C113.141 118.109 113.657 117.832 113.437 117.528C113.05 116.984 112.801 116.384 112.724 115.724C113.372 115.51 114.062 115.651 114.611 116.068C114.863 116.259 115.119 115.939 115.017 115.697C114.999 115.653 114.965 115.61 114.918 115.573Z" fill="black"/>
<path d="M103.723 79.832C103.675 79.6248 103.626 79.4174 103.577 79.2076C103.492 78.8434 102.922 78.9744 103.008 79.3413C103.057 79.5508 103.105 79.7582 103.154 79.9656C103.24 80.3322 103.81 80.1986 103.723 79.832Z" fill="black"/>
<path d="M114.28 127.07C114.197 127.106 114.121 127.225 114.129 127.317C114.184 128.15 114.442 128.923 114.929 129.604C115.144 129.907 115.661 129.63 115.443 129.325C115.055 128.782 114.806 128.179 114.731 127.519C115.378 127.307 116.065 127.449 116.614 127.866C116.915 128.093 117.222 127.596 116.923 127.368C116.154 126.785 115.162 126.693 114.28 127.07Z" fill="black"/>
<path d="M107.793 90.5523C108.017 90.853 108.441 90.4485 108.218 90.1501C107.407 89.0688 106.627 87.9658 105.886 86.8349C105.163 85.7259 104.323 84.5844 104.271 83.2148C104.258 82.8384 103.673 82.8144 103.686 83.1908C103.737 84.5557 104.414 85.63 105.136 86.7514C105.974 88.0515 106.864 89.3136 107.793 90.5523Z" fill="black"/>
<path d="M118.268 144.543C118.369 144.572 118.481 144.55 118.555 144.475C118.589 144.443 118.62 144.412 118.653 144.378C118.849 144.183 118.679 143.898 118.472 143.875C118.493 143.822 118.486 143.742 118.452 143.635C118.464 143.44 118.478 143.244 118.493 143.048C118.513 142.755 118.538 142.464 118.563 142.172C118.625 141.489 118.699 140.811 118.784 140.13C118.829 139.757 118.245 139.737 118.2 140.108C118.074 141.128 117.969 142.147 117.896 143.171C117.861 143.667 117.664 144.365 118.268 144.543Z" fill="black"/>
<path d="M110.507 113.988C110.948 114.452 111.409 114.841 112.032 115.029C112.112 115.053 112.182 115.044 112.238 115.014C112.443 114.913 112.485 114.553 112.204 114.47C111.537 114.27 111.036 113.722 110.528 113.204C109.919 112.585 109.303 112.008 108.38 112.131C108.294 112.142 108.206 112.157 108.116 112.181C107.891 112.239 107.824 112.497 107.97 112.667C108.469 113.257 108.985 113.828 109.517 114.386C109.072 114.017 108.589 113.695 108.062 113.436C107.606 113.212 106.959 112.842 106.44 113.069C105.252 113.588 106.611 115.346 106.962 115.934C107.157 116.253 107.671 115.977 107.478 115.652C107.251 115.28 107.011 114.91 106.801 114.53C106.731 114.402 106.606 114.22 106.599 114.068C106.581 113.673 106.891 113.581 107.205 113.7C108.031 114.004 108.779 114.49 109.433 115.076C109.659 115.281 109.985 115.05 109.944 114.825C110.293 115.178 110.651 115.526 111.015 115.866C111.288 116.122 111.716 115.721 111.439 115.464C110.51 114.593 109.625 113.679 108.788 112.721C109.489 112.823 110.026 113.483 110.507 113.988Z" fill="black"/>
<path d="M108.733 106.673C108.475 107.154 108.806 108.008 108.978 108.466C109.244 109.17 109.664 109.783 110.196 110.312C110.465 110.576 110.89 110.174 110.621 109.907C109.985 109.277 109.374 108.371 109.301 107.445C109.288 107.369 109.277 107.292 109.267 107.218C109.284 106.974 109.369 106.923 109.522 107.065C109.699 107.083 109.928 107.289 110.08 107.386C110.528 107.668 110.944 107.986 111.342 108.332C111.623 108.577 112.051 108.178 111.767 107.93C111.305 107.529 109.286 105.637 108.733 106.673Z" fill="black"/>
<path d="M107.462 100.963C107.149 101.382 107.272 101.906 107.447 102.353C107.768 103.172 108.233 103.935 108.75 104.643C108.967 104.943 109.484 104.668 109.264 104.364C108.963 103.951 108.686 103.529 108.441 103.079C108.319 102.858 108.203 102.63 108.101 102.397C108.017 102.224 107.947 102.046 107.892 101.864C107.768 101.612 107.84 101.437 108.112 101.339C108.441 101.07 108.61 101.112 108.979 101.273C109.18 101.363 109.364 101.481 109.559 101.584C109.877 101.752 110.174 101.86 110.536 101.898C110.911 101.94 110.93 101.357 110.557 101.314C109.628 101.212 108.309 99.8298 107.462 100.963Z" fill="black"/>
<path d="M106.143 97.9172C106.028 98.2759 106.587 98.4475 106.702 98.089C106.831 97.6937 106.652 97.2188 106.267 97.0398C106.123 96.9726 105.954 96.9882 105.863 97.1342C105.788 97.2552 105.814 97.4676 105.957 97.5351C106.111 97.6075 106.199 97.748 106.143 97.9172Z" fill="black"/>
<path d="M118.01 148.874C118.036 148.094 118.122 147.324 118.274 146.557C118.347 146.192 117.79 146.017 117.715 146.386C117.553 147.2 117.454 148.021 117.425 148.852C117.41 149.228 117.997 149.249 118.01 148.874Z" fill="black"/>
<path d="M113.493 130.494C113.468 130.5 113.443 130.505 113.418 130.511C113.051 130.597 113.185 131.167 113.552 131.081C113.577 131.075 113.602 131.069 113.627 131.063C113.994 130.977 113.862 130.407 113.493 130.494Z" fill="black"/>
<path d="M107.985 107.458C108.236 107.323 108.367 107.162 108.474 106.899C108.597 106.597 108.193 106.429 107.989 106.616C107.949 106.395 107.937 106.17 107.962 105.938C107.993 105.659 108.078 105.387 108.427 105.418C108.633 105.437 108.842 105.631 108.981 105.762C109.379 106.139 109.7 106.511 110.277 106.568C110.651 106.606 110.673 106.019 110.299 105.984C109.768 105.931 109.485 105.351 109.068 105.078C108.767 104.88 108.369 104.742 108.013 104.864C107.109 105.17 107.324 106.597 107.561 107.27C107.621 107.445 107.804 107.559 107.985 107.458Z" fill="black"/>
<path d="M124.745 132.331C124.618 131.981 124.047 132.111 124.176 132.465C126.322 138.284 125.78 144.191 123.39 149.829C122.294 152.419 121.256 154.955 120.852 157.76C120.431 160.673 120.52 163.625 120.608 166.555C120.621 166.929 121.204 166.956 121.193 166.579C121.103 163.579 121.01 160.557 121.466 157.581C121.94 154.477 123.275 151.725 124.43 148.84C126.557 143.528 126.733 137.717 124.745 132.331Z" fill="black"/>
<path d="M104.842 96.4389C105.111 96.7027 105.538 96.3 105.267 96.0368C104.843 95.6196 104.498 95.1549 104.223 94.6281C104.049 94.2939 103.535 94.573 103.71 94.9093C104.007 95.4767 104.387 95.9906 104.842 96.4389Z" fill="black"/>
<path d="M107.843 110.945C107.864 110.913 107.883 110.883 107.903 110.851C108.102 110.531 107.604 110.222 107.405 110.543C107.386 110.574 107.367 110.605 107.348 110.636C107.149 110.956 107.644 111.265 107.843 110.945Z" fill="black"/>
<path d="M110.876 122.504C109.937 122.976 110.529 124.303 110.884 124.979C111.058 125.311 111.574 125.032 111.397 124.698C111.225 124.371 110.638 123.254 111.157 123.017C111.675 122.778 112.119 123.388 112.373 123.742C112.589 124.042 113.107 123.767 112.886 123.46C112.436 122.835 111.729 122.071 110.876 122.504Z" fill="black"/>
<path d="M111.95 118.545C111.153 118.078 109.687 117.549 109.213 118.758C109 119.298 109.326 119.888 109.586 120.353C109.854 120.831 110.192 121.215 110.717 121.405C111.072 121.535 111.244 120.974 110.89 120.847C110.356 120.653 109.734 119.751 109.756 119.176C109.792 118.134 111.143 118.748 111.644 119.041C111.967 119.233 112.276 118.735 111.95 118.545Z" fill="black"/>
<path d="M120.492 169.189C120.622 170.235 120.555 171.27 120.299 172.291C120.207 172.656 120.766 172.83 120.859 172.465C121.14 171.339 121.204 170.207 121.062 169.055C121.015 168.682 120.444 168.82 120.492 169.189Z" fill="black"/>
<path d="M110.134 126.547C109.877 127.028 110.207 127.883 110.379 128.34C110.645 129.044 111.065 129.657 111.6 130.185C111.866 130.45 112.291 130.047 112.024 129.781C111.386 129.152 110.775 128.245 110.702 127.32C110.691 127.243 110.678 127.167 110.668 127.093C110.685 126.848 110.772 126.797 110.926 126.941C111.102 126.957 111.329 127.164 111.483 127.26C111.929 127.542 112.345 127.861 112.743 128.207C113.026 128.45 113.454 128.052 113.168 127.805C112.706 127.402 110.687 125.511 110.134 126.547Z" fill="black"/>
<path d="M106.606 107.073C106.047 106.442 105.604 105.741 105.284 104.97C105.707 105.07 106.101 105.245 106.48 105.489C106.795 105.694 107.104 105.197 106.787 104.992C106.189 104.604 105.548 104.381 104.842 104.302C104.666 104.28 104.487 104.488 104.546 104.659C104.907 105.706 105.446 106.645 106.181 107.474C106.43 107.758 106.855 107.356 106.606 107.073Z" fill="black"/>
<path d="M107.868 117.442C108.387 117.205 108.83 117.815 109.086 118.168C109.303 118.468 109.818 118.193 109.599 117.887C109.147 117.26 108.442 116.497 107.589 116.928C106.65 117.403 107.242 118.73 107.597 119.403C107.771 119.738 108.285 119.459 108.111 119.124C107.939 118.797 107.35 117.681 107.868 117.442Z" fill="black"/>
<path d="M105.877 110.411C105.49 109.867 105.243 109.266 105.163 108.607C105.815 108.392 106.502 108.534 107.051 108.951C107.349 109.179 107.656 108.682 107.358 108.456C106.589 107.87 105.597 107.78 104.714 108.156C104.631 108.192 104.558 108.31 104.563 108.403C104.618 109.235 104.876 110.009 105.363 110.69C105.58 110.992 106.097 110.715 105.877 110.411Z" fill="black"/>
<path d="M108.296 124.937C108.327 124.957 108.358 124.976 108.389 124.995C108.709 125.194 109.018 124.696 108.697 124.497C108.666 124.478 108.635 124.459 108.602 124.44C108.284 124.241 107.975 124.739 108.296 124.937Z" fill="black"/>
<path d="M108.74 130.646C107.801 131.121 108.393 132.448 108.748 133.122C108.922 133.456 109.436 133.177 109.262 132.843C109.089 132.515 108.501 131.399 109.019 131.16C109.538 130.923 109.981 131.533 110.237 131.886C110.451 132.186 110.969 131.911 110.75 131.605C110.298 130.98 109.593 130.216 108.74 130.646Z" fill="black"/>
<path d="M108.002 121.794C107.519 121.58 107.352 120.999 106.817 120.841C106.481 120.742 106.083 120.797 105.886 121.114C105.645 121.503 105.875 122.03 106.021 122.409C106.253 123.009 106.591 123.54 107.011 124.02C107.259 124.306 107.681 123.904 107.434 123.618C107.14 123.276 106.116 121.964 106.521 121.54C106.714 121.338 106.791 121.45 106.965 121.618C107.068 121.719 107.152 121.841 107.252 121.948C107.427 122.13 107.601 122.25 107.829 122.353C108.175 122.503 108.344 121.942 108.002 121.794Z" fill="black"/>
<path d="M116.011 151.224C115.214 154.47 114.88 157.78 115.023 161.118C115.038 161.491 115.623 161.517 115.607 161.139C115.466 157.851 115.783 154.593 116.57 151.395C116.658 151.031 116.1 150.857 116.011 151.224Z" fill="black"/>
<path d="M103.959 114.102C103.817 114.111 103.642 114.213 103.655 114.382C103.734 115.385 104.092 116.277 104.739 117.048C104.979 117.337 105.404 116.933 105.163 116.646C104.687 116.077 104.381 115.411 104.271 114.685C104.68 114.706 105.052 114.836 105.405 115.08C105.714 115.295 106.023 114.796 105.713 114.582C105.189 114.222 104.595 114.056 103.959 114.102Z" fill="black"/>
<path d="M107.678 128.105C107.397 127.984 107.246 127.7 107.246 127.409C107.645 127.515 108.044 127.618 108.444 127.724C108.808 127.821 108.982 127.261 108.618 127.164C108.109 127.031 107.601 126.898 107.094 126.764C106.936 126.724 106.782 126.804 106.729 126.958C106.487 127.649 106.853 128.378 107.506 128.664C107.852 128.814 108.021 128.253 107.678 128.105Z" fill="black"/>
<path d="M105.818 118.383C105.107 117.942 104.347 117.663 103.53 117.531C103.445 117.517 103.357 117.504 103.269 117.493C103.029 117.463 102.919 117.741 103 117.926C103.359 118.729 103.776 119.503 104.267 120.234C104.508 120.596 104.769 121.015 105.259 120.817C105.355 120.777 105.399 120.666 105.41 120.57C105.414 120.547 105.415 120.523 105.419 120.498C105.452 120.216 105.132 120.135 104.952 120.266C104.822 120.071 104.266 119.136 104.201 119.021C104.044 118.741 103.895 118.454 103.755 118.165C104.378 118.298 104.958 118.539 105.509 118.881C105.83 119.08 106.138 118.582 105.818 118.383Z" fill="black"/>
<path d="M103.443 113.192C103.27 112.864 102.682 111.748 103.203 111.508C103.722 111.271 104.165 111.881 104.418 112.235C104.635 112.535 105.152 112.26 104.931 111.954C104.482 111.329 103.774 110.565 102.921 110.995C101.982 111.47 102.574 112.797 102.929 113.471C103.104 113.805 103.618 113.526 103.443 113.192Z" fill="black"/>
<path d="M110.871 149.739C111.263 149.503 111.512 149.092 111.522 148.632C111.532 148.255 110.948 148.231 110.937 148.609C110.932 148.862 110.808 149.093 110.589 149.226C110.27 149.419 110.546 149.933 110.871 149.739Z" fill="black"/>
<path d="M102.344 118.087C102.591 118.373 103.016 117.971 102.768 117.685C102.473 117.346 101.449 116.031 101.854 115.609C102.047 115.406 102.123 115.517 102.298 115.686C102.401 115.787 102.484 115.909 102.586 116.015C102.758 116.198 102.933 116.318 103.161 116.42C103.506 116.57 103.675 116.009 103.335 115.861C102.853 115.649 102.685 115.066 102.149 114.908C101.813 114.809 101.415 114.864 101.218 115.182C100.977 115.57 101.206 116.098 101.353 116.477C101.585 117.076 101.924 117.607 102.344 118.087Z" fill="black"/>
<path d="M104.047 124.842C104.378 124.573 104.545 124.613 104.913 124.776C105.114 124.864 105.298 124.984 105.492 125.085C105.813 125.253 106.11 125.361 106.47 125.401C106.845 125.443 106.866 124.857 106.494 124.817C105.564 124.713 104.243 123.333 103.398 124.466C103.085 124.882 103.208 125.406 103.383 125.856C103.702 126.675 104.169 127.435 104.684 128.146C104.903 128.445 105.419 128.168 105.197 127.865C104.898 127.452 104.619 127.029 104.377 126.581C104.255 126.358 104.138 126.133 104.035 125.9C103.951 125.727 103.883 125.549 103.828 125.364C103.702 125.113 103.776 124.939 104.047 124.842Z" fill="black"/>
<path d="M104.349 130.018C104.089 130.499 104.422 131.356 104.594 131.813C104.86 132.517 105.279 133.128 105.812 133.656C106.078 133.921 106.506 133.52 106.237 133.254C105.601 132.623 104.989 131.715 104.914 130.791C104.904 130.716 104.893 130.64 104.88 130.563C104.9 130.318 104.985 130.27 105.138 130.412C105.315 130.428 105.543 130.634 105.696 130.733C106.142 131.015 106.56 131.333 106.958 131.677C107.239 131.924 107.666 131.523 107.383 131.275C106.921 130.873 104.902 128.984 104.349 130.018Z" fill="black"/>
<path d="M95.2623 93.5923C95.504 94.1413 95.8888 94.5941 96.3803 94.938C96.6886 95.1567 96.9944 94.6571 96.6871 94.4431C96.2754 94.1526 95.9768 93.7707 95.7754 93.3111C95.6252 92.9664 95.1118 93.2478 95.2623 93.5923Z" fill="black"/>
<path d="M103.369 123.785C102.18 122.802 102.325 120.624 100.704 120.158C100.606 120.128 100.5 120.105 100.388 120.091C100.209 120.065 100.036 120.279 100.092 120.448C100.557 121.878 101.102 123.271 101.727 124.636C101.884 124.979 102.398 124.698 102.241 124.357C101.711 123.205 101.244 122.031 100.833 120.83C101.902 121.416 102.008 123.414 102.944 124.187C103.23 124.426 103.658 124.025 103.369 123.785Z" fill="black"/>
<path d="M91.4489 82.6725C92.0769 82.8715 92.585 83.2858 92.9024 83.8604C93.0853 84.1898 93.6013 83.9104 93.4184 83.581C93.0249 82.8755 92.3911 82.356 91.6207 82.1133C91.262 81.9976 91.0904 82.5571 91.4489 82.6725Z" fill="black"/>
<path d="M114.792 164.224C114.072 169.559 114.05 174.944 114.711 180.286C114.758 180.659 115.327 180.523 115.28 180.152C114.627 174.862 114.663 169.528 115.377 164.248C115.428 163.873 114.842 163.854 114.792 164.224Z" fill="black"/>
<path d="M96.2936 102.576C96.7809 102.656 97.2374 102.85 97.6464 103.119C97.9616 103.326 98.2705 102.829 97.9551 102.621C97.4551 102.292 96.9051 102.089 96.3152 101.991C95.9447 101.927 95.9278 102.513 96.2936 102.576Z" fill="black"/>
<path d="M94.371 91.6865C93.938 91.7974 94.1059 92.4935 94.5358 92.3688C94.6886 92.3235 94.7911 92.1767 94.7537 92.0175C94.7461 91.9856 94.7324 91.9577 94.7163 91.93C94.6949 91.7763 94.5661 91.6359 94.371 91.6865Z" fill="black"/>
<path d="M102.79 128.686C102.469 128.487 102.16 128.985 102.481 129.184C102.512 129.203 102.545 129.221 102.576 129.241C102.896 129.439 103.203 128.943 102.882 128.743C102.851 128.724 102.82 128.705 102.79 128.686Z" fill="black"/>
<path d="M108.999 152.598C108.698 153.531 108.398 154.464 108.1 155.397C107.982 155.756 108.543 155.927 108.657 155.569C108.957 154.636 109.257 153.703 109.558 152.77C109.673 152.411 109.114 152.239 108.999 152.598Z" fill="black"/>
<path d="M106.508 138.821C106.863 138.706 106.732 138.136 106.374 138.251C104.816 138.75 103.846 140.283 104.041 141.903C104.087 142.274 104.656 142.138 104.61 141.769C104.456 140.484 105.278 139.215 106.508 138.821Z" fill="black"/>
<path d="M94.9772 120.011C95.139 120.054 95.3311 120.014 95.4455 119.886C95.5498 119.768 95.572 119.595 95.4568 119.473C95.377 119.388 95.2325 119.357 95.1237 119.404C95.0565 119.334 94.9616 119.298 94.8549 119.323C94.7115 119.357 94.5871 119.523 94.6369 119.675C94.6925 119.842 94.8029 119.965 94.9772 120.011Z" fill="black"/>
<path d="M87.9327 90.5854C87.666 90.3187 87.2411 90.7209 87.5078 90.9876C88.7131 92.2023 89.9196 93.4141 91.1243 94.6267C91.391 94.8934 91.8159 94.4913 91.5491 94.2245C90.3444 93.0119 89.1371 91.7978 87.9327 90.5854Z" fill="black"/>
<path d="M87.114 89.7799C86.7471 89.8658 86.8807 90.4354 87.2476 90.3495C87.6145 90.2636 87.4808 89.694 87.114 89.7799Z" fill="black"/>
<path d="M87.5745 99.1063C89.9051 99.4734 92.091 100.29 94.0993 101.528C94.4221 101.726 94.7307 101.229 94.4079 101.03C92.3079 99.7393 90.0314 98.9054 87.5964 98.522C87.2243 98.4629 87.2076 99.0483 87.5745 99.1063Z" fill="black"/>
<path d="M84.5907 87.7185C84.2721 87.5169 83.9653 88.014 84.2844 88.2156C84.6771 88.4649 85.0256 88.7627 85.3337 89.1135C85.5822 89.3942 86.0068 88.9918 85.7577 88.709C85.4177 88.3247 85.025 87.9916 84.5907 87.7185Z" fill="black"/>
<path d="M100.163 159.97C100.546 154.531 101.828 149.223 103.956 144.206C104.103 143.859 103.542 143.69 103.397 144.034C101.25 149.096 99.9651 154.46 99.578 159.945C99.5503 160.322 100.135 160.344 100.163 159.97Z" fill="black"/>
<path d="M82.7723 80.8701C82.4428 80.6951 82.1313 81.1911 82.4657 81.3674C86.6159 83.562 90.2155 86.5971 93.0798 90.3185C93.3104 90.6155 93.7321 90.2112 93.5046 89.9163C90.6103 86.1586 86.9659 83.0861 82.7723 80.8701Z" fill="black"/>
<path d="M108.371 159.077C108.434 158.711 107.876 158.534 107.812 158.905C106.879 164.225 107.677 169.56 108.152 174.885C108.39 177.564 108.542 180.263 108.313 182.948C108.087 185.603 107.15 188.269 107.755 190.932C107.839 191.299 108.408 191.165 108.324 190.798C107.721 188.14 108.707 185.429 108.914 182.771C109.119 180.151 108.968 177.519 108.736 174.906C108.269 169.645 107.451 164.336 108.371 159.077Z" fill="black"/>
<path d="M79.2855 73.1904C83.5558 74.4415 87.2271 77.1566 89.6565 80.889C89.8597 81.2018 90.3739 80.9254 90.1702 80.6099C87.6575 76.7483 83.8795 73.926 79.4573 72.6311C79.0957 72.5236 78.9239 73.0829 79.2855 73.1904Z" fill="black"/>
<path d="M85.2433 98.163C85.257 98.0275 85.1492 97.9039 85.0212 97.8712C84.945 97.7714 84.8106 97.7213 84.6688 97.8025C84.4118 97.9466 84.4392 98.2792 84.674 98.4308C84.9194 98.585 85.2106 98.454 85.2433 98.163Z" fill="black"/>
<path d="M92.3277 135.87C92.3504 135.833 92.3712 135.799 92.3939 135.763C92.5926 135.442 92.095 135.134 91.896 135.454C91.8757 135.49 91.8531 135.527 91.8299 135.561C91.6314 135.881 92.1287 136.19 92.3277 135.87Z" fill="black"/>
<path d="M94.6144 141.156C93.7995 141.914 93.0426 142.724 92.3408 143.585C92.1057 143.873 92.5036 144.301 92.7429 144.01C93.4445 143.148 94.2041 142.338 95.0166 141.581C95.2931 141.324 94.8906 140.899 94.6144 141.156Z" fill="black"/>
<path d="M90.7812 130.183C90.5456 130.582 90.227 130.895 89.8203 131.117C89.4904 131.298 89.7689 131.812 90.0994 131.631C90.5915 131.362 90.9934 130.975 91.2791 130.492C91.4702 130.169 90.9744 129.859 90.7812 130.183Z" fill="black"/>
<path d="M71.3373 102.573C79.3917 101.125 87.7685 102.435 94.9945 106.271C95.3269 106.448 95.6355 105.95 95.3032 105.773C87.9345 101.863 79.4175 100.528 71.2037 102.003C70.8321 102.069 70.9678 102.638 71.3373 102.573Z" fill="black"/>
<path d="M88.0704 139.051C89.2206 138.503 90.2729 137.817 91.2433 136.993C91.5301 136.751 91.1279 136.326 90.8414 136.571C89.9092 137.361 88.8938 138.012 87.7916 138.537C87.4519 138.699 87.7307 139.213 88.0704 139.051Z" fill="black"/>
<path d="M83.7641 106.709C83.1052 106.635 82.4439 106.561 81.7829 106.488C81.4079 106.446 81.3884 107.03 81.7613 107.072C82.4226 107.146 83.0815 107.219 83.7425 107.293C84.1175 107.335 84.137 106.751 83.7641 106.709Z" fill="black"/>
<path d="M90.6206 145.514C90.2347 145.938 89.8982 146.399 89.6191 146.9C89.4338 147.227 89.9319 147.538 90.1143 147.209C90.3697 146.75 90.6717 146.326 91.023 145.939C91.2755 145.663 90.8752 145.236 90.6206 145.514Z" fill="black"/>
<path d="M82.6186 136.03C84.7605 135.377 86.725 134.388 88.5327 133.068C88.8339 132.846 88.4296 132.424 88.1281 132.644C86.4069 133.903 84.5262 134.838 82.4852 135.461C82.1265 135.571 82.2578 136.141 82.6186 136.03Z" fill="black"/>
<path d="M80.9251 122.763C80.5777 122.89 80.7066 123.461 81.0587 123.333C82.1548 122.934 83.2722 122.812 84.4279 122.964C84.8024 123.013 84.8217 122.429 84.4519 122.379C83.2464 122.219 82.0697 122.346 80.9251 122.763Z" fill="black"/>
<path d="M79.7534 119.137C82.1594 118.535 84.6874 119.908 87.0164 120.413C89.0745 120.858 91.1589 121.007 93.2325 120.595C93.6018 120.521 93.4687 119.951 93.0989 120.026C90.5707 120.527 88.0471 120.136 85.5903 119.455C83.6297 118.912 81.6792 118.055 79.62 118.568C79.2542 118.658 79.3876 119.228 79.7534 119.137Z" fill="black"/>
<path d="M75.77 119.91C76.1756 119.815 76.5788 119.72 76.9842 119.626C77.351 119.54 77.2174 118.97 76.8506 119.056C76.4452 119.151 76.0417 119.246 75.6364 119.34C75.2698 119.427 75.4034 119.996 75.77 119.91Z" fill="black"/>
<path d="M88.5492 148.232C86.6398 151.025 84.7567 153.86 83.8074 157.141C83.702 157.502 84.2615 157.674 84.3666 157.313C85.3025 154.078 87.1655 151.291 89.0468 148.541C89.2597 148.229 88.7622 147.92 88.5492 148.232Z" fill="black"/>
<path d="M83.5693 150.771C83.8521 150.522 83.4499 150.097 83.1674 150.349C82.0955 151.292 81.5176 152.66 81.5998 154.087C81.6203 154.462 82.2052 154.486 82.1846 154.111C82.1106 152.821 82.5997 151.628 83.5693 150.771Z" fill="black"/>
<path d="M66.9401 103.211C67.3821 103.108 67.8261 103.004 68.2681 102.9C68.635 102.814 68.5014 102.245 68.1345 102.331C67.6925 102.434 67.2484 102.538 66.8065 102.642C66.4399 102.728 66.5732 103.297 66.9401 103.211Z" fill="black"/>
<path d="M79.2049 150.636C78.8696 150.959 78.5779 151.323 78.3346 151.721C78.1362 152.044 78.6335 152.351 78.8301 152.031C79.0491 151.674 79.3055 151.352 79.6071 151.06C79.8772 150.798 79.475 150.373 79.2049 150.636Z" fill="black"/>
<path d="M66.8947 107.469C70.2339 106.316 73.7579 106.033 77.2375 106.669C77.6041 106.737 77.7781 106.177 77.4094 106.11C73.824 105.453 70.2073 105.71 66.7613 106.899C66.4076 107.02 66.5389 107.59 66.8947 107.469Z" fill="black"/>
<path d="M81.5579 163.753C81.5692 163.894 81.6472 164.02 81.7861 164.05C81.8541 164.135 81.9706 164.192 82.0768 164.152C82.2273 164.098 82.3377 164.005 82.3815 163.843C82.4252 163.681 82.3691 163.502 82.2344 163.399C81.9745 163.203 81.527 163.407 81.5579 163.753Z" fill="black"/>
<path d="M76.1103 128.325C75.0601 128.458 74.0122 128.591 72.9625 128.726C72.589 128.773 72.7248 129.342 73.0961 129.296C74.1456 129.16 75.1937 129.028 76.244 128.895C76.6172 128.848 76.4814 128.279 76.1103 128.325Z" fill="black"/>
<path d="M73.9348 134.638C73.7322 134.686 73.5292 134.733 73.3268 134.781C72.9599 134.867 73.0936 135.436 73.4604 135.35C73.6631 135.302 73.8661 135.255 74.0685 135.208C74.4351 135.122 74.3014 134.552 73.9348 134.638Z" fill="black"/>
<path d="M77.307 153.695C76.6157 154.775 76.0881 155.939 75.7307 157.171C75.6253 157.532 76.1848 157.704 76.29 157.343C76.6344 156.157 77.1378 155.044 77.8046 154.004C78.0094 153.687 77.5118 153.378 77.307 153.695Z" fill="black"/>
<path d="M75.393 146.932C75.0973 147.064 74.7992 147.198 74.5035 147.33C74.1604 147.485 74.4416 147.998 74.7826 147.844C75.081 147.712 75.3764 147.577 75.6745 147.445C76.0176 147.29 75.7364 146.777 75.393 146.932Z" fill="black"/>
<path d="M63.5147 103.442C63.317 103.604 63.1217 103.765 62.9264 103.926C62.8031 104.025 62.8126 104.229 62.9151 104.34C63.0297 104.459 63.2052 104.449 63.3286 104.351C63.5239 104.19 63.7215 104.028 63.9168 103.867C64.0399 103.766 64.0304 103.562 63.9282 103.453C63.813 103.331 63.6375 103.341 63.5147 103.442Z" fill="black"/>
<path d="M78.2361 171.022C78.0687 171.015 77.9499 171.144 77.932 171.302C77.9233 171.398 77.9127 171.496 77.9016 171.593C77.8829 171.749 78.0318 171.892 78.1821 171.897C78.3494 171.904 78.4675 171.772 78.4859 171.614C78.497 171.518 78.5083 171.422 78.5191 171.325C78.5347 171.168 78.3866 171.027 78.2361 171.022Z" fill="black"/>
<path d="M71.1204 135.406C70.5442 135.829 69.8864 136.067 69.1793 136.147C68.8074 136.191 68.9432 136.76 69.3129 136.716C70.1299 136.623 70.8626 136.315 71.5223 135.828C71.8235 135.607 71.4195 135.185 71.1204 135.406Z" fill="black"/>
<path d="M77.6286 174.201C77.7101 174.949 77.7934 175.693 77.8748 176.441C77.9164 176.813 78.4852 176.678 78.4443 176.307C78.3629 175.56 78.2799 174.815 78.1982 174.068C78.1565 173.696 77.5875 173.831 77.6286 174.201Z" fill="black"/>
<path d="M64.6618 112.49C64.005 112.425 63.3498 112.358 62.693 112.293C62.319 112.256 62.2977 112.842 62.6714 112.877C63.3261 112.942 63.9834 113.009 64.6378 113.074C65.0141 113.112 65.0328 112.526 64.6618 112.49Z" fill="black"/>
<path d="M71.1554 149.665C70.2767 150.366 69.3985 151.069 68.5204 151.772C68.2268 152.007 68.6316 152.431 68.9249 152.196C69.8031 151.493 70.6789 150.79 71.557 150.087C71.8506 149.852 71.4487 149.43 71.1554 149.665Z" fill="black"/>
<path d="M74.1797 174.382C73.3221 169.462 73.8083 164.451 75.5789 159.783C75.7125 159.43 75.1537 159.26 75.0196 159.611C73.2137 164.374 72.7349 169.499 73.6101 174.516C73.6755 174.888 74.2445 174.752 74.1797 174.382Z" fill="black"/>
<path d="M67.8745 143.068C66.7984 143.717 65.6378 144.075 64.3806 144.125C64.0069 144.14 63.9808 144.725 64.3566 144.71C65.7181 144.655 66.9871 144.286 68.1557 143.581C68.4759 143.389 68.1992 142.874 67.8745 143.068Z" fill="black"/>
<path d="M54.9722 134.658C59.6484 132.74 64.4427 131.151 69.3352 129.889C69.6976 129.794 69.5664 129.224 69.2016 129.319C64.2571 130.596 59.4157 132.209 54.6933 134.144C54.3441 134.286 54.628 134.799 54.9722 134.658Z" fill="black"/>
<path d="M55.3969 127.857C61.9501 124.617 69.2057 123.102 76.5079 123.438C76.8846 123.456 76.9062 122.871 76.5298 122.854C69.1256 122.513 61.7617 124.058 55.1175 127.341C54.7794 127.508 55.0585 128.022 55.3969 127.857Z" fill="black"/>
<path d="M69.9584 174.838C69.567 176.501 69.7207 178.14 70.4064 179.703C70.5569 180.047 71.07 179.766 70.9201 179.424C70.3002 178.009 70.1658 176.513 70.5182 175.012C70.603 174.646 70.0454 174.472 69.9584 174.838Z" fill="black"/>
<path d="M60.5687 152.593C61.274 151.983 62.0686 151.518 62.9505 151.21C63.3018 151.089 63.1724 150.517 62.8168 150.641C61.8351 150.984 60.9514 151.489 60.1639 152.168C59.8801 152.413 60.2823 152.837 60.5687 152.593Z" fill="black"/>
<path d="M59.793 111.454C57.9909 111.403 56.2071 111.175 54.4624 110.723C52.9138 110.319 50.7843 109.855 50.0793 108.242C49.9288 107.897 49.4157 108.178 49.5661 108.523C50.244 110.072 51.9813 110.605 53.4804 111.054C55.5253 111.668 57.638 111.978 59.7693 112.039C60.1459 112.049 60.1678 111.465 59.793 111.454Z" fill="black"/>
<path d="M66.7001 152.823C62.7682 154.882 59.4187 157.827 56.8612 161.454C56.6453 161.764 57.1426 162.07 57.3588 161.763C59.8601 158.213 63.1326 155.351 66.9813 153.337C67.3131 153.163 67.0343 152.649 66.7001 152.823Z" fill="black"/>
<path d="M48.4477 130.494C49.7328 129.979 51.0179 129.464 52.303 128.949C52.6524 128.809 52.3689 128.297 52.0239 128.435C50.7388 128.95 49.4537 129.465 48.1662 129.981C47.8191 130.12 48.1006 130.633 48.4477 130.494Z" fill="black"/>
<path d="M45.5823 132.756C45.8034 132.305 46.1392 131.965 46.5893 131.742C46.9277 131.576 46.6465 131.063 46.3102 131.228C45.7781 131.49 45.3467 131.915 45.0868 132.447C44.92 132.782 45.416 133.093 45.5823 132.756Z" fill="black"/>
<path d="M57.7122 168.091C55.1447 172.035 53.793 176.623 53.8119 181.328C53.8135 181.705 54.3983 181.729 54.3968 181.352C54.3778 176.738 55.6921 172.268 58.2101 168.4C58.4151 168.085 57.9194 167.776 57.7122 168.091Z" fill="black"/>
<path d="M48.6125 168.779C49.2099 165.833 50.0849 162.931 51.8315 160.448C53.5612 157.986 55.9221 156.051 58.2229 154.149C58.5123 153.908 58.1082 153.486 57.8183 153.725C55.4748 155.66 53.1 157.637 51.3336 160.139C49.5565 162.656 48.6596 165.618 48.0524 168.605C47.9802 168.973 48.5376 169.148 48.6125 168.779Z" fill="black"/>
<path d="M48.2862 170.833C48.1172 170.871 48.0529 171.028 48.0682 171.185C48.1107 171.612 48.1536 172.042 48.1968 172.471C48.2121 172.629 48.4066 172.72 48.5482 172.689C48.7168 172.65 48.7809 172.493 48.7661 172.338C48.7232 171.908 48.6799 171.479 48.6375 171.051C48.6222 170.892 48.4274 170.8 48.2862 170.833Z" fill="black"/>
<path d="M65.0938 138.133C65.467 138.074 65.3313 137.505 64.9602 137.563C54.8495 139.19 45.286 143.366 37.2047 149.652C36.9085 149.885 37.3125 150.307 37.6069 150.077C45.6067 143.853 55.0872 139.743 65.0938 138.133Z" fill="black"/>
<path d="M211.482 85.8643C210.772 84.4566 210.008 83.0833 209.154 81.7647C208.41 80.6122 207.598 79.5029 206.7 78.4516C203.554 74.7672 199.373 72.1783 194.76 70.753C185.529 67.9011 174.993 69.207 166.087 72.6087C164.878 73.072 163.688 73.5915 162.532 74.1747C164.184 70.5793 165.756 66.9428 167.371 63.3348C169.824 57.8553 172.016 52.1367 174.952 46.8947C176.381 44.3467 178.287 41.8379 180.627 40.0283C181.046 39.7042 181.477 39.4014 181.922 39.1262C181.591 39.0474 181.262 38.9733 180.929 38.8998C180.732 38.8574 180.536 38.8118 180.339 38.7715C179.695 38.6268 179.05 38.4897 178.404 38.3574C178.344 38.3089 178.266 38.2718 178.17 38.2512C177.582 38.1221 176.997 38.0238 176.413 37.9516C174.328 37.6975 172.274 37.7945 170.275 38.174C163.067 39.5315 156.533 44.5182 151.564 49.7366C147.668 53.824 144.346 58.4449 141.684 63.4207C141.497 62.3062 141.283 61.1958 141.043 60.0913C140.049 55.5107 138.768 50.8656 136.938 46.5434C135.484 43.1043 133.335 39.6478 129.872 37.9529C128.115 37.0932 126.242 36.7993 124.615 38.0913C123.027 39.355 121.811 41.3245 120.708 43.0031C118.167 46.8644 116.206 51.1305 114.917 55.5895C114.264 54.8318 113.559 54.1179 112.806 53.4482C109.741 50.7299 105.825 49.3383 102.607 46.8868C102.327 46.6762 102.054 46.4543 101.787 46.2261C101.756 46.1994 101.722 46.1762 101.689 46.1578C101.426 46.443 101.175 46.7347 100.934 47.0291C93.5133 56.0518 94.5327 68.9337 97.7285 79.8226C93.5797 74.1262 88.1524 69.1791 80.8557 68.3947C78.6592 68.1597 76.4087 68.4203 74.3625 69.1836C73.9053 69.3557 73.4588 69.5517 73.025 69.771C72.9235 70.261 72.8392 70.7517 72.7736 71.2406C71.7244 78.9144 74.8712 86.7245 79.1523 93.0456C76.277 92.6502 73.3655 92.573 70.4393 92.956C62.7931 93.9622 55.8035 97.6786 49.3211 101.661C48.4999 102.166 47.6847 102.676 46.8706 103.192C46.2782 103.566 45.0257 104.066 44.6518 104.644C44.0801 105.528 44.8212 107.346 45.2121 108.204C46.5072 111.043 49.2352 112.85 52.11 113.818C55.8298 115.068 59.9428 115.433 63.8371 115.859C60.393 117.036 57.0643 118.624 53.8795 120.343C47.9493 123.544 42.3009 127.673 38.4306 133.275C34.4494 139.04 32.4915 146.437 34.3503 153.302C34.3967 153.478 34.4473 153.654 34.5008 153.831C34.621 154.231 34.9828 154.35 35.3518 154.211C42.8454 151.333 51.1705 148.291 59.2995 148.863C55.6783 150.577 52.3153 152.725 49.7404 155.868C45.1567 161.463 44.3358 169.004 44.8099 175.979C45.1017 180.279 45.5118 185.045 47.8018 188.807C48.7498 190.361 50.0728 191.699 51.6259 192.585C51.9648 192.78 52.3122 192.95 52.6693 193.1C52.839 192.757 53.0056 192.413 53.1677 192.067C53.344 191.702 53.5132 191.338 53.6816 190.969C53.7085 190.91 53.7259 190.85 53.7341 190.793C55.4266 187.566 56.2715 183.994 57.3568 180.524C58.6005 176.551 60.155 172.674 62.0858 168.987C64.8736 163.666 68.4687 158.744 72.8764 154.685C66.4525 164.63 66.1832 177.55 69.8279 188.713C71.1095 192.645 72.9325 196.301 74.7447 200.004C74.7674 200.049 74.7871 200.093 74.8098 200.138C74.9563 200.435 75.0981 200.733 75.2425 201.031C75.5883 200.825 75.9328 200.612 76.2715 200.396C79.3635 198.424 82.0978 196.003 83.7716 192.573C86.0706 187.863 86.2646 182.497 86.3547 177.355C86.4522 171.721 86.6074 166.211 88.2525 160.771C89.8243 155.573 92.3911 150.694 95.73 146.413C97.5037 144.137 99.5015 142.049 101.685 140.179C99.6725 144.655 98.1444 149.343 97.1356 154.143C95.8623 160.194 95.3872 166.412 95.793 172.583C96.2408 179.407 98.1487 186.029 98.618 192.842C98.7308 194.493 98.7543 196.151 98.6339 197.801C98.5192 199.383 97.8999 201.181 98.2609 202.752C98.8428 205.298 102.672 205.484 104.754 205.417C110.249 205.239 115.357 202.007 118.58 197.671C126.022 187.653 124.311 174.588 126.488 162.865C129.883 169.745 134.706 175.906 141.289 180.022C145.515 182.663 150.299 184.344 155.282 184.688C155.777 184.72 155.968 184.21 155.819 183.822C155.767 183.685 155.721 183.549 155.685 183.413C154.991 180.997 156.29 178.603 157.531 176.567C158.797 174.492 160.198 172.515 161.049 170.22C162.869 165.302 162.386 159.833 161.084 154.854C159.926 150.425 158.124 146.138 156.056 142.032C158.283 142.736 160.568 143.287 162.776 143.834C166.425 144.74 170.084 145.639 173.636 146.881C175.479 147.525 177.291 148.264 179.033 149.146C180.576 149.928 182.028 150.891 183.603 151.612C185.197 152.344 186.868 152.7 188.602 152.294C189.517 152.079 191.108 151.382 192.467 151.282C192.885 151.252 193.283 151.278 193.633 151.396C193.718 151.044 193.794 150.69 193.86 150.336C194.598 146.513 194.445 142.507 193.607 138.683C191.994 131.318 187.989 124.721 183.72 118.61C180.646 114.21 177.017 109.708 172.778 106.1C177.983 101.646 184.035 98.2188 190.544 96.0398C194.491 94.7207 198.597 93.8378 202.744 93.4738C204.825 93.2915 206.887 93.3202 208.971 93.3025C210.535 93.2893 211.931 92.7459 212.285 91.0792C212.323 90.8997 212.35 90.7181 212.367 90.5339C212.5 89.0069 211.935 87.3563 211.482 85.8643ZM141.982 65.3797C142.245 64.8542 142.518 64.3337 142.796 63.8168C147.193 55.6612 153.538 47.893 161.495 42.9954C165.912 40.2785 171.037 38.4837 176.224 39.1017C177.196 39.292 178.168 39.492 179.138 39.7021C178.208 40.4919 177.355 41.3743 176.598 42.316C173.183 46.5623 171.229 51.8719 169.024 56.7982C166.422 62.6079 163.857 68.4358 161.211 74.2272C161.075 74.5207 160.942 74.8141 160.807 75.1077C160.519 75.7254 160.231 76.3432 159.933 76.9607C157.951 81.1235 155.759 85.2012 152.989 88.8972C150.788 91.8327 148.182 94.5246 145.196 96.6615C144.986 96.8117 144.773 96.9598 144.559 97.104C144.395 96.8758 144.229 96.6481 144.057 96.4264C143.62 95.8535 143.156 95.3013 142.672 94.7731C141.304 93.282 139.726 92.1453 138.014 91.3111C137.664 91.1409 137.309 90.9812 136.949 90.8375C136.428 90.6256 135.9 90.4419 135.359 90.2801C135.425 90.2 135.467 90.0917 135.473 89.9578C135.863 82.1432 137.775 74.4401 141.041 67.3379C141.342 66.6782 141.657 66.0251 141.982 65.3797ZM144.991 99.8887C144.807 99.9245 144.624 99.9628 144.441 100.001C144.505 99.7625 144.567 99.5221 144.626 99.2823C144.75 99.4839 144.872 99.686 144.991 99.8887ZM110.064 100.262C110.24 100.593 110.754 100.314 110.577 99.9807C110.406 99.6531 109.818 98.5364 110.337 98.2995C110.855 98.0602 111.298 98.67 111.552 99.024C111.769 99.3263 112.286 99.049 112.066 98.7449C111.648 98.1619 111.009 97.464 110.237 97.7131C113.391 95.0401 117.094 93.0131 121.06 91.8211C122.382 91.4226 123.775 91.1008 125.199 90.8823C125.995 90.7608 126.8 90.6704 127.609 90.6154C130.613 90.4188 133.656 90.7337 136.387 91.8121C136.75 91.9552 137.108 92.1118 137.458 92.2821C138.633 92.855 139.738 93.5835 140.74 94.493C141.799 95.456 142.744 96.554 143.59 97.7323C143.642 97.804 143.693 97.8762 143.743 97.9484C143.654 98.3561 143.557 98.761 143.454 99.1626C143.36 99.5329 143.262 99.9021 143.158 100.268C143.037 100.695 142.91 101.119 142.774 101.54C141.239 106.394 138.873 110.913 135.876 114.992C135.647 115.307 135.412 115.617 135.175 115.927C132.983 118.774 130.478 121.396 127.736 123.755C127.439 124.012 127.137 124.265 126.834 124.517C124.85 126.152 122.75 127.653 120.559 129.005C120.169 129.248 119.775 129.485 119.379 129.714C118.387 130.298 117.377 130.849 116.352 131.368C114.434 132.341 112.47 133.208 110.464 133.971C109.059 134.504 107.632 134.99 106.19 135.422C105.87 135.521 105.546 135.613 105.223 135.704C105.095 135.743 104.966 135.778 104.84 135.812C104.61 135.612 104.39 135.399 104.176 135.175C103.366 134.332 102.672 133.351 102.084 132.287C101.891 131.933 101.707 131.57 101.534 131.2C100.982 130.005 100.553 128.736 100.235 127.45C100.131 127.028 100.038 126.603 99.9561 126.18C99.7468 125.092 99.6182 124.01 99.5597 122.971C99.4524 121.078 99.5197 119.181 99.7576 117.304C99.8067 116.908 99.8652 116.512 99.9289 116.117C100.117 114.973 100.37 113.834 100.684 112.716C100.791 112.33 100.905 111.948 101.03 111.567C101.864 108.962 103.04 106.463 104.536 104.161C104.558 104.125 104.584 104.088 104.606 104.051C104.795 103.762 104.988 103.479 105.189 103.196C106.214 101.747 107.371 100.397 108.641 99.1626C108.918 98.8888 109.204 98.6197 109.494 98.3619C109.538 98.3219 109.584 98.2834 109.629 98.2436C109.385 98.8498 109.794 99.7461 110.064 100.262ZM115.815 56.6922C116.712 53.3844 117.987 50.1804 119.587 47.1835C120.533 45.4093 121.596 43.6991 122.771 42.0688C124.104 40.2163 125.623 37.7407 128.249 38.5477C131.883 39.6644 134.16 43.187 135.633 46.468C137.368 50.3243 138.52 54.524 139.506 58.6259C140.027 60.7913 140.461 62.9798 140.776 65.1865C139.381 67.9983 138.194 70.9148 137.229 73.9022C135.557 79.0831 134.576 84.4748 134.305 89.9117C134.305 89.9407 134.304 89.9694 134.306 89.9981C131.438 89.3174 128.379 89.2726 125.405 89.6787C118.524 86.1655 114.984 78.3826 114.408 70.8279C114.086 66.6018 114.465 62.3127 115.443 58.1615C115.556 57.6708 115.681 57.1801 115.815 56.6922ZM96.7708 69.4814C95.8571 61.9314 96.9534 53.7513 101.851 47.7618C104.83 49.9977 108.395 51.3226 111.293 53.6906C112.491 54.6692 113.58 55.7693 114.543 56.9661C113.604 60.6273 113.116 64.4017 113.136 68.1697C113.178 76.5535 116.363 85.5301 123.572 89.9876C123.326 90.0379 123.081 90.0903 122.837 90.1452C117.636 91.3185 112.771 93.8573 108.806 97.4055C108.628 97.1588 108.454 96.9111 108.281 96.661C105.409 92.5377 103.029 88.1256 100.406 83.8452C100.269 83.6202 100.128 83.394 99.9864 83.17C99.9864 83.17 99.9835 83.1682 99.983 83.1661C98.4156 78.7249 97.3308 74.1059 96.7708 69.4814ZM75.1832 82.6337C73.8763 78.7276 73.3465 74.5909 74.0655 70.5633C76.2482 69.5929 78.7573 69.2956 81.1537 69.6063C85.1431 70.1205 88.8853 72.1944 91.8603 74.8399C94.7417 77.404 96.998 80.5711 99.0273 83.8371C99.367 84.3845 99.6996 84.9316 100.028 85.4819C101.252 87.5281 102.443 89.5922 103.67 91.6308C104.849 93.5869 106.065 95.5224 107.377 97.3992C107.565 97.6699 107.756 97.94 107.948 98.2072C106.756 99.3542 105.656 100.599 104.664 101.93C104.503 102.146 104.343 102.366 104.188 102.587C100.153 100.166 95.9077 98.0997 91.5071 96.4254C88.0003 95.0891 84.3699 93.943 80.672 93.2886C78.3569 89.9836 76.4496 86.4175 75.1832 82.6337ZM58.7605 114.021C53.7275 113.278 45.9535 111.741 45.691 105.328C53.4262 100.375 61.6216 95.2222 70.9205 94.0692C73.9424 93.695 77.0004 93.8244 80.0286 94.3067C80.5602 94.3913 81.0894 94.4856 81.6168 94.5929C86.9756 95.6584 92.2127 97.7545 96.9885 100.036C99.2263 101.104 101.41 102.28 103.534 103.553C102.04 105.852 100.851 108.353 99.9896 110.965C99.8625 111.346 99.7439 111.732 99.6322 112.116C99.2435 113.461 98.9393 114.83 98.7272 116.212C98.1576 116.242 97.592 116.259 97.032 116.258C89.755 116.267 82.7063 113.884 75.4294 113.82C72.4629 113.795 69.5559 114.228 66.7258 114.98C64.0627 114.732 61.4068 114.413 58.7605 114.021ZM35.4578 152.925C33.7963 146.615 35.4902 139.908 39.012 134.509C42.8319 128.65 48.6941 124.43 54.7867 121.184C58.6764 119.109 62.7151 117.29 66.9227 116.172C68.2782 115.813 69.6523 115.525 71.0452 115.326C73.0068 115.042 75.0048 114.934 77.0394 115.043C84.0178 115.412 90.8369 117.614 97.8553 117.415C98.0915 117.408 98.3271 117.399 98.5624 117.387C98.3814 118.921 98.3086 120.467 98.3497 122.007C98.3937 123.681 98.5569 125.383 98.8916 127.047C96.3992 129.065 93.8609 131.03 91.2523 132.903C84.2331 137.939 76.7667 142.091 68.6703 145.125C66.2891 146.017 63.8255 146.897 61.4269 147.911C52.6751 146.637 43.6165 149.809 35.4578 152.925ZM57.1608 177.416C55.5038 182.087 54.6596 187.17 52.0257 191.435C52.0186 191.446 52.0117 191.458 52.0075 191.471C50.2644 190.38 48.8744 188.612 48.0448 186.743C46.459 183.185 46.1221 178.98 45.9237 175.128C45.5668 168.212 46.5902 160.797 51.5521 155.575C54.3297 152.651 57.8312 150.703 61.5223 149.115C62.1775 148.834 62.8398 148.563 63.5042 148.302C65.7778 147.401 68.0866 146.599 70.3073 145.749C77.8061 142.884 84.7597 138.943 91.2966 134.299C93.9893 132.387 96.6087 130.377 99.1797 128.304C99.5236 129.638 99.9893 130.938 100.605 132.16C93.3644 139.358 82.9398 143.028 75.9839 150.652C67.1913 157.165 60.8436 167.035 57.1608 177.416ZM88.5048 156.563C86.4332 161.629 85.4649 166.95 85.2794 172.405C85.0957 177.826 85.4565 183.425 83.9856 188.706C83.103 191.871 81.4879 194.691 79.0496 196.908C78.0336 197.834 76.9274 198.641 75.7731 199.375C74.648 197.087 73.4425 194.834 72.4998 192.575C69.5983 185.64 68.0223 178.021 68.7447 170.491C69.3685 163.996 71.7249 157.542 75.9228 152.495C76.2227 152.134 76.5316 151.78 76.8499 151.437C78.275 149.877 79.8494 148.485 81.5117 147.191C84.3319 144.992 87.4013 143.089 90.4044 141.178C94.173 138.781 97.9678 136.291 101.174 133.197C101.408 133.591 101.661 133.974 101.932 134.348C102.407 135.001 102.939 135.61 103.52 136.163C103.548 136.19 103.576 136.215 103.606 136.241C103.794 136.418 103.988 136.589 104.19 136.753C103.872 136.979 103.558 137.207 103.247 137.438C103.248 137.44 103.245 137.439 103.245 137.439C103.104 137.546 102.965 137.651 102.825 137.758C96.5072 142.608 91.5311 149.164 88.5048 156.563ZM125.661 161.119C125.5 161.817 125.356 162.524 125.232 163.236C124.684 166.353 124.395 169.507 124.127 172.66C123.617 178.667 123.157 184.765 121.066 190.475C119.058 195.963 115.373 200.832 109.852 203.116C107.246 204.196 104.307 204.596 101.542 203.934C100.962 203.796 100.184 203.644 99.7505 203.191C99.0526 202.458 99.3816 201.196 99.5128 200.32C99.7579 198.679 99.8913 197.033 99.8818 195.372C99.842 189.162 98.2311 183.118 97.3999 176.998C96.6148 171.208 96.6348 165.314 97.3938 159.52C98.2348 153.12 100.009 146.837 102.619 140.933C102.977 140.121 103.353 139.317 103.748 138.52C104.215 138.166 104.692 137.823 105.175 137.492C105.505 137.261 105.839 137.036 106.179 136.817C106.348 136.705 106.521 136.595 106.693 136.487C111.102 135.139 115.372 133.312 119.375 131.035C119.768 130.813 120.157 130.588 120.544 130.355C122.952 128.918 125.253 127.315 127.421 125.552C129.13 128.701 130.266 132.152 130.769 135.726C131.195 138.752 131.154 141.869 130.607 144.879C130.04 147.996 128.9 150.967 127.827 153.936C127.18 155.719 126.595 157.508 126.106 159.326C125.945 159.918 125.797 160.517 125.661 161.119ZM159.751 154.415C161.182 159.528 161.787 165.151 159.804 170.205C158.134 174.461 153.383 178.576 154.504 183.451C145.82 182.581 138.107 177.498 132.749 170.744C130.392 167.772 128.452 164.497 126.861 161.041C127.011 160.367 127.181 159.698 127.367 159.034C128.424 155.281 130.039 151.713 131.086 147.957C132.034 144.556 132.405 141.025 132.131 137.504C131.783 133.037 130.484 128.691 128.336 124.797C131.176 122.389 133.77 119.705 136.049 116.756C142.716 123.157 148.425 130.547 152.927 138.626C153.168 139.06 153.407 139.494 153.642 139.931C153.925 140.451 154.203 140.973 154.476 141.5C156.623 145.63 158.503 149.948 159.751 154.415ZM181.479 117.474C185.592 123.092 189.508 129.167 191.631 135.847C193.088 140.432 193.621 145.426 192.715 150.134C191.043 150.062 189.548 150.975 187.91 151.246C186.011 151.561 184.232 150.697 182.621 149.798C181.059 148.927 179.52 148.05 177.886 147.315C170.948 144.195 163.395 143.158 156.2 140.85C155.896 140.754 155.594 140.652 155.293 140.547C155.041 140.067 154.787 139.591 154.532 139.117C151.716 133.909 148.401 128.969 144.665 124.378C142.208 121.361 139.566 118.505 136.756 115.824C138.846 112.991 140.646 109.926 142.102 106.643C142.88 104.887 143.543 103.09 144.086 101.257C144.585 101.152 145.087 101.049 145.59 100.95C145.989 100.868 146.392 100.791 146.793 100.719C148.796 100.345 150.815 100.05 152.834 99.9277C158.871 99.5629 164.475 101.448 169.374 104.919C169.918 105.306 170.452 105.707 170.975 106.122C171.287 106.367 171.593 106.617 171.896 106.873C175.546 109.939 178.673 113.642 181.479 117.474ZM211.196 89.9873C211.247 91.333 210.615 92.082 209.214 92.1316C208.175 92.1708 207.13 92.0986 206.09 92.1234C204.224 92.1669 202.357 92.3134 200.505 92.5503C192.797 93.5418 185.297 96.2293 178.696 100.319C176.287 101.811 173.999 103.491 171.859 105.341C167.046 101.478 161.472 98.8068 155.052 98.7061C152.085 98.659 149.124 99.0883 146.199 99.6489C145.884 99.1073 145.558 98.5759 145.215 98.0557C151.865 93.5389 156.55 86.4481 160.118 79.2462C160.679 78.1151 161.227 76.9749 161.761 75.8306C167.05 72.8227 173.386 71.3041 179.17 70.6768C188.227 69.6933 198.189 71.2975 204.782 78.0816C207.172 80.5395 208.972 83.4415 210.502 86.495C210.852 87.6557 211.155 88.8364 211.196 89.9873Z" fill="black"/>
</svg>
