<svg width="24" height="24" viewBox="0 0 24 24" fill="none" xmlns="http://www.w3.org/2000/svg">
<path d="M22.781 21.7033L16.8392 15.7615C16.8389 15.7611 16.8389 15.7606 16.8392 15.7603C18.1111 14.2603 18.8501 12.3811 18.9409 10.4165C19.1966 5.09406 14.9611 0.809727 9.63612 1.00652C4.94566 1.18406 1.18405 4.94566 1.00652 9.63613C0.809767 14.9612 5.09414 19.1966 10.4167 18.9408C12.3811 18.8499 14.2602 18.1109 15.7602 16.8391C15.7606 16.8388 15.7611 16.8388 15.7614 16.8391L21.7033 22.781C22.0032 23.0762 22.4857 23.0725 22.781 22.7726C23.073 22.476 23.073 21.9999 22.781 21.7033ZM2.71773 11.7045C2.13277 9.09337 2.89686 6.51639 4.70666 4.70662C6.51647 2.89686 9.09337 2.13273 11.7046 2.71773C14.1751 3.27136 16.68 5.77606 17.2337 8.24629C17.819 10.8577 17.0548 13.435 15.2449 15.2449C13.435 17.0548 10.8576 17.819 8.24616 17.2336C5.77593 16.6799 3.27136 14.1748 2.71773 11.7045Z" fill="black"/>
</svg>
